<?xml version="1.0" standalone="no"?>
<!DOCTYPE svg PUBLIC "-//W3C//DTD SVG 1.1//EN" "http://www.w3.org/Graphics/SVG/1.1/DTD/svg11.dtd" >
<svg xmlns="http://www.w3.org/2000/svg" width="100%" height="100%">
<metadata>
Created by FontXChange 20110222 at Thu Nov  3 07:33:26 2016
 By EMILIANO HERNANDEZ G.
Copyright 1997 International Typeface Corporation. All rights reserved. "ITC" is a trademark of International Typeface Corporation Registered in the U.S. Patent and Trademark Office and may be registered in certain jurisdictions;"Conduit" is a trademark of International Typeface Corporation and may be registered in certain jurisdictions.
</metadata>
<defs>
<font id="ConduitITCStd-Bold" horiz-adv-x="507" >
  <font-face 
    font-family="ConduitITCStd"
    font-weight="700"
    font-stretch="normal"
    units-per-em="1000"
    panose-1="2 0 8 6 3 0 0 2 0 4"
    ascent="800"
    descent="-200"
    x-height="457"
    cap-height="630"
    bbox="-72 -250 1286 831"
    underline-thickness="86"
    underline-position="-26"
    stemh="105"
    stemv="115"
    unicode-range="U+0020-FB04"
  />
<missing-glyph horiz-adv-x="500" 
d="M12 0v665h475v-665h-475zM88 618l162 -243l161 243h-323zM60 575v-484c0 -1 161 242 161 242zM440 575l-162 -242l162 -243v485zM411 48l-161 242l-162 -242h323z" />
    <glyph glyph-name="f_i" unicode="fi" horiz-adv-x="502" 
d="M454 573c0 -36 -31 -67 -67 -67s-66 31 -66 67s30 67 66 67s67 -31 67 -67zM445 10c0 -7 -3 -10 -10 -10h-95c-7 0 -10 3 -10 10v438c0 7 3 10 10 10h95c7 0 10 -3 10 -10v-438zM272 320c0 -7 -3 -10 -10 -10h-65c-7 0 -10 -3 -10 -10v-290c0 -7 -3 -10 -10 -10h-95
c-7 0 -10 3 -10 10v290c0 7 -3 10 -10 10h-23c-7 0 -10 3 -10 10v85c0 7 3 10 10 10h23c7 0 10 3 10 10v28c0 80 51 150 134 176c22 7 45 10 56 10c6 0 10 -3 10 -10v-85c0 -6 -3 -10 -9 -10c-52 -4 -76 -35 -76 -71v-38c0 -7 3 -10 10 -10h65c7 0 10 -3 10 -10v-85z" />
    <glyph glyph-name="f_l" unicode="fl" horiz-adv-x="506" 
d="M448 10c0 -7 -3 -10 -10 -10h-95c-7 0 -10 3 -10 10v505c0 7 -3 10 -10 10h-65c-40 0 -71 -32 -71 -72v-28c0 -7 3 -10 10 -10h65c7 0 10 -3 10 -10v-85c0 -7 -3 -10 -10 -10h-65c-7 0 -10 -3 -10 -10v-290c0 -7 -3 -10 -10 -10h-95c-7 0 -10 3 -10 10v290
c0 7 -3 10 -10 10h-23c-7 0 -10 3 -10 10v85c0 7 3 10 10 10h23c7 0 10 3 10 10v19c0 103 83 186 186 186h180c7 0 10 -3 10 -10v-610z" />
    <glyph glyph-name="f_f" unicode="ff" horiz-adv-x="553" 
d="M591 625c0 -4 -2 -10 -4 -15l-27 -74c-1 -4 -4 -8 -8 -8s-15 7 -33 7c-41 0 -71 -31 -71 -72v-38c0 -7 3 -10 10 -10h66c7 0 10 -3 10 -10v-85c0 -7 -3 -10 -10 -10h-66c-7 0 -10 -3 -10 -10v-290c0 -7 -3 -10 -10 -10h-95c-7 0 -10 3 -10 10v290c0 7 -3 10 -10 10h-126
c-7 0 -10 -3 -10 -10v-290c0 -7 -3 -10 -10 -10h-95c-7 0 -10 3 -10 10v290c0 7 -3 10 -10 10h-23c-7 0 -10 3 -10 10v85c0 7 3 10 10 10h23c7 0 10 3 10 10v28c0 102 84 187 186 187c54 0 100 -15 128 -35c3 -2 8 -7 12 -7s9 5 12 7c29 21 68 35 109 35c21 0 47 -3 64 -7
c5 -1 8 -4 8 -8zM338 494c0 6 -2 10 -9 16c-18 16 -50 25 -71 25c-40 0 -71 -30 -71 -72v-38c0 -7 3 -10 10 -10h126c7 0 10 3 10 10v28c0 27 5 36 5 41z" />
    <glyph glyph-name="f_f_i" unicode="ffi" horiz-adv-x="757" 
d="M715 573c0 -36 -30 -67 -66 -67s-67 31 -67 67s31 67 67 67s66 -31 66 -67zM706 10c0 -7 -3 -10 -10 -10h-95c-7 0 -10 3 -10 10v438c0 7 3 10 10 10h95c7 0 10 -3 10 -10v-438zM534 320c0 -7 -3 -10 -10 -10h-66c-7 0 -10 -3 -10 -10v-290c0 -7 -3 -10 -10 -10h-95
c-7 0 -10 3 -10 10v290c0 7 -3 10 -10 10h-126c-7 0 -10 -3 -10 -10v-290c0 -7 -3 -10 -10 -10h-95c-7 0 -10 3 -10 10v290c0 7 -3 10 -10 10h-23c-7 0 -10 3 -10 10v85c0 7 3 10 10 10h23c7 0 10 3 10 10v28c0 102 84 187 186 187c54 0 100 -15 128 -35c3 -2 8 -7 12 -7
s9 5 13 7c39 27 94 35 113 35c6 0 10 -3 10 -10v-86c0 -6 -3 -10 -9 -10c-53 -4 -77 -35 -77 -71v-38c0 -7 3 -10 10 -10h66c7 0 10 -3 10 -10v-85zM338 494c0 6 -2 10 -9 16c-18 16 -50 25 -71 25c-40 0 -71 -30 -71 -72v-38c0 -7 3 -10 10 -10h126c7 0 10 3 10 10v28
c0 27 5 36 5 41z" />
    <glyph glyph-name="f_f_l" unicode="ffl" horiz-adv-x="766" 
d="M709 10c0 -7 -3 -10 -10 -10h-95c-7 0 -10 3 -10 10v505c0 7 -3 10 -10 10h-65c-40 0 -71 -30 -71 -72v-28c0 -7 3 -10 10 -10h66c7 0 10 -3 10 -10v-85c0 -7 -3 -10 -10 -10h-66c-7 0 -10 -3 -10 -10v-290c0 -7 -3 -10 -10 -10h-95c-7 0 -10 3 -10 10v290
c0 7 -3 10 -10 10h-126c-7 0 -10 -3 -10 -10v-290c0 -7 -3 -10 -10 -10h-95c-7 0 -10 3 -10 10v290c0 7 -3 10 -10 10h-23c-7 0 -10 3 -10 10v85c0 7 3 10 10 10h23c7 0 10 3 10 10v28c0 102 84 187 186 187c60 0 108 -18 135 -40c3 -2 7 -7 11 -7s10 6 13 8
c29 20 64 29 102 29h180c7 0 10 -3 10 -10v-610zM339 493c0 6 -2 10 -9 16c-18 16 -51 26 -72 26c-40 0 -71 -30 -71 -72v-38c0 -7 3 -10 10 -10h126c7 0 10 3 10 10v28c0 22 6 35 6 40z" />
    <glyph glyph-name=".notdef" horiz-adv-x="500" 
d="M12 0v665h475v-665h-475zM88 618l162 -243l161 243h-323zM60 575v-484c0 -1 161 242 161 242zM440 575l-162 -242l162 -243v485zM411 48l-161 242l-162 -242h323z" />
    <glyph glyph-name="space" unicode=" " horiz-adv-x="177" 
 />
    <glyph glyph-name="exclam" unicode="!" horiz-adv-x="306" 
d="M210 359l-21 -178c-1 -6 -4 -9 -10 -9h-50c-6 0 -9 3 -10 9l-23 178v261c0 7 3 10 10 10h94c7 0 10 -3 10 -10v-261zM220 57c0 -36 -31 -67 -67 -67s-67 31 -67 67s31 67 67 67s67 -31 67 -67z" />
    <glyph glyph-name="quotedbl" unicode="&#x22;" horiz-adv-x="316" 
d="M283 621c0 -5 -2 -19 -4 -33l-19 -149c-1 -6 -4 -9 -10 -9h-49c-6 0 -9 3 -10 9l-20 150c-2 12 -4 26 -4 32s4 9 10 9h96c6 0 10 -3 10 -9zM149 621c0 -5 -2 -19 -4 -33l-19 -149c-1 -6 -4 -9 -10 -9h-49c-6 0 -9 3 -10 9l-20 150c-2 12 -4 26 -4 32s4 9 10 9h96
c6 0 10 -3 10 -9z" />
    <glyph glyph-name="numbersign" unicode="#" horiz-adv-x="556" 
d="M530 452c0 -3 -2 -10 -3 -15l-20 -74c-2 -7 -6 -10 -13 -10h-65c-5 0 -9 -1 -10 -6l-12 -43c-2 -7 -4 -13 -4 -18s3 -9 10 -9h65c6 0 8 -2 8 -6s-2 -11 -3 -15l-20 -74c-2 -7 -6 -10 -13 -10h-72c-5 0 -9 -1 -10 -6l-46 -159c-1 -5 -5 -7 -10 -7h-59c-7 0 -10 4 -10 9
c0 6 3 13 4 18l33 122c1 5 3 11 3 15c0 5 -3 8 -10 8h-78c-5 0 -9 -1 -10 -6l-45 -159c-1 -5 -5 -7 -10 -7h-60c-7 0 -10 4 -10 9c0 6 2 12 4 18l35 122c1 4 3 10 3 15s-3 8 -10 8h-57c-5 0 -7 2 -7 6s3 13 4 18l19 71c2 7 5 10 12 10h64c5 0 9 3 10 8l13 45c1 5 4 11 4 15
c0 5 -4 8 -11 8h-64c-5 0 -7 2 -7 6c0 6 2 11 4 18l19 71c2 7 5 10 12 10h73c5 0 9 3 10 8l44 157c1 5 5 7 10 7h60c7 0 11 -4 11 -9c0 -4 -2 -9 -4 -15l-34 -121c-2 -7 -4 -13 -4 -18s3 -9 10 -9h77c5 0 9 3 10 8l46 157c1 5 5 7 10 7h60c7 0 11 -4 11 -9
c0 -3 -2 -9 -4 -15l-34 -121c-2 -7 -4 -14 -4 -18c0 -5 3 -9 10 -9h57c6 0 8 -2 8 -6zM336 345c0 5 -4 8 -11 8h-77c-5 0 -9 -1 -10 -6l-12 -43c-2 -6 -5 -15 -5 -18c0 -5 4 -9 11 -9h77c5 0 9 3 10 8l13 45c2 5 4 12 4 15z" />
    <glyph glyph-name="dollar" unicode="$" 
d="M468 167c0 -98 -63 -167 -162 -176c-6 -1 -8 -4 -8 -10v-28c0 -7 -3 -10 -10 -10h-52c-7 0 -10 3 -10 10v27c0 7 -3 10 -10 10c-73 3 -113 30 -141 69c-16 22 -26 44 -26 50c0 3 2 6 6 8l76 38c6 3 11 6 15 6c3 0 6 -2 8 -6c9 -23 20 -38 32 -47c11 -8 24 -12 30 -12
s10 3 10 10v157c0 4 -2 7 -6 9c-77 36 -175 79 -175 191c0 98 64 171 171 177c6 0 10 4 10 10v27c0 7 3 10 10 10h52c7 0 10 -3 10 -10v-29c0 -6 2 -9 8 -10c63 -6 101 -34 128 -72c14 -20 24 -38 24 -44c0 -3 -2 -6 -6 -8l-71 -35c-7 -4 -17 -9 -21 -9c-3 0 -6 2 -8 6
c-8 17 -16 30 -25 39c-7 7 -17 13 -21 13c-5 0 -8 -4 -8 -11v-141c0 -4 3 -7 5 -8c75 -36 165 -84 165 -201zM226 413v110c0 7 -4 11 -9 11c-6 0 -19 -6 -29 -13c-18 -13 -29 -34 -29 -58c0 -19 10 -32 27 -44c10 -7 25 -17 32 -17c5 0 8 4 8 11zM354 167
c0 21 -10 37 -25 50c-9 8 -18 13 -23 13s-8 -4 -8 -11v-108c0 -7 3 -11 8 -11s17 8 25 15c14 13 23 31 23 52z" />
    <glyph glyph-name="percent" unicode="%" horiz-adv-x="547" 
d="M247 439c0 -56 -39 -95 -101 -95c-61 0 -100 39 -100 95v93c0 56 39 98 100 98c62 0 101 -39 101 -95v-96zM441 622c0 -5 -4 -12 -13 -34l-249 -582c-2 -4 -5 -6 -9 -6h-53c-7 0 -10 3 -10 8s4 14 13 34l249 582c2 4 5 6 9 6h53c7 0 10 -3 10 -8zM501 95
c0 -56 -39 -95 -100 -95s-100 39 -100 95v96c0 56 39 95 100 95s100 -39 100 -95v-96zM166 439v96c0 10 -10 19 -20 19c-11 0 -19 -8 -19 -19v-96c0 -11 8 -19 19 -19c10 0 20 9 20 19zM420 95v96c0 11 -8 19 -19 19s-19 -8 -19 -19v-96c0 -11 8 -19 19 -19s19 8 19 19z" />
    <glyph glyph-name="ampersand" unicode="&#x26;" horiz-adv-x="612" 
d="M597 0c0 -7 -4 -10 -10 -10c-49 0 -110 18 -154 54c-4 4 -10 9 -14 9s-6 -4 -10 -8c-29 -32 -73 -55 -141 -55h-29c-114 0 -186 71 -186 185v24c0 40 22 82 50 109c4 4 9 8 9 12c0 3 -5 8 -9 12c-30 30 -50 69 -50 119c0 114 71 189 186 189c114 0 186 -73 186 -187v-19
c0 -53 -29 -101 -75 -123c-4 -2 -6 -4 -6 -8c0 -3 3 -5 7 -8c8 -6 15 -13 23 -22c3 -3 5 -4 8 -4c4 0 7 2 9 7c27 60 86 96 165 96h31c7 0 10 -3 10 -10v-94c0 -7 -3 -10 -10 -10h-39c-40 0 -59 -31 -72 -69l-4 -12c-2 -5 -1 -9 3 -13c31 -29 71 -53 113 -58
c6 -1 9 -4 9 -10v-96zM311 444v19c0 39 -33 72 -72 72c-41 0 -72 -33 -72 -72c0 -38 28 -62 61 -85c7 -4 11 -8 16 -8s12 3 17 5c31 12 50 39 50 69zM337 140c0 5 -5 10 -10 16c-18 22 -40 45 -65 65c-13 11 -28 19 -43 29c-6 4 -11 7 -14 7c-5 0 -9 -3 -14 -8
c-14 -13 -24 -33 -24 -53v-29c0 -43 33 -72 72 -72h29c24 0 45 11 59 29c5 6 10 13 10 16z" />
    <glyph glyph-name="quoteright" unicode="&#x2019;" horiz-adv-x="189" 
d="M155 551c0 -77 -23 -120 -62 -149c-15 -11 -34 -21 -38 -21c-3 0 -6 2 -8 6l-22 43c-3 5 -6 10 -6 14c0 3 2 6 6 8c26 11 39 38 39 57c0 6 -4 10 -10 10h-8c-7 0 -10 3 -10 10v91c0 7 3 10 10 10h99c7 0 10 -3 10 -10v-69z" />
    <glyph glyph-name="parenleft" unicode="(" horiz-adv-x="394" 
d="M312 -162c0 -7 -4 -10 -10 -10c-15 0 -50 5 -77 15c-75 27 -113 89 -113 171v525c0 80 36 140 105 168c32 13 66 18 85 18c6 0 10 -3 10 -10v-86c0 -6 -3 -10 -9 -10c-52 -4 -77 -34 -77 -70v-544c0 -36 25 -67 77 -71c6 0 9 -4 9 -10v-86z" />
    <glyph glyph-name="parenright" unicode=")" horiz-adv-x="394" 
d="M282 14c0 -82 -38 -144 -113 -171c-27 -10 -62 -15 -77 -15c-6 0 -10 3 -10 10v86c0 6 3 10 9 10c52 4 77 35 77 71v544c0 36 -25 66 -77 70c-6 0 -9 4 -9 10v86c0 7 4 10 10 10c19 0 53 -5 85 -18c69 -28 105 -88 105 -168v-525z" />
    <glyph glyph-name="asterisk" unicode="*" horiz-adv-x="390" 
d="M374 463c0 -2 -1 -4 -2 -6l-40 -68c-2 -4 -5 -6 -8 -6c-2 0 -5 1 -7 3l-68 49c-3 2 -6 3 -9 3c-4 0 -7 -2 -7 -8c0 -5 1 -13 2 -18l7 -49c1 -8 3 -19 3 -23c0 -6 -4 -9 -10 -9h-79c-6 0 -10 3 -10 9c0 5 2 18 3 25l6 46c1 5 2 13 2 17c0 6 -3 10 -7 10c-3 0 -6 -2 -9 -4
l-64 -50c-3 -2 -4 -3 -7 -3s-6 2 -8 6l-40 70c-1 2 -2 4 -2 6c0 3 2 6 7 8l77 31c5 2 7 6 7 9s-2 7 -7 9l-76 33c-5 2 -7 5 -7 8c0 2 1 4 2 6l40 69c2 4 5 6 8 6c2 0 4 -1 7 -3l63 -52c3 -2 6 -3 8 -3c5 0 8 5 8 11c0 4 -2 14 -3 24l-6 43c-1 5 -2 13 -2 17c0 6 4 9 10 9h79
c6 0 10 -3 10 -9c0 -5 -1 -12 -2 -17l-6 -44c-1 -8 -3 -19 -3 -24c0 -6 3 -11 8 -11c2 0 5 1 8 3l67 53c3 2 5 3 7 3c3 0 6 -2 8 -6l39 -68c1 -2 2 -4 2 -6c0 -3 -2 -6 -7 -8l-79 -34c-5 -2 -7 -6 -7 -9s2 -7 7 -9l80 -31c5 -2 7 -5 7 -8z" />
    <glyph glyph-name="plus" unicode="+" 
d="M468 210c0 -7 -3 -10 -10 -10h-152c-7 0 -10 -3 -10 -10v-151c0 -7 -3 -10 -10 -10h-66c-7 0 -10 3 -10 10v151c0 7 -3 10 -10 10h-151c-7 0 -10 3 -10 10v66c0 7 3 10 10 10h151c7 0 10 3 10 10v152c0 7 3 10 10 10h66c7 0 10 -3 10 -10v-152c0 -7 3 -10 10 -10h152
c7 0 10 -3 10 -10v-66z" />
    <glyph glyph-name="comma" unicode="," horiz-adv-x="230" 
d="M182 49c0 -80 -28 -125 -70 -155c-19 -14 -36 -23 -41 -23c-3 0 -6 2 -8 6l-23 45c-3 6 -6 10 -6 14s2 6 6 8c27 15 39 45 39 62c0 6 -4 9 -10 9h-11c-7 0 -10 3 -10 10v97c0 7 3 10 10 10h114c7 0 10 -3 10 -10v-73z" />
    <glyph glyph-name="hyphen" unicode="-" horiz-adv-x="278" 
d="M239 182c0 -7 -3 -10 -10 -10h-180c-7 0 -10 3 -10 10v94c0 7 3 10 10 10h180c7 0 10 -3 10 -10v-94z" />
    <glyph glyph-name="period" unicode="." horiz-adv-x="230" 
d="M182 57c0 -36 -31 -67 -67 -67s-67 31 -67 67s31 67 67 67s67 -31 67 -67z" />
    <glyph glyph-name="slash" unicode="/" horiz-adv-x="330" 
d="M337 622c0 -4 -2 -10 -5 -16l-257 -600c-2 -4 -5 -6 -9 -6h-63c-7 0 -10 3 -10 8c0 4 3 10 6 18l256 598c2 4 5 6 9 6h63c7 0 10 -3 10 -8z" />
    <glyph glyph-name="zero" unicode="0" 
d="M454 167c0 -104 -73 -177 -186 -177h-29c-114 0 -186 73 -186 177v296c0 104 72 177 186 177h29c113 0 186 -73 186 -177v-296zM339 167v296c0 40 -31 72 -71 72h-29c-39 0 -72 -33 -72 -72v-296c0 -39 33 -72 72 -72h29c40 0 71 32 71 72z" />
    <glyph glyph-name="one" unicode="1" 
d="M442 10c0 -7 -3 -10 -10 -10h-323c-7 0 -10 3 -10 10v85c0 7 3 10 10 10h94c7 0 10 3 10 10v293c0 7 -3 11 -8 11c-4 0 -6 -1 -9 -4l-30 -31c-2 -3 -5 -4 -7 -4c-3 0 -4 2 -7 4l-62 61c-3 2 -4 5 -4 7c0 3 2 4 4 7l164 165c4 4 7 6 12 6h52c7 0 10 -3 10 -10v-505
c0 -7 3 -10 10 -10h94c7 0 10 -3 10 -10v-85z" />
    <glyph glyph-name="two" unicode="2" 
d="M447 463c0 -117 -83 -166 -160 -213c-54 -33 -105 -63 -105 -125v-10c0 -7 3 -10 10 -10h238c7 0 10 -3 10 -10v-85c0 -7 -3 -10 -10 -10h-353c-7 0 -10 3 -10 10v115c0 117 76 176 149 221c58 35 117 61 117 117c0 39 -33 72 -72 72h-36c-27 0 -53 -16 -71 -59
c-2 -5 -5 -7 -8 -7c-4 0 -8 3 -12 5l-80 41c-4 2 -6 4 -6 7c0 6 10 22 19 37c30 47 75 81 158 81h36c114 0 186 -73 186 -177z" />
    <glyph glyph-name="three" unicode="3" 
d="M440 175c0 -114 -73 -185 -187 -185h-28c-83 0 -128 34 -158 81c-9 15 -19 31 -19 37c0 3 2 5 6 7l80 41c4 2 8 5 12 5c3 0 6 -2 8 -7c18 -43 44 -59 71 -59h28c39 0 72 33 72 72v34c0 40 -32 71 -72 71h-90c-7 0 -10 3 -10 10v85c0 7 3 10 10 10h90c39 0 72 33 72 72v14
c0 39 -33 72 -72 72h-28c-27 0 -53 -16 -71 -59c-2 -5 -5 -7 -8 -7c-4 0 -8 3 -12 5l-80 41c-4 2 -6 4 -6 7c0 6 10 22 19 37c30 47 75 81 158 81h28c114 0 187 -73 187 -187v-14c0 -37 -25 -80 -54 -108c-3 -2 -4 -4 -4 -7c0 -2 1 -5 4 -7c29 -28 54 -76 54 -113v-29z" />
    <glyph glyph-name="four" unicode="4" 
d="M482 148c0 -7 -3 -10 -10 -10h-65c-7 0 -10 -3 -10 -10v-118c0 -7 -3 -10 -10 -10h-95c-7 0 -10 3 -10 10v118c0 7 -3 10 -10 10h-236c-7 0 -10 3 -10 10v85l261 393c2 2 5 4 8 4h92c7 0 10 -3 10 -10v-367c0 -7 3 -10 10 -10h65c7 0 10 -3 10 -10v-85zM282 253v155
c0 7 -4 12 -9 12c-3 0 -6 -2 -9 -6l-103 -155c-2 -3 -3 -6 -3 -8c0 -5 4 -8 11 -8h103c7 0 10 3 10 10z" />
    <glyph glyph-name="five" unicode="5" 
d="M455 175c0 -114 -73 -185 -186 -185h-28c-83 0 -128 34 -158 81c-9 15 -19 31 -19 37c0 3 2 5 6 7l80 41c4 2 8 5 12 5c3 0 6 -2 8 -7c18 -43 44 -59 71 -59h28c40 0 71 32 71 72v34c0 40 -31 71 -71 71h-167c-7 0 -10 3 -10 10v338c0 7 3 10 10 10h333c7 0 10 -3 10 -10
v-85c0 -7 -3 -10 -10 -10h-218c-7 0 -10 -3 -10 -10v-128c0 -7 3 -10 10 -10h52c113 0 186 -70 186 -184v-18z" />
    <glyph glyph-name="six" unicode="6" 
d="M456 167c0 -104 -73 -177 -187 -177h-30c-113 0 -186 73 -186 177v296c0 104 73 177 186 177h31c83 0 128 -34 158 -81c9 -15 19 -31 19 -37c0 -3 -2 -5 -6 -7l-80 -41c-4 -2 -8 -5 -12 -5c-3 0 -6 2 -8 7c-18 43 -44 59 -71 59h-31c-40 0 -71 -32 -71 -72v-91
c0 -7 3 -11 8 -11c3 0 4 1 7 2c21 11 46 19 66 19h30c98 0 177 -73 177 -177v-38zM341 167v38c0 39 -33 72 -72 72h-30c-40 0 -71 -32 -71 -72v-38c0 -40 31 -72 71 -72h30c39 0 72 33 72 72z" />
    <glyph glyph-name="seven" unicode="7" 
d="M449 505c0 -128 -79 -181 -149 -228c-47 -32 -90 -59 -90 -110v-157c0 -7 -3 -10 -10 -10h-94c-7 0 -10 3 -10 10v157c0 109 66 158 129 202c54 37 110 68 110 136v10c0 7 -3 10 -10 10h-238c-7 0 -10 3 -10 10v85c0 7 3 10 10 10h352c7 0 10 -3 10 -10v-115z" />
    <glyph glyph-name="eight" unicode="8" 
d="M454 175c0 -114 -73 -185 -186 -185h-29c-114 0 -186 71 -186 185v24c0 37 25 85 53 113c3 3 4 5 4 7s-1 5 -4 7c-28 27 -53 71 -53 108v19c0 114 72 187 186 187h29c113 0 186 -73 186 -187v-19c0 -37 -25 -81 -53 -108c-3 -2 -4 -4 -4 -7c0 -2 1 -4 4 -7
c28 -28 53 -76 53 -113v-24zM339 444v19c0 40 -31 72 -71 72h-29c-39 0 -72 -33 -72 -72v-19c0 -39 33 -72 72 -72h29c40 0 71 32 71 72zM339 167v29c0 40 -31 71 -71 71h-29c-40 0 -72 -31 -72 -71v-29c0 -39 33 -72 72 -72h29c40 0 71 32 71 72z" />
    <glyph glyph-name="nine" unicode="9" 
d="M456 167c0 -104 -73 -177 -187 -177h-28c-83 0 -128 34 -158 81c-9 15 -19 31 -19 37c0 3 2 5 6 7l80 41c4 2 8 5 12 5c3 0 6 -2 8 -7c18 -43 44 -59 71 -59h28c39 0 72 33 72 72v57c0 7 -3 11 -8 11c-3 0 -4 -1 -7 -2c-21 -11 -46 -18 -66 -18h-30
c-98 0 -177 72 -177 176v72c0 104 73 177 186 177h30c114 0 187 -73 187 -177v-296zM341 391v72c0 39 -33 72 -72 72h-30c-40 0 -71 -32 -71 -72v-72c0 -40 31 -71 71 -71h30c40 0 72 31 72 71z" />
    <glyph glyph-name="colon" unicode=":" horiz-adv-x="230" 
d="M182 315c0 -36 -31 -67 -67 -67s-67 31 -67 67s31 67 67 67s67 -31 67 -67zM182 57c0 -36 -31 -67 -67 -67s-67 31 -67 67s31 67 67 67s67 -31 67 -67z" />
    <glyph glyph-name="semicolon" unicode=";" horiz-adv-x="230" 
d="M182 315c0 -36 -31 -67 -67 -67s-67 31 -67 67s31 67 67 67s67 -31 67 -67zM182 49c0 -80 -28 -125 -70 -155c-19 -14 -36 -23 -41 -23c-3 0 -6 2 -8 6l-23 45c-3 6 -6 10 -6 14s2 6 6 8c27 15 39 45 39 62c0 6 -4 9 -10 9h-11c-7 0 -10 3 -10 10v97c0 7 3 10 10 10h114
c7 0 10 -3 10 -10v-73z" />
    <glyph glyph-name="less" unicode="&#x3c;" 
d="M429 406c0 -3 -2 -6 -6 -8l-248 -144c-4 -3 -7 -6 -7 -9s3 -6 7 -9l247 -142c4 -2 6 -5 6 -8c0 -4 -3 -7 -6 -13l-29 -52c-2 -4 -5 -6 -8 -6s-11 5 -20 10l-301 176c-3 2 -5 5 -5 9v69c0 5 2 7 5 9l306 179c8 5 11 7 15 7s6 -2 8 -6l30 -49c3 -5 6 -9 6 -13z" />
    <glyph glyph-name="equal" unicode="=" 
d="M468 296c0 -7 -3 -10 -10 -10h-409c-7 0 -10 3 -10 10v66c0 7 3 10 10 10h409c7 0 10 -3 10 -10v-66zM468 125c0 -7 -3 -10 -10 -10h-409c-7 0 -10 3 -10 10v65c0 7 3 10 10 10h409c7 0 10 -3 10 -10v-65z" />
    <glyph glyph-name="greater" unicode="&#x3e;" 
d="M448 210c0 -4 -2 -7 -5 -9l-301 -176c-9 -5 -17 -10 -20 -10s-6 2 -8 6l-29 52c-3 6 -6 9 -6 13c0 3 2 6 6 8l247 142c4 3 7 6 7 9s-3 6 -7 9l-248 144c-4 2 -6 5 -6 8c0 4 3 8 6 13l30 49c2 4 4 6 8 6s7 -2 15 -7l306 -179c3 -2 5 -4 5 -9v-69z" />
    <glyph glyph-name="question" unicode="?" horiz-adv-x="475" 
d="M426 463c0 -117 -70 -145 -126 -171c-31 -15 -58 -28 -58 -66c0 -24 6 -39 6 -46c0 -6 -3 -8 -10 -8h-95c-6 0 -9 3 -10 8c-3 19 -6 41 -6 60c0 93 65 119 120 147c34 17 64 34 64 76c0 40 -31 72 -71 72h-36c-27 0 -53 -16 -71 -59c-2 -5 -5 -7 -8 -7c-4 0 -8 3 -12 5
l-80 41c-4 2 -6 4 -6 7c0 6 10 22 19 37c30 47 75 81 158 81h36c113 0 186 -73 186 -177zM268 57c0 -36 -31 -67 -67 -67s-67 31 -67 67s31 67 67 67s67 -31 67 -67z" />
    <glyph glyph-name="at" unicode="@" horiz-adv-x="707" 
d="M626 248c0 -56 -39 -95 -101 -95h-12c-27 0 -52 10 -69 24c-3 2 -6 5 -10 5s-7 -3 -11 -6c-21 -15 -48 -23 -70 -23c-81 0 -132 50 -132 125v79c0 74 52 124 132 124c12 0 27 -3 40 -8c4 -2 11 -5 15 -5c5 0 7 3 7 7s3 6 8 6h52c7 0 10 -3 10 -10v-218
c0 -17 12 -29 29 -29h11c17 0 29 14 29 29v200c0 62 -45 105 -114 105h-172c-70 0 -115 -43 -115 -105v-276c0 -62 45 -105 115 -105h262c7 0 10 -3 10 -10v-52c0 -7 -3 -10 -10 -10h-262c-114 0 -186 73 -186 177v276c0 104 72 177 186 177h172c113 0 186 -73 186 -177
v-205zM415 285v64c0 33 -29 60 -62 60c-34 0 -60 -26 -60 -60v-64c0 -34 26 -61 60 -61c33 0 62 28 62 61z" />
    <glyph glyph-name="A" unicode="A" horiz-adv-x="450" 
d="M458 8c0 -5 -4 -8 -11 -8h-101c-5 0 -9 2 -10 7l-30 105c-1 5 -5 6 -10 6h-143c-5 0 -9 -1 -10 -6l-30 -105c-1 -5 -5 -7 -10 -7h-100c-7 0 -11 3 -11 8c0 4 3 10 5 18l182 597c1 5 5 7 10 7h72c5 0 9 -2 10 -7l182 -597c2 -6 5 -14 5 -18zM272 232c0 4 -3 13 -5 19
l-29 117c-2 7 -9 47 -11 55h-3c-2 -8 -10 -47 -12 -55l-30 -116c-2 -7 -5 -16 -5 -20c0 -5 4 -9 11 -9h73c7 0 11 4 11 9z" />
    <glyph glyph-name="B" unicode="B" horiz-adv-x="536" 
d="M488 184c0 -113 -72 -184 -186 -184h-225c-7 0 -10 3 -10 10v610c0 7 3 10 10 10h225c114 0 186 -73 186 -186v-10c0 -37 -24 -80 -53 -108c-3 -2 -4 -5 -4 -7s1 -5 4 -7c29 -28 53 -76 53 -113v-15zM374 444v9c0 39 -33 72 -72 72h-110c-7 0 -10 -3 -10 -10v-133
c0 -7 3 -10 10 -10h110c39 0 72 33 72 72zM374 177v19c0 40 -32 71 -72 71h-110c-7 0 -10 -3 -10 -10v-142c0 -7 3 -10 10 -10h110c39 0 72 31 72 72z" />
    <glyph glyph-name="C" unicode="C" horiz-adv-x="484" 
d="M465 108c0 -6 -10 -22 -19 -37c-30 -47 -75 -81 -158 -81h-49c-114 0 -186 73 -186 177v296c0 104 72 177 186 177h49c83 0 128 -34 158 -81c9 -15 19 -31 19 -37c0 -3 -2 -5 -6 -7l-80 -41c-4 -2 -8 -5 -12 -5c-3 0 -6 2 -8 7c-18 43 -44 59 -71 59h-49
c-39 0 -72 -33 -72 -72v-296c0 -39 33 -72 72 -72h49c27 0 53 16 71 59c2 5 5 7 8 7c4 0 8 -3 12 -5l80 -41c4 -2 6 -4 6 -7z" />
    <glyph glyph-name="D" unicode="D" horiz-adv-x="541" 
d="M488 186c0 -114 -72 -186 -186 -186h-225c-7 0 -10 3 -10 10v610c0 7 3 10 10 10h225c114 0 186 -73 186 -186v-258zM374 177v276c0 39 -33 72 -72 72h-110c-7 0 -10 -3 -10 -10v-400c0 -7 3 -10 10 -10h110c39 0 72 31 72 72z" />
    <glyph glyph-name="E" unicode="E" horiz-adv-x="478" 
d="M440 10c0 -7 -3 -10 -10 -10h-353c-7 0 -10 3 -10 10v610c0 7 3 10 10 10h353c7 0 10 -3 10 -10v-85c0 -7 -3 -10 -10 -10h-238c-7 0 -10 -3 -10 -10v-133c0 -7 3 -10 10 -10h195c7 0 10 -3 10 -10v-85c0 -7 -3 -10 -10 -10h-195c-7 0 -10 -3 -10 -10v-142
c0 -7 3 -10 10 -10h238c7 0 10 -3 10 -10v-85z" />
    <glyph glyph-name="F" unicode="F" horiz-adv-x="454" 
d="M440 535c0 -7 -3 -10 -10 -10h-238c-7 0 -10 -3 -10 -10v-133c0 -7 3 -10 10 -10h195c7 0 10 -3 10 -10v-85c0 -7 -3 -10 -10 -10h-195c-7 0 -10 -3 -10 -10v-247c0 -7 -3 -10 -10 -10h-95c-7 0 -10 3 -10 10v610c0 7 3 10 10 10h353c7 0 10 -3 10 -10v-85z" />
    <glyph glyph-name="G" unicode="G" horiz-adv-x="527" 
d="M482 522c0 -3 -2 -5 -6 -7l-80 -41c-4 -2 -8 -5 -12 -5c-3 0 -6 2 -8 7c-18 43 -44 59 -71 59h-66c-39 0 -72 -33 -72 -72v-296c0 -39 33 -72 72 -72h49c40 0 71 32 71 72v47c0 7 -3 10 -10 10h-94c-7 0 -10 3 -10 10v85c0 7 3 10 10 10h209c7 0 10 -3 10 -10v-152
c0 -104 -73 -177 -186 -177h-49c-114 0 -186 73 -186 177v296c0 104 72 177 186 177h66c83 0 128 -34 158 -81c9 -15 19 -31 19 -37z" />
    <glyph glyph-name="H" unicode="H" horiz-adv-x="570" 
d="M502 10c0 -7 -3 -10 -10 -10h-94c-7 0 -10 3 -10 10v247c0 7 -3 10 -10 10h-186c-7 0 -10 -3 -10 -10v-247c0 -7 -3 -10 -10 -10h-95c-7 0 -10 3 -10 10v610c0 7 3 10 10 10h95c7 0 10 -3 10 -10v-238c0 -7 3 -10 10 -10h186c7 0 10 3 10 10v238c0 7 3 10 10 10h94
c7 0 10 -3 10 -10v-610z" />
    <glyph glyph-name="I" unicode="I" horiz-adv-x="249" 
d="M182 10c0 -7 -3 -10 -10 -10h-95c-7 0 -10 3 -10 10v610c0 7 3 10 10 10h95c7 0 10 -3 10 -10v-610z" />
    <glyph glyph-name="J" unicode="J" horiz-adv-x="429" 
d="M368 177c0 -104 -84 -187 -186 -187c-57 0 -115 33 -154 79c-15 18 -26 35 -26 41c0 3 2 6 7 8l76 36c9 4 15 7 18 7c4 0 6 -2 8 -6c16 -43 43 -60 71 -60c40 0 71 32 71 72v453c0 7 3 10 10 10h95c7 0 10 -3 10 -10v-443z" />
    <glyph glyph-name="K" unicode="K" horiz-adv-x="521" 
d="M532 8c0 -5 -4 -8 -11 -8h-117c-3 0 -6 2 -8 5l-157 251c-3 4 -6 7 -9 7s-6 -2 -8 -5l-32 -43c-5 -7 -8 -14 -8 -24v-181c0 -7 -3 -10 -10 -10h-95c-7 0 -10 3 -10 10v610c0 7 3 10 10 10h95c7 0 10 -3 10 -10v-222c0 -7 4 -12 9 -12c3 0 6 2 9 6l178 234c2 2 5 4 8 4
h115c7 0 11 -3 11 -8c0 -2 -1 -5 -3 -8l-188 -233c-4 -5 -7 -9 -7 -13c0 -3 2 -6 6 -13l205 -332c4 -7 7 -11 7 -15z" />
    <glyph glyph-name="L" unicode="L" horiz-adv-x="454" 
d="M440 10c0 -7 -3 -10 -10 -10h-353c-7 0 -10 3 -10 10v610c0 7 3 10 10 10h95c7 0 10 -3 10 -10v-505c0 -7 3 -10 10 -10h238c7 0 10 -3 10 -10v-85z" />
    <glyph glyph-name="M" unicode="M" horiz-adv-x="637" 
d="M569 10c0 -7 -3 -10 -10 -10h-94c-7 0 -10 3 -10 10v105c0 79 9 218 11 242l-4 1c-3 -8 -14 -54 -26 -80l-83 -186c-2 -4 -5 -6 -9 -6h-51c-4 0 -7 2 -9 6l-83 186c-12 26 -23 72 -26 80l-4 -1c2 -24 11 -163 11 -242v-105c0 -7 -3 -10 -10 -10h-95c-7 0 -10 3 -10 10
v610c0 7 3 10 10 10h84c4 0 7 -2 9 -6l133 -318c3 -7 11 -37 13 -45h3c2 8 11 38 14 45l133 318c2 4 5 6 9 6h84c7 0 10 -3 10 -10v-610z" />
    <glyph glyph-name="N" unicode="N" horiz-adv-x="550" 
d="M482 10c0 -7 -3 -10 -10 -10h-83c-4 0 -7 2 -9 5l-179 326c-4 7 -18 43 -21 51l-4 -1c2 -24 6 -168 6 -247v-124c0 -7 -3 -10 -10 -10h-95c-7 0 -10 3 -10 10v610c0 7 3 10 10 10h84c4 0 7 -2 9 -5l179 -328c4 -7 18 -43 21 -51l4 1c-2 24 -6 168 -6 247v126
c0 7 3 10 10 10h94c7 0 10 -3 10 -10v-610z" />
    <glyph glyph-name="O" unicode="O" horiz-adv-x="527" 
d="M474 167c0 -104 -73 -177 -186 -177h-49c-114 0 -186 73 -186 177v296c0 104 72 177 186 177h49c113 0 186 -73 186 -177v-296zM359 167v296c0 40 -31 72 -71 72h-49c-39 0 -72 -33 -72 -72v-296c0 -39 33 -72 72 -72h49c40 0 71 32 71 72z" />
    <glyph glyph-name="P" unicode="P" horiz-adv-x="483" 
d="M468 444c0 -99 -72 -177 -186 -177h-90c-7 0 -10 -3 -10 -10v-247c0 -7 -3 -10 -10 -10h-95c-7 0 -10 3 -10 10v610c0 7 3 10 10 10h205c114 0 186 -74 186 -186zM354 444v9c0 39 -33 72 -72 72h-90c-7 0 -10 -3 -10 -10v-133c0 -7 3 -10 10 -10h90c39 0 72 33 72 72z
" />
    <glyph glyph-name="Q" unicode="Q" horiz-adv-x="527" 
d="M474 167c0 -92 -58 -160 -151 -174c-5 -1 -7 -4 -7 -10v-59c0 -7 -3 -10 -10 -10h-85c-7 0 -10 3 -10 10v59c0 6 -4 9 -10 10c-93 14 -148 82 -148 174v296c0 104 72 177 186 177h49c113 0 186 -73 186 -177v-296zM359 167v296c0 40 -31 72 -71 72h-49
c-39 0 -72 -33 -72 -72v-296c0 -17 6 -34 17 -46c7 -8 17 -15 22 -15c4 0 7 3 9 8l13 40c2 5 5 7 10 7h51c5 0 8 -2 10 -7l13 -42c2 -6 5 -8 8 -8c6 0 15 9 20 14c11 13 19 30 19 49z" />
    <glyph glyph-name="R" unicode="R" horiz-adv-x="527" 
d="M499 8c0 -5 -3 -8 -10 -8h-103c-4 0 -8 3 -9 7l-88 254c-1 4 -4 6 -8 6h-89c-7 0 -10 -3 -10 -10v-247c0 -7 -3 -10 -10 -10h-95c-7 0 -10 3 -10 10v610c0 7 3 10 10 10h225c114 0 186 -73 186 -186v-10c0 -51 -43 -110 -81 -136c-3 -2 -4 -4 -4 -8c0 -3 2 -8 5 -16
l86 -250c2 -7 5 -13 5 -16zM374 444v9c0 39 -33 72 -72 72h-110c-7 0 -10 -3 -10 -10v-133c0 -7 3 -10 10 -10h110c39 0 72 33 72 72z" />
    <glyph glyph-name="S" unicode="S" horiz-adv-x="472" 
d="M437 167c0 -104 -72 -177 -186 -177h-40c-83 0 -128 34 -158 81c-9 15 -19 31 -19 37c0 3 2 5 6 7l80 41c4 2 8 5 12 5c3 0 6 -2 8 -7c18 -43 44 -59 71 -59h40c39 0 72 33 72 72c0 54 -53 74 -107 99c-79 38 -166 79 -166 197c0 104 72 177 186 177h16
c83 0 128 -34 158 -81c9 -15 19 -31 19 -37c0 -3 -2 -5 -6 -7l-80 -41c-4 -2 -8 -5 -12 -5c-3 0 -6 2 -8 7c-18 43 -44 59 -71 59h-16c-39 0 -72 -33 -72 -72c0 -51 58 -66 116 -93c76 -35 157 -82 157 -203z" />
    <glyph glyph-name="T" unicode="T" horiz-adv-x="402" 
d="M387 535c0 -7 -3 -10 -10 -10h-109c-7 0 -10 -3 -10 -10v-505c0 -7 -3 -10 -10 -10h-94c-7 0 -10 3 -10 10v505c0 7 -3 10 -10 10h-109c-7 0 -10 3 -10 10v85c0 7 3 10 10 10h352c7 0 10 -3 10 -10v-85z" />
    <glyph glyph-name="U" unicode="U" horiz-adv-x="527" 
d="M474 167c0 -104 -73 -177 -186 -177h-49c-114 0 -186 73 -186 177v453c0 7 3 10 10 10h94c7 0 10 -3 10 -10v-453c0 -39 33 -72 72 -72h49c40 0 71 32 71 72v453c0 7 3 10 10 10h95c7 0 10 -3 10 -10v-453z" />
    <glyph glyph-name="V" unicode="V" horiz-adv-x="450" 
d="M458 622c0 -4 -3 -11 -4 -15l-183 -600c-1 -5 -5 -7 -10 -7h-72c-5 0 -9 2 -10 7l-182 596c-2 7 -5 14 -5 19s4 8 11 8h100c5 0 9 -2 10 -7l99 -360c2 -8 8 -38 10 -46h5c2 8 8 37 10 44l99 362c1 5 5 7 10 7h101c7 0 11 -3 11 -8z" />
    <glyph glyph-name="W" unicode="W" horiz-adv-x="657" 
d="M654 622c0 -4 -3 -17 -5 -27l-127 -587c-1 -5 -5 -8 -10 -8h-73c-5 0 -9 2 -10 7l-87 302c-2 7 -10 47 -12 55h-3c-2 -8 -10 -47 -12 -55l-87 -302c-1 -5 -5 -7 -10 -7h-73c-5 0 -9 3 -10 8l-127 587c-2 11 -5 22 -5 27c0 6 3 8 10 8h102c5 0 9 -3 10 -8l58 -309
c1 -7 8 -54 10 -62h5c2 8 11 54 13 62l82 312c1 5 5 7 10 7h50c5 0 9 -2 10 -7l82 -312c2 -8 11 -54 13 -62h5c2 8 8 53 10 62l59 309c1 5 5 8 10 8h102c7 0 10 -2 10 -8z" />
    <glyph glyph-name="X" unicode="X" horiz-adv-x="458" 
d="M453 8c0 -5 -4 -8 -11 -8h-109c-4 0 -7 2 -9 6l-85 181c-2 5 -6 8 -9 8s-7 -3 -9 -8l-88 -181c-2 -3 -5 -6 -9 -6h-107c-7 0 -11 3 -11 8c0 4 5 12 11 25l135 267c4 8 6 12 6 16s-2 7 -5 14l-139 273c-3 6 -8 14 -8 19s4 8 11 8h106c4 0 7 -3 9 -6l89 -184
c2 -5 6 -8 9 -8s7 3 9 8l86 184c2 4 5 6 9 6h108c7 0 11 -3 11 -8c0 -4 -4 -10 -8 -18l-137 -273c-4 -7 -5 -12 -5 -16s1 -8 5 -15l135 -270c5 -10 10 -18 10 -22z" />
    <glyph glyph-name="Y" unicode="Y" horiz-adv-x="450" 
d="M459 622c0 -4 -4 -10 -7 -16l-163 -305c-5 -10 -7 -16 -7 -28v-263c0 -7 -3 -10 -10 -10h-95c-7 0 -10 3 -10 10v264c0 10 -1 15 -7 27l-163 305c-4 7 -7 12 -7 16c0 5 4 8 11 8h111c4 0 7 -3 9 -6l95 -196c2 -5 6 -8 9 -8s7 3 9 8l95 196c2 3 5 6 9 6h110
c7 0 11 -3 11 -8z" />
    <glyph glyph-name="Z" unicode="Z" horiz-adv-x="456" 
d="M409 622c0 -4 -3 -9 -7 -19l-213 -473c-4 -8 -6 -13 -6 -17c0 -5 3 -8 10 -8h203c7 0 10 -3 10 -10v-85c0 -7 -3 -10 -10 -10h-375c-7 0 -10 3 -10 8c0 4 3 10 7 19l211 471c4 8 7 16 7 19c0 5 -3 8 -10 8h-182c-7 0 -10 3 -10 10v85c0 7 3 10 10 10h355c7 0 10 -3 10 -8
z" />
    <glyph glyph-name="bracketleft" unicode="[" horiz-adv-x="394" 
d="M312 -162c0 -7 -3 -10 -10 -10h-180c-7 0 -10 3 -10 10v877c0 7 3 10 10 10h180c7 0 10 -3 10 -10v-85c0 -7 -3 -10 -10 -10h-66c-7 0 -10 -3 -10 -10v-667c0 -7 3 -10 10 -10h66c7 0 10 -3 10 -10v-85z" />
    <glyph glyph-name="backslash" unicode="\" horiz-adv-x="330" 
d="M337 8c0 -5 -3 -8 -10 -8h-63c-4 0 -7 2 -9 6l-257 600c-3 6 -5 12 -5 16c0 5 3 8 10 8h63c4 0 7 -2 9 -6l256 -598c3 -8 6 -14 6 -18z" />
    <glyph glyph-name="bracketright" unicode="]" horiz-adv-x="394" 
d="M282 -162c0 -7 -3 -10 -10 -10h-180c-7 0 -10 3 -10 10v85c0 7 3 10 10 10h65c7 0 10 3 10 10v667c0 7 -3 10 -10 10h-65c-7 0 -10 3 -10 10v85c0 7 3 10 10 10h180c7 0 10 -3 10 -10v-877z" />
    <glyph glyph-name="asciicircum" unicode="^" 
d="M487 271h-105l-129 266h-3l-124 -266h-106l195 369h74z" />
    <glyph glyph-name="underscore" unicode="_" horiz-adv-x="230" 
d="M242 -205c0 -7 -3 -10 -10 -10h-228c-7 0 -10 3 -10 10v52c0 7 3 10 10 10h228c7 0 10 -3 10 -10v-52z" />
    <glyph glyph-name="quoteleft" unicode="&#x2018;" horiz-adv-x="189" 
d="M170 612c0 -3 -2 -6 -6 -8c-26 -11 -39 -38 -39 -57c0 -6 4 -10 10 -10h8c7 0 10 -3 10 -10v-91c0 -7 -3 -10 -10 -10h-99c-7 0 -10 3 -10 10v69c0 77 23 120 62 149c15 11 34 21 38 21c3 0 6 -2 8 -6l22 -43c3 -5 6 -10 6 -14z" />
    <glyph glyph-name="a" unicode="a" horiz-adv-x="465" 
d="M408 10c0 -7 -3 -10 -10 -10h-85c-7 0 -10 2 -10 8c0 8 -2 13 -7 13c-3 0 -6 -1 -9 -3c-22 -12 -42 -18 -61 -18h-38c-79 0 -141 54 -141 134v5c0 82 62 134 141 134h96c7 0 10 4 10 10v12c0 39 -32 68 -73 68c-24 0 -49 -15 -73 -57c-2 -4 -5 -6 -8 -6c-4 0 -8 3 -12 5
l-76 40c-4 2 -6 4 -6 7c0 5 11 25 21 40c32 48 77 76 154 76c114 0 187 -72 187 -176v-282zM294 161v16h-106c-15 0 -27 -13 -27 -28v-15c0 -16 11 -29 27 -29h38c32 0 63 27 68 56z" />
    <glyph glyph-name="b" unicode="b" horiz-adv-x="473" 
d="M430 177c0 -104 -73 -177 -186 -177c-20 0 -45 7 -66 18c-3 1 -5 2 -8 2c-5 0 -7 -4 -7 -11c0 -5 -3 -9 -10 -9h-85c-7 0 -10 3 -10 10v610c0 7 3 10 10 10h94c7 0 10 -3 10 -10v-171c0 -7 3 -11 8 -11c3 0 5 1 8 2c21 11 46 18 65 18c99 0 177 -72 177 -176v-105z
M315 177v105c0 40 -31 71 -71 71s-72 -31 -72 -71v-105c0 -41 33 -72 72 -72c40 0 71 31 71 72z" />
    <glyph glyph-name="c" unicode="c" horiz-adv-x="429" 
d="M407 108c0 -4 -7 -17 -15 -30c-31 -51 -75 -88 -162 -88c-114 0 -187 73 -187 177v124c0 104 73 177 187 177c87 0 131 -37 162 -88c8 -13 15 -26 15 -30c0 -3 -2 -6 -6 -8l-75 -37c-8 -4 -14 -7 -17 -7s-6 2 -8 6c-18 43 -45 59 -71 59c-41 0 -72 -33 -72 -72v-124
c0 -39 31 -72 72 -72c26 0 53 16 71 59c2 4 5 6 8 6s9 -3 17 -7l75 -37c4 -2 6 -5 6 -8z" />
    <glyph glyph-name="d" unicode="d" horiz-adv-x="473" 
d="M416 10c0 -7 -3 -10 -10 -10h-85c-7 0 -10 2 -10 9s-3 11 -8 11c-2 0 -4 -1 -7 -2c-21 -11 -47 -18 -66 -18c-114 0 -187 73 -187 177v105c0 104 79 176 177 176c20 0 45 -7 66 -18c3 -1 4 -2 7 -2c5 0 8 4 8 11v171c0 7 3 10 10 10h95c7 0 10 -3 10 -10v-610zM301 177
v105c0 40 -31 71 -71 71c-41 0 -72 -31 -72 -71v-105c0 -41 31 -72 72 -72c40 0 71 31 71 72z" />
    <glyph glyph-name="e" unicode="e" horiz-adv-x="459" 
d="M416 210c0 -7 -3 -10 -10 -10h-238c-7 0 -10 -3 -10 -10v-23c0 -39 31 -72 72 -72c26 0 53 16 71 59c2 4 5 6 8 6s9 -3 17 -7l75 -37c4 -2 6 -5 6 -8c0 -4 -7 -17 -15 -30c-31 -51 -75 -88 -162 -88c-114 0 -187 73 -187 177v124c0 83 73 177 187 177
c113 0 186 -94 186 -177v-81zM300 305c0 12 -20 58 -70 58c-49 0 -71 -45 -71 -58c0 -5 4 -9 11 -9h119c7 0 11 4 11 9z" />
    <glyph glyph-name="f" unicode="f" horiz-adv-x="292" 
d="M330 625c0 -4 -2 -10 -4 -15l-27 -74c-1 -4 -4 -8 -8 -8s-15 7 -33 7c-41 0 -71 -31 -71 -72v-38c0 -7 3 -10 10 -10h65c7 0 10 -3 10 -10v-85c0 -7 -3 -10 -10 -10h-65c-7 0 -10 -3 -10 -10v-290c0 -7 -3 -10 -10 -10h-95c-7 0 -10 3 -10 10v290c0 7 -3 10 -10 10h-23
c-7 0 -10 3 -10 10v85c0 7 3 10 10 10h23c7 0 10 3 10 10v28c0 102 84 187 186 187c21 0 47 -3 64 -7c5 -1 8 -4 8 -8z" />
    <glyph glyph-name="g" unicode="g" horiz-adv-x="459" 
d="M459 -101c0 -80 -63 -124 -144 -124h-128c-81 0 -144 44 -144 124v29c0 41 21 74 51 97c2 2 4 5 4 8c0 9 -19 19 -19 56c0 41 22 55 22 61c0 3 -1 5 -3 7c-33 32 -55 70 -55 121v14c0 104 82 166 187 166c16 0 36 -5 55 -13c7 -3 13 -7 18 -7s8 4 8 11c0 6 3 9 10 9h85
c7 0 10 -3 10 -10v-165c0 -104 -82 -173 -186 -173h-24c-10 0 -20 -11 -20 -28c0 -18 9 -30 22 -30h107c81 0 144 -43 144 -124v-29zM301 278v14c0 40 -31 69 -71 69c-41 0 -72 -29 -72 -69v-14c0 -39 31 -65 72 -65c40 0 71 25 71 65zM344 -101v29c0 17 -12 29 -29 29h-128
c-17 0 -29 -12 -29 -29v-29c0 -15 12 -29 29 -29h128c17 0 29 14 29 29z" />
    <glyph glyph-name="h" unicode="h" horiz-adv-x="483" 
d="M430 10c0 -7 -3 -10 -10 -10h-95c-7 0 -10 3 -10 10v272c0 40 -31 71 -71 71s-72 -31 -72 -71v-272c0 -7 -3 -10 -10 -10h-94c-7 0 -10 3 -10 10v610c0 7 3 10 10 10h94c7 0 10 -3 10 -10v-171c0 -7 3 -11 8 -11c3 0 4 1 7 2c21 11 47 18 66 18c100 0 177 -72 177 -176
v-272z" />
    <glyph glyph-name="i" unicode="i" horiz-adv-x="230" 
d="M182 573c0 -36 -31 -67 -67 -67s-67 31 -67 67s31 67 67 67s67 -31 67 -67zM172 10c0 -7 -3 -10 -10 -10h-94c-7 0 -10 3 -10 10v438c0 7 3 10 10 10h94c7 0 10 -3 10 -10v-438z" />
    <glyph glyph-name="j" unicode="j" horiz-adv-x="230" 
d="M182 573c0 -36 -31 -67 -67 -67s-67 31 -67 67s31 67 67 67s67 -31 67 -67zM172 -50c0 -74 -43 -137 -114 -167c-24 -10 -58 -18 -76 -18c-6 0 -10 3 -10 10v85c0 6 3 10 9 10c52 4 77 35 77 71v507c0 7 3 10 10 10h94c7 0 10 -3 10 -10v-498z" />
    <glyph glyph-name="k" unicode="k" horiz-adv-x="449" 
d="M459 8c0 -5 -4 -8 -11 -8h-117c-4 0 -7 2 -9 5l-115 189c-2 4 -5 6 -8 6c-2 0 -5 -1 -8 -4l-14 -14c-4 -4 -5 -7 -5 -11v-161c0 -7 -3 -10 -10 -10h-94c-7 0 -10 3 -10 10v610c0 7 3 10 10 10h94c7 0 10 -3 10 -10v-274c0 -7 4 -11 9 -11c3 0 5 1 8 4l102 112
c4 4 7 7 14 7h116c7 0 11 -3 11 -8c0 -3 -1 -6 -4 -9l-134 -137c-4 -5 -6 -8 -6 -12s2 -7 6 -14l159 -257c3 -5 6 -9 6 -13z" />
    <glyph glyph-name="l" unicode="l" horiz-adv-x="230" 
d="M172 10c0 -7 -3 -10 -10 -10h-94c-7 0 -10 3 -10 10v610c0 7 3 10 10 10h94c7 0 10 -3 10 -10v-610z" />
    <glyph glyph-name="m" unicode="m" horiz-adv-x="707" 
d="M650 10c0 -7 -3 -10 -10 -10h-95c-7 0 -10 3 -10 10v272c0 39 -31 71 -62 71c-29 0 -62 -32 -62 -71v-272c0 -7 -3 -10 -10 -10h-95c-7 0 -10 3 -10 10v272c0 39 -31 71 -62 71c-28 0 -62 -32 -62 -71v-272c0 -7 -3 -10 -10 -10h-94c-7 0 -10 3 -10 10v438
c0 7 3 10 10 10h85c7 0 10 -3 10 -10v-1c0 -7 3 -11 8 -11c3 0 4 1 7 2c24 13 51 20 66 20c36 0 76 -11 103 -36c2 -2 5 -3 7 -3s5 1 7 3c26 25 71 36 112 36c101 0 177 -72 177 -176v-272z" />
    <glyph glyph-name="n" unicode="n" horiz-adv-x="488" 
d="M430 10c0 -7 -3 -10 -10 -10h-95c-7 0 -10 3 -10 10v272c0 40 -31 71 -71 71s-72 -31 -72 -71v-272c0 -7 -3 -10 -10 -10h-94c-7 0 -10 3 -10 10v438c0 7 3 10 10 10h85c7 0 10 -2 10 -9s3 -11 8 -11c3 0 4 1 7 2c21 11 46 18 66 18c113 0 186 -72 186 -176v-272z" />
    <glyph glyph-name="o" unicode="o" horiz-adv-x="459" 
d="M416 167c0 -104 -73 -177 -186 -177c-114 0 -187 73 -187 177v124c0 104 73 177 187 177c113 0 186 -73 186 -177v-124zM301 167v124c0 40 -31 72 -71 72c-41 0 -72 -33 -72 -72v-124c0 -39 31 -72 72 -72c40 0 71 32 71 72z" />
    <glyph glyph-name="p" unicode="p" horiz-adv-x="473" 
d="M430 177c0 -104 -78 -177 -177 -177c-19 0 -45 7 -66 18c-3 1 -4 2 -7 2c-5 0 -8 -4 -8 -11v-224c0 -7 -3 -10 -10 -10h-94c-7 0 -10 3 -10 10v663c0 7 3 10 10 10h85c7 0 10 -3 10 -9c0 -7 3 -11 8 -11c3 0 4 1 7 2c21 11 46 18 66 18c113 0 186 -72 186 -176v-105z
M315 177v105c0 40 -31 71 -71 71s-72 -31 -72 -71v-105c0 -41 33 -72 72 -72c40 0 71 31 71 72z" />
    <glyph glyph-name="q" unicode="q" horiz-adv-x="473" 
d="M416 -215c0 -7 -3 -10 -10 -10h-95c-7 0 -10 3 -10 10v224c0 7 -3 11 -8 11c-3 0 -4 -1 -7 -2c-21 -11 -46 -18 -66 -18c-98 0 -177 73 -177 177v105c0 104 73 176 187 176c19 0 45 -7 66 -18c3 -1 4 -2 7 -2c5 0 8 4 8 11c0 6 3 9 10 9h85c7 0 10 -3 10 -10v-663z
M301 177v105c0 40 -31 71 -71 71c-41 0 -72 -31 -72 -71v-105c0 -41 31 -72 72 -72c40 0 71 31 71 72z" />
    <glyph glyph-name="r" unicode="r" horiz-adv-x="304" 
d="M290 344c0 -7 -5 -11 -10 -11c-6 0 -15 9 -36 9c-41 0 -72 -30 -72 -70v-262c0 -7 -3 -10 -10 -10h-94c-7 0 -10 3 -10 10v438c0 7 3 10 10 10h85c7 0 10 -1 10 -9v-14c0 -6 4 -10 8 -10s5 1 7 3c10 11 44 30 76 30c10 0 20 -1 28 -3c5 -1 8 -5 8 -10v-101z" />
    <glyph glyph-name="s" unicode="s" horiz-adv-x="451" 
d="M408 352c0 -3 -2 -6 -6 -8l-76 -37c-4 -2 -7 -4 -11 -4c-3 0 -6 2 -8 6c-15 38 -44 57 -73 57h-29c-38 0 -55 -14 -55 -38c0 -38 55 -36 109 -48c72 -15 147 -40 147 -131c0 -85 -59 -159 -172 -159h-29c-82 0 -127 35 -155 79c-10 16 -18 33 -18 38c0 3 2 6 6 8l72 35
c6 3 12 6 15 6s6 -2 8 -7c15 -38 43 -57 72 -57h29c38 0 58 21 58 43c0 38 -55 35 -110 46c-72 14 -145 39 -145 132c0 98 78 155 168 155h29c80 0 125 -32 153 -74c10 -15 21 -37 21 -42z" />
    <glyph glyph-name="t" unicode="t" horiz-adv-x="321" 
d="M277 0c0 -7 -4 -10 -10 -10c-19 0 -55 6 -85 18c-69 28 -105 86 -105 159v176c0 7 -3 10 -10 10h-52c-7 0 -10 3 -10 9s1 27 2 54l115 122c3 3 7 6 12 6h47c7 0 10 -3 10 -10v-66c0 -7 3 -10 10 -10h66c7 0 10 -3 10 -10v-85c0 -7 -3 -10 -10 -10h-66
c-7 0 -10 -3 -10 -10v-176c0 -36 25 -67 77 -71c6 0 9 -4 9 -10v-86z" />
    <glyph glyph-name="u" unicode="u" horiz-adv-x="478" 
d="M420 10c0 -7 -3 -10 -10 -10h-85c-7 0 -10 4 -10 9c0 7 -3 11 -8 11c-3 0 -4 -1 -7 -2c-21 -11 -46 -18 -66 -18c-113 0 -186 73 -186 177v271c0 7 3 10 10 10h95c7 0 10 -3 10 -10v-271c0 -41 31 -72 71 -72c39 0 72 31 72 72v271c0 7 3 10 10 10h94c7 0 10 -3 10 -10
v-438z" />
    <glyph glyph-name="v" unicode="v" horiz-adv-x="430" 
d="M439 450c0 -4 -2 -9 -5 -16l-174 -428c-2 -4 -5 -6 -9 -6h-72c-4 0 -7 2 -9 6l-172 426c-3 8 -6 14 -6 18c0 5 3 8 10 8h101c4 0 7 -2 9 -6l90 -231c2 -6 10 -35 11 -44h4c1 9 9 38 11 44l90 231c2 4 5 6 9 6h102c7 0 10 -3 10 -8z" />
    <glyph glyph-name="w" unicode="w" horiz-adv-x="599" 
d="M598 450c0 -4 -4 -16 -7 -25l-128 -418c-1 -5 -5 -7 -10 -7h-69c-5 0 -9 2 -10 7l-60 211c-5 18 -9 38 -12 54h-4c-3 -16 -9 -39 -13 -54l-59 -211c-1 -5 -5 -7 -10 -7h-70c-5 0 -9 2 -10 7l-127 418c-4 12 -7 21 -7 25c0 5 4 8 11 8h98c5 0 9 -2 10 -7l49 -190
c4 -14 8 -45 10 -62h4c4 20 9 43 14 61l51 191c1 5 5 7 10 7h84c5 0 9 -2 10 -7l50 -191c6 -21 11 -46 14 -62h4c2 17 5 40 11 63l48 190c1 5 5 7 10 7h97c7 0 11 -3 11 -8z" />
    <glyph glyph-name="x" unicode="x" horiz-adv-x="409" 
d="M420 450c0 -3 -3 -8 -7 -14l-127 -193c-4 -6 -6 -9 -6 -13s2 -8 6 -14l127 -195c4 -6 6 -9 6 -13c0 -5 -3 -8 -10 -8h-112c-4 0 -7 2 -9 5l-75 121c-3 4 -6 7 -9 7s-6 -3 -9 -7l-75 -121c-2 -3 -6 -5 -9 -5h-96c-7 0 -11 3 -11 8c0 4 4 10 9 19l109 187c4 7 6 12 6 16
s-2 8 -7 16l-125 191c-3 5 -6 10 -6 13c0 5 3 8 10 8h112c3 0 6 -2 8 -5l76 -122c2 -4 4 -6 7 -6s6 2 8 6l77 122c2 3 5 5 8 5h113c7 0 11 -3 11 -8z" />
    <glyph glyph-name="y" unicode="y" horiz-adv-x="478" 
d="M420 -49c0 -107 -63 -186 -186 -186c-78 0 -123 30 -153 73c-16 22 -23 39 -23 44c0 3 2 6 6 8l80 40c5 3 8 4 11 4s6 -2 8 -6c17 -42 44 -58 71 -58c39 0 72 33 72 72v62c0 7 -2 11 -7 11c-3 0 -5 -1 -7 -2c-19 -9 -39 -13 -58 -13c-113 0 -186 73 -186 177v271
c0 7 3 10 10 10h95c7 0 10 -3 10 -10v-271c0 -41 31 -72 71 -72c39 0 72 31 72 72v271c0 7 3 10 10 10h94c7 0 10 -3 10 -10v-497z" />
    <glyph glyph-name="z" unicode="z" horiz-adv-x="430" 
d="M405 449c0 -4 -5 -13 -12 -24l-175 -290c-7 -11 -11 -18 -11 -22c0 -5 4 -8 11 -8h172c7 0 10 -3 10 -10v-85c0 -7 -3 -10 -10 -10h-372c-7 0 -11 3 -11 8c0 4 4 10 11 22l174 290c7 11 12 20 12 24c0 5 -4 8 -11 8h-154c-7 0 -10 3 -10 10v85c0 7 3 10 10 10h355
c7 0 11 -3 11 -8z" />
    <glyph glyph-name="braceleft" unicode="{" horiz-adv-x="418" 
d="M344 -162c0 -7 -4 -10 -10 -10c-23 0 -60 8 -87 19c-68 29 -103 89 -103 167v139c0 36 -25 66 -77 70c-6 0 -9 4 -9 10v87c0 6 3 10 9 10c52 4 77 35 77 71v138c0 80 36 139 104 168c35 15 67 18 86 18c6 0 10 -3 10 -10v-86c0 -6 -3 -10 -9 -10c-52 -4 -77 -34 -77 -70
v-158c0 -37 -25 -81 -53 -108c-3 -2 -4 -5 -4 -7s1 -4 4 -7c28 -28 53 -76 53 -113v-151c0 -36 25 -67 77 -71c6 0 9 -4 9 -10v-86z" />
    <glyph glyph-name="bar" unicode="|" horiz-adv-x="250" 
d="M82 -250v1000h86v-1000h-86z" />
    <glyph glyph-name="braceright" unicode="}" horiz-adv-x="418" 
d="M360 233c0 -6 -3 -10 -9 -10c-52 -4 -77 -34 -77 -70v-139c0 -78 -35 -138 -103 -167c-27 -11 -64 -19 -87 -19c-6 0 -10 3 -10 10v86c0 6 3 10 9 10c52 4 77 35 77 71v151c0 37 25 85 53 113c3 3 4 5 4 7s-1 5 -4 7c-28 27 -53 71 -53 108v158c0 36 -25 66 -77 70
c-6 0 -9 4 -9 10v86c0 7 4 10 10 10c19 0 51 -3 86 -18c68 -29 104 -88 104 -168v-138c0 -36 25 -67 77 -71c6 0 9 -4 9 -10v-87z" />
    <glyph glyph-name="asciitilde" unicode="~" 
d="M481 256c-33 -53 -72 -87 -131 -87c-35 0 -71 11 -103 31c-27 18 -55 32 -85 32c-35 0 -62 -34 -79 -65l-56 64c31 47 69 86 132 86c38 0 70 -11 101 -30c34 -21 58 -32 86 -32c34 0 61 31 79 64z" />
    <glyph glyph-name="exclamdown" unicode="&#xa1;" horiz-adv-x="306" 
d="M220 401c0 -36 -31 -67 -67 -67s-67 31 -67 67s31 67 67 67s67 -31 67 -67zM210 -162c0 -7 -3 -10 -10 -10h-94c-7 0 -10 3 -10 10v261l21 178c1 6 4 9 10 9h50c6 0 9 -3 10 -9l23 -178v-261z" />
    <glyph glyph-name="cent" unicode="&#xa2;" 
d="M479 134c0 -5 -7 -17 -19 -36c-29 -45 -70 -77 -145 -82c-6 0 -8 -4 -8 -10v-56c0 -7 -3 -10 -10 -10h-52c-7 0 -10 3 -10 10v57c0 6 -4 10 -10 10c-103 9 -167 78 -167 176v124c0 98 64 167 167 176c6 0 10 4 10 10v57c0 7 3 10 10 10h52c7 0 10 -3 10 -10v-56
c0 -6 2 -10 8 -10c73 -4 114 -35 143 -77c13 -19 21 -34 21 -39c0 -4 -2 -7 -6 -9l-75 -37c-5 -3 -13 -7 -17 -7c-3 0 -6 2 -8 6c-10 21 -22 37 -34 47c-9 7 -18 11 -24 11s-8 -5 -8 -12v-244c0 -7 2 -10 7 -10c7 0 23 9 31 16c10 9 20 23 28 42c2 4 5 6 8 6
c4 0 10 -3 17 -7l75 -37c4 -2 6 -5 6 -9zM235 134v242c0 7 -3 12 -9 12s-16 -5 -25 -12c-17 -13 -28 -34 -28 -59v-124c0 -26 11 -47 30 -60c5 -4 18 -10 23 -10c6 0 9 4 9 11z" />
    <glyph glyph-name="sterling" unicode="&#xa3;" 
d="M488 523c0 -4 -2 -7 -6 -9l-72 -36c-11 -5 -16 -8 -20 -8c-3 0 -6 2 -8 6c-18 43 -45 59 -71 59c-39 0 -72 -33 -72 -72v-81c0 -7 3 -10 10 -10h66c7 0 10 -3 10 -10v-85c0 -7 -3 -10 -10 -10h-66c-7 0 -10 -3 -10 -10v-90c0 -26 -11 -46 -11 -53c0 -5 3 -9 10 -9h206
c7 0 10 -3 10 -10v-85c0 -7 -3 -10 -10 -10h-438c-7 0 -10 3 -10 10v85c0 7 3 10 10 10h56c36 6 63 35 63 72v80c0 7 -3 10 -10 10h-23c-7 0 -10 3 -10 10v85c0 7 3 10 10 10h23c7 0 10 3 10 10v71c0 102 84 187 186 187c75 0 119 -29 150 -70c16 -21 27 -41 27 -47z" />
    <glyph glyph-name="fraction" unicode="&#x2044;" horiz-adv-x="193" 
d="M270 622c0 -4 -2 -10 -5 -16l-257 -600c-2 -4 -5 -6 -9 -6h-54c-7 0 -10 3 -10 8c0 4 3 10 6 18l256 598c2 4 5 6 9 6h54c7 0 10 -3 10 -8z" />
    <glyph glyph-name="yen" unicode="&#xa5;" 
d="M488 622c0 -4 -4 -10 -9 -20l-125 -234c-3 -6 -7 -12 -7 -16c0 -5 4 -8 11 -8h105c7 0 10 -3 10 -10v-76c0 -7 -3 -10 -10 -10h-142c-7 0 -10 -3 -10 -10v-46c0 -7 3 -10 10 -10h142c7 0 10 -3 10 -10v-76c0 -7 -3 -10 -10 -10h-142c-7 0 -10 -3 -10 -10v-66
c0 -7 -3 -10 -10 -10h-95c-7 0 -10 3 -10 10v66c0 7 -3 10 -10 10h-142c-7 0 -10 3 -10 10v76c0 7 3 10 10 10h142c7 0 10 3 10 10v46c0 7 -3 10 -10 10h-142c-7 0 -10 3 -10 10v76c0 7 3 10 10 10h105c7 0 11 3 11 8c0 4 -4 11 -6 15l-129 240c-4 7 -6 11 -6 15
c0 5 4 8 11 8h110c4 0 7 -3 9 -6l95 -196c2 -5 6 -8 9 -8s7 3 9 8l95 196c2 3 5 6 9 6h111c7 0 11 -3 11 -8z" />
    <glyph glyph-name="florin" unicode="&#x192;" 
d="M437 625c0 -4 -2 -10 -4 -15l-27 -74c-1 -4 -4 -8 -8 -8s-15 7 -33 7c-41 0 -72 -31 -72 -72v-81c0 -7 3 -10 10 -10h66c7 0 10 -3 10 -10v-85c0 -7 -3 -10 -10 -10h-66c-7 0 -10 -3 -10 -10v-305c0 -102 -84 -187 -186 -187c-21 0 -46 3 -63 7c-5 1 -8 4 -8 8s2 10 4 15
l27 74c1 4 4 8 8 8s15 -7 33 -7c41 0 71 31 71 72v315c0 7 -3 10 -10 10h-23c-7 0 -10 3 -10 10v85c0 7 3 10 10 10h23c7 0 10 3 10 10v71c0 102 84 187 186 187c21 0 47 -3 64 -7c5 -1 8 -4 8 -8z" />
    <glyph glyph-name="section" unicode="&#xa7;" 
d="M455 -58c0 -104 -73 -177 -186 -177h-40c-83 0 -128 34 -158 81c-9 15 -19 31 -19 37c0 3 2 5 6 7l80 41c4 2 8 5 12 5c3 0 6 -2 8 -7c18 -43 44 -59 71 -59h40c40 0 71 32 71 72c0 133 -273 93 -273 296v20c0 33 7 62 21 88c4 7 6 10 6 14c0 3 -2 7 -6 14
c-14 24 -21 52 -21 89c0 104 73 177 186 177h16c83 0 128 -34 158 -81c9 -15 19 -31 19 -37c0 -3 -2 -5 -6 -7l-80 -41c-4 -2 -8 -5 -12 -5c-3 0 -6 2 -8 7c-18 43 -44 59 -71 59h-16c-40 0 -71 -32 -71 -72c0 -118 273 -82 273 -296v-20c0 -32 -8 -59 -21 -84
c-4 -8 -7 -12 -7 -15s1 -5 5 -12c14 -26 23 -56 23 -94zM340 140v27c0 64 -67 84 -134 112c-5 2 -10 5 -15 5c-6 0 -9 -5 -9 -15v-31c0 -56 66 -73 131 -101c9 -4 14 -7 19 -7s8 3 8 10z" />
    <glyph glyph-name="currency" unicode="&#xa4;" horiz-adv-x="615" 
d="M533 175c-18 -18 -35 -36 -52 -54c-23 23 -46 45 -68 68c-34 -24 -75 -37 -116 -37c-35 0 -79 9 -116 37c-23 -23 -46 -45 -68 -68c-18 18 -35 36 -53 54c23 21 46 44 69 65c-24 36 -36 76 -36 114s11 79 36 114l-69 66c18 18 35 36 53 54c22 -23 45 -45 68 -68
c39 27 81 36 116 36c36 0 81 -11 115 -36c23 23 46 45 69 68c17 -18 34 -36 52 -54l-69 -66c27 -38 37 -80 37 -114c0 -37 -12 -77 -37 -114c23 -21 46 -44 69 -65zM426 355c0 75 -64 128 -129 128c-74 0 -130 -59 -130 -128c0 -70 59 -129 130 -129s129 58 129 129z" />
    <glyph glyph-name="quotesingle" unicode="'" horiz-adv-x="182" 
d="M149 621c0 -5 -2 -19 -4 -33l-19 -149c-1 -6 -4 -9 -10 -9h-49c-6 0 -9 3 -10 9l-20 150c-2 12 -4 26 -4 32s4 9 10 9h96c6 0 10 -3 10 -9z" />
    <glyph glyph-name="quotedblleft" unicode="&#x201c;" horiz-adv-x="346" 
d="M327 612c0 -3 -2 -6 -6 -8c-26 -11 -39 -38 -39 -57c0 -6 4 -10 10 -10h8c7 0 10 -3 10 -10v-91c0 -7 -3 -10 -10 -10h-99c-7 0 -10 3 -10 10v69c0 77 23 120 62 149c15 11 34 21 38 21c3 0 6 -2 8 -6l22 -43c3 -5 6 -10 6 -14zM170 612c0 -3 -2 -6 -6 -8
c-26 -11 -39 -38 -39 -57c0 -6 4 -10 10 -10h8c7 0 10 -3 10 -10v-91c0 -7 -3 -10 -10 -10h-99c-7 0 -10 3 -10 10v69c0 77 23 120 62 149c15 11 34 21 38 21c3 0 6 -2 8 -6l22 -43c3 -5 6 -10 6 -14z" />
    <glyph glyph-name="guillemotleft" unicode="&#xab;" horiz-adv-x="574" 
d="M515 92c0 -7 -3 -11 -8 -11c-3 0 -5 1 -8 3l-217 153c-2 2 -4 5 -4 8v71c0 3 2 6 4 8l217 154c3 2 5 3 8 3c5 0 8 -4 8 -11v-89c0 -3 -2 -6 -4 -8l-118 -84c-3 -2 -5 -5 -5 -8s2 -5 5 -8l118 -85c2 -2 4 -5 4 -8v-88zM284 92c0 -7 -3 -11 -8 -11c-3 0 -5 1 -8 3l-216 153
c-2 2 -4 5 -4 8v71c0 3 2 6 4 8l216 154c3 2 5 3 8 3c5 0 8 -4 8 -11v-89c0 -4 -2 -6 -4 -8l-118 -84c-3 -2 -5 -5 -5 -8c0 -4 2 -5 5 -8l118 -85c2 -2 4 -5 4 -8v-88z" />
    <glyph glyph-name="guilsinglleft" unicode="&#x2039;" horiz-adv-x="343" 
d="M284 92c0 -7 -3 -11 -8 -11c-2 0 -5 1 -8 3l-216 153c-2 2 -4 5 -4 8v71c0 3 2 6 4 8l216 154c3 2 6 3 8 3c5 0 8 -4 8 -11v-89c0 -3 -2 -6 -4 -8l-118 -84c-3 -2 -5 -5 -5 -8s2 -5 5 -8l118 -85c2 -2 4 -5 4 -8v-88z" />
    <glyph glyph-name="guilsinglright" unicode="&#x203a;" horiz-adv-x="343" 
d="M295 245c0 -3 -2 -6 -4 -8l-216 -153c-3 -2 -6 -3 -8 -3c-5 0 -8 4 -8 11v88c0 3 2 6 4 8l117 85c3 3 5 5 5 8s-2 5 -5 8l-117 84c-2 2 -4 5 -4 8v89c0 7 3 11 8 11c2 0 5 -1 8 -3l216 -154c2 -2 4 -5 4 -8v-71z" />
    <glyph glyph-name="endash" unicode="&#x2013;" horiz-adv-x="555" 
d="M516 210c0 -7 -3 -10 -10 -10h-457c-7 0 -10 3 -10 10v66c0 7 3 10 10 10h457c7 0 10 -3 10 -10v-66z" />
    <glyph glyph-name="dagger" unicode="&#x2020;" horiz-adv-x="401" 
d="M401 377c0 -6 -3 -10 -9 -10s-136 13 -142 13s-9 -2 -9 -8s4 -29 8 -56l-19 -531c0 -7 -3 -10 -10 -10h-38c-7 0 -10 3 -10 10l-19 531c5 31 8 51 8 56c0 6 -3 8 -9 8s-136 -13 -143 -13c-6 0 -9 4 -9 10v84c0 6 4 10 10 10c5 0 139 -12 145 -12s9 3 9 9
c0 7 -12 148 -12 152c0 6 3 10 10 10h78c7 0 10 -4 10 -10c0 -5 -12 -146 -12 -152s3 -9 9 -9c5 0 140 12 144 12c6 0 10 -4 10 -10v-84z" />
    <glyph glyph-name="daggerdbl" unicode="&#x2021;" horiz-adv-x="401" 
d="M401 170c0 -6 -4 -10 -10 -10c-4 0 -135 12 -139 12c-6 0 -10 -4 -10 -10l-12 -377c0 -7 -3 -10 -10 -10h-38c-7 0 -10 3 -10 10l-12 377c0 6 -4 10 -10 10c-5 0 -135 -12 -140 -12c-6 0 -10 4 -10 10v84c0 6 3 10 9 10c7 0 133 -12 138 -12c7 0 9 4 9 10s-1 19 -3 55
c5 31 8 50 8 55c0 6 -3 8 -9 8s-136 -13 -143 -13c-6 0 -9 4 -9 10v84c0 6 4 10 10 10c5 0 138 -12 145 -12c6 0 9 3 9 9c0 7 -12 146 -12 152s3 10 10 10h78c7 0 10 -4 10 -10c0 -7 -12 -145 -12 -152c0 -6 3 -9 9 -9s138 12 144 12s10 -4 10 -10v-84c0 -6 -3 -10 -9 -10
c-7 0 -137 13 -142 13c-6 0 -9 -2 -9 -8s3 -24 8 -54c-2 -37 -3 -51 -3 -56c0 -6 2 -10 9 -10c8 0 131 12 137 12s9 -4 9 -10v-84z" />
    <glyph glyph-name="periodcentered" unicode="&#xb7;" 
d="M321 243c0 -36 -31 -67 -67 -67s-68 31 -68 67s31 67 67 67s68 -31 68 -67z" />
    <glyph glyph-name="paragraph" unicode="&#xb6;" horiz-adv-x="637" 
d="M570 -215c0 -7 -3 -10 -10 -10h-95c-7 0 -10 3 -10 10v730c0 7 -3 10 -10 10h-67c-7 0 -10 -3 -10 -10v-730c0 -7 -3 -10 -10 -10h-95c-7 0 -10 3 -10 10v291c0 7 -3 10 -10 10h-4c-114 0 -186 77 -186 176v182c0 112 72 186 186 186h321c7 0 10 -3 10 -10v-835z" />
    <glyph glyph-name="bullet" unicode="&#x2022;" horiz-adv-x="500" 
d="M409 305c0 -87 -62 -148 -157 -148h-4c-95 0 -157 61 -157 148v20c0 87 62 147 157 147h4c95 0 157 -60 157 -147v-20z" />
    <glyph glyph-name="quotesinglbase" unicode="&#x201a;" horiz-adv-x="189" 
d="M155 55c0 -77 -23 -120 -62 -149c-15 -11 -34 -21 -38 -21c-3 0 -6 2 -8 6l-22 43c-3 5 -6 10 -6 14c0 3 2 6 6 8c26 11 39 38 39 57c0 6 -4 10 -10 10h-8c-7 0 -10 3 -10 10v91c0 7 3 10 10 10h99c7 0 10 -3 10 -10v-69z" />
    <glyph glyph-name="quotedblbase" unicode="&#x201e;" horiz-adv-x="346" 
d="M312 55c0 -77 -23 -120 -62 -149c-15 -11 -34 -21 -38 -21c-3 0 -6 2 -8 6l-22 43c-3 5 -6 10 -6 14c0 3 2 6 6 8c26 11 39 38 39 57c0 6 -4 10 -10 10h-8c-7 0 -10 3 -10 10v91c0 7 3 10 10 10h99c7 0 10 -3 10 -10v-69zM155 55c0 -77 -23 -120 -62 -149
c-15 -11 -34 -21 -38 -21c-3 0 -6 2 -8 6l-22 43c-3 5 -6 10 -6 14c0 3 2 6 6 8c26 11 39 38 39 57c0 6 -4 10 -10 10h-8c-7 0 -10 3 -10 10v91c0 7 3 10 10 10h99c7 0 10 -3 10 -10v-69z" />
    <glyph glyph-name="quotedblright" unicode="&#x201d;" horiz-adv-x="346" 
d="M312 551c0 -77 -23 -120 -62 -149c-15 -11 -34 -21 -38 -21c-3 0 -6 2 -8 6l-22 43c-3 5 -6 10 -6 14c0 3 2 6 6 8c26 11 39 38 39 57c0 6 -4 10 -10 10h-8c-7 0 -10 3 -10 10v91c0 7 3 10 10 10h99c7 0 10 -3 10 -10v-69zM155 551c0 -77 -23 -120 -62 -149
c-15 -11 -34 -21 -38 -21c-3 0 -6 2 -8 6l-22 43c-3 5 -6 10 -6 14c0 3 2 6 6 8c26 11 39 38 39 57c0 6 -4 10 -10 10h-8c-7 0 -10 3 -10 10v91c0 7 3 10 10 10h99c7 0 10 -3 10 -10v-69z" />
    <glyph glyph-name="guillemotright" unicode="&#xbb;" horiz-adv-x="574" 
d="M526 245c0 -3 -2 -6 -4 -8l-216 -153c-3 -2 -5 -3 -8 -3c-5 0 -8 4 -8 11v88c0 3 2 6 4 8l118 85c3 3 5 5 5 8s-2 6 -5 8l-118 84c-2 2 -4 5 -4 8v89c0 7 3 11 8 11c3 0 5 -1 8 -3l216 -154c2 -2 4 -5 4 -8v-71zM295 245c0 -3 -2 -6 -4 -8l-216 -153c-3 -2 -5 -3 -8 -3
c-5 0 -8 4 -8 11v88c0 3 2 6 4 8l117 85c3 3 5 5 5 8s-2 5 -5 8l-117 84c-2 2 -4 5 -4 8v89c0 7 3 11 8 11c3 0 5 -1 8 -3l216 -154c2 -2 4 -5 4 -8v-71z" />
    <glyph glyph-name="ellipsis" unicode="&#x2026;" horiz-adv-x="1000" 
d="M864 57c0 -36 -31 -67 -67 -67s-67 31 -67 67s31 67 67 67s67 -31 67 -67zM566 57c0 -36 -31 -67 -67 -67s-67 31 -67 67s31 67 67 67s67 -31 67 -67zM268 57c0 -36 -31 -67 -67 -67s-67 31 -67 67s31 67 67 67s67 -31 67 -67z" />
    <glyph glyph-name="perthousand" unicode="&#x2030;" horiz-adv-x="788" 
d="M743 95c0 -56 -39 -95 -100 -95s-100 39 -100 95v96c0 56 39 95 100 95s100 -39 100 -95v-96zM247 439c0 -56 -39 -95 -101 -95c-61 0 -100 39 -100 95v93c0 56 39 98 100 98c62 0 101 -39 101 -95v-96zM441 622c0 -5 -4 -12 -13 -34l-249 -582c-2 -4 -5 -6 -9 -6h-53
c-7 0 -10 3 -10 8s4 14 13 34l249 582c2 4 5 6 9 6h53c7 0 10 -3 10 -8zM501 95c0 -56 -39 -95 -100 -95s-100 39 -100 95v96c0 56 39 95 100 95s100 -39 100 -95v-96zM662 95v96c0 11 -8 19 -19 19s-19 -8 -19 -19v-96c0 -11 8 -19 19 -19s19 8 19 19zM166 439v96
c0 10 -10 19 -20 19c-11 0 -19 -8 -19 -19v-96c0 -11 8 -19 19 -19c10 0 20 9 20 19zM420 95v96c0 11 -8 19 -19 19s-19 -8 -19 -19v-96c0 -11 8 -19 19 -19s19 8 19 19z" />
    <glyph glyph-name="questiondown" unicode="&#xbf;" horiz-adv-x="475" 
d="M341 401c0 -36 -31 -67 -67 -67s-67 31 -67 67s31 67 67 67s67 -31 67 -67zM448 -64c0 -6 -10 -22 -19 -37c-30 -47 -75 -81 -158 -81h-36c-113 0 -186 73 -186 177c0 117 70 145 126 171c31 15 58 28 58 66c0 24 -6 39 -6 46c0 6 3 8 10 8h95c6 0 9 -3 10 -8
c3 -19 6 -41 6 -60c0 -93 -65 -119 -120 -147c-34 -17 -64 -34 -64 -76c0 -40 31 -72 71 -72h36c27 0 53 16 71 59c2 5 5 7 8 7c4 0 8 -3 12 -5l80 -41c4 -2 6 -4 6 -7z" />
    <glyph glyph-name="grave" unicode="`" horiz-adv-x="500" 
d="M316 521c0 -5 -3 -8 -10 -8h-68c-6 0 -11 3 -16 7l-142 140c-4 4 -7 7 -7 12s4 8 11 8h122c5 0 11 -3 14 -8l90 -138c3 -5 6 -9 6 -13z" />
    <glyph glyph-name="acute" unicode="&#xb4;" horiz-adv-x="500" 
d="M434 672c0 -5 -3 -8 -7 -12l-142 -140c-5 -4 -10 -7 -16 -7h-68c-7 0 -10 3 -10 8c0 4 3 8 6 13l90 138c3 5 9 8 14 8h122c7 0 11 -3 11 -8z" />
    <glyph glyph-name="circumflex" unicode="&#x2c6;" horiz-adv-x="500" 
d="M391 521c0 -5 -4 -8 -11 -8h-81c-3 0 -6 2 -8 5l-33 51c-2 4 -5 6 -8 6c-2 0 -5 -2 -7 -6l-32 -51c-2 -3 -5 -5 -8 -5h-81c-7 0 -11 3 -11 8c0 3 1 5 3 8l104 147c2 2 5 4 8 4h49c3 0 6 -2 8 -4l105 -147c2 -3 3 -6 3 -8z" />
    <glyph glyph-name="tilde" unicode="&#x2dc;" horiz-adv-x="500" 
d="M407 614c0 -4 -7 -17 -18 -34c-26 -38 -54 -55 -84 -55c-22 0 -43 13 -69 29l-18 11c-8 5 -18 10 -26 10c-13 0 -25 -7 -41 -31c-2 -4 -5 -6 -8 -6s-8 4 -14 9l-34 25c-3 2 -4 4 -4 8s5 14 14 28c27 42 55 58 87 58c23 0 44 -9 68 -26l17 -12c8 -6 20 -11 28 -11
c13 0 26 6 43 34c2 4 5 6 8 6c4 0 7 -3 11 -6l36 -29c3 -2 4 -5 4 -8z" />
    <glyph glyph-name="macron" unicode="&#xaf;" horiz-adv-x="500" 
d="M376 555c0 -7 -3 -10 -10 -10h-228c-7 0 -10 3 -10 10v85c0 7 3 10 10 10h228c7 0 10 -3 10 -10v-85z" />
    <glyph glyph-name="breve" unicode="&#x2d8;" horiz-adv-x="500" 
d="M371 608c0 -56 -39 -95 -100 -95h-43c-61 0 -100 39 -100 95v62c0 7 3 10 10 10h51c7 0 10 -3 10 -10v-43c0 -15 14 -28 29 -28h43c16 0 28 12 28 28v43c0 7 3 10 10 10h52c7 0 10 -3 10 -10v-62z" />
    <glyph glyph-name="dotaccent" unicode="&#x2d9;" horiz-adv-x="500" 
d="M322 583c0 -40 -28 -67 -71 -67s-72 27 -72 67v28c0 40 29 67 72 67s71 -27 71 -67v-28z" />
    <glyph glyph-name="dieresis" unicode="&#xa8;" horiz-adv-x="500" 
d="M396 594c0 -35 -27 -62 -62 -62s-62 27 -62 62s27 62 62 62s62 -27 62 -62zM227 594c0 -35 -27 -62 -62 -62s-62 27 -62 62s27 62 62 62s62 -27 62 -62z" />
    <glyph glyph-name="ring" unicode="&#x2da;" horiz-adv-x="500" 
d="M350 608c0 -56 -39 -95 -100 -95s-100 39 -100 95v29c0 56 39 95 100 95s100 -39 100 -95v-29zM279 608v29c0 15 -14 29 -29 29s-29 -14 -29 -29v-29c0 -15 14 -28 29 -28s29 13 29 28z" />
    <glyph glyph-name="cedilla" unicode="&#xb8;" horiz-adv-x="500" 
d="M325 -112c0 -62 -49 -103 -111 -103h-59c-7 0 -10 3 -10 10v66c0 7 3 10 10 10h59c9 0 18 8 18 17v8c0 9 -9 18 -18 18h-40c-7 0 -10 3 -10 8c0 4 3 10 8 20l51 107c2 4 5 6 9 6c3 0 10 -2 20 -4l44 -10c6 -1 9 -4 9 -8c0 -3 -3 -9 -5 -13l-16 -32c-2 -5 -5 -10 -5 -13
s1 -5 4 -7c26 -14 42 -40 42 -72v-8z" />
    <glyph glyph-name="hungarumlaut" unicode="&#x2dd;" horiz-adv-x="500" 
d="M440 672c0 -4 -4 -12 -9 -19l-86 -135c-2 -3 -6 -5 -9 -5h-40c-7 0 -10 3 -10 8c0 3 2 10 8 26l43 126c1 4 5 7 9 7h83c7 0 11 -3 11 -8zM314 672c0 -4 -5 -12 -9 -19l-78 -135c-2 -3 -6 -5 -9 -5h-48c-7 0 -10 3 -10 8c0 3 2 10 8 26l43 126c1 4 5 7 9 7h83
c7 0 11 -3 11 -8z" />
    <glyph glyph-name="ogonek" unicode="&#x2db;" horiz-adv-x="500" 
d="M361 -204c0 -6 -3 -10 -9 -10c-15 0 -47 8 -66 17c-51 25 -82 72 -82 125v119c0 7 3 10 10 10h73c7 0 10 -3 10 -10v-125c0 -24 16 -45 55 -50c6 -1 9 -4 9 -10v-66z" />
    <glyph glyph-name="caron" unicode="&#x2c7;" horiz-adv-x="500" 
d="M390 672c0 -4 -5 -11 -10 -18l-98 -137c-2 -2 -5 -4 -8 -4h-49c-3 0 -6 2 -8 4l-97 137c-6 9 -10 14 -10 18c0 5 4 8 11 8h81c3 0 6 -2 8 -5l32 -51c2 -4 4 -6 7 -6s6 2 8 6l33 51c2 3 5 5 8 5h81c7 0 11 -3 11 -8z" />
    <glyph glyph-name="emdash" unicode="&#x2014;" horiz-adv-x="813" 
d="M774 210c0 -7 -3 -10 -10 -10h-715c-7 0 -10 3 -10 10v66c0 7 3 10 10 10h715c7 0 10 -3 10 -10v-66z" />
    <glyph glyph-name="AE" unicode="&#xc6;" horiz-adv-x="686" 
d="M648 10c0 -7 -3 -10 -10 -10h-353c-7 0 -10 3 -10 10v118c0 7 -3 10 -10 10h-133c-3 0 -8 -1 -10 -4l-72 -129c-2 -3 -6 -5 -9 -5h-102c-7 0 -11 3 -11 8c0 4 5 12 11 22l351 595c2 3 5 5 9 5h339c7 0 10 -3 10 -10v-85c0 -7 -3 -10 -10 -10h-238c-7 0 -10 -3 -10 -10
v-133c0 -7 3 -10 10 -10h195c7 0 10 -3 10 -10v-85c0 -7 -3 -10 -10 -10h-195c-7 0 -10 -3 -10 -10v-142c0 -7 3 -10 10 -10h238c7 0 10 -3 10 -10v-85zM281 416l-4 1c-3 -8 -19 -44 -23 -51l-55 -101c-3 -6 -6 -11 -6 -14c0 -5 4 -8 11 -8h61c7 0 10 3 10 10v40
c0 48 4 99 6 123z" />
    <glyph glyph-name="ordfeminine" unicode="&#xaa;" horiz-adv-x="331" 
d="M296 314c0 -9 -3 -12 -12 -12h-59c-8 0 -10 4 -10 13c0 6 -2 9 -5 9c-4 0 -7 -2 -10 -5c-14 -13 -30 -17 -42 -17h-21c-58 0 -104 40 -104 99v3c0 61 46 99 104 99h62c5 0 7 2 7 7v4c0 24 -20 42 -45 42c-23 0 -37 -18 -48 -37c-2 -4 -5 -7 -9 -7s-10 4 -16 7l-49 25
c-5 2 -7 5 -7 9s6 17 15 31c23 36 57 56 113 56c83 0 136 -53 136 -129v-197zM206 417v3c0 4 -3 6 -6 6h-63c-7 0 -14 -7 -14 -15v-10c0 -8 6 -16 14 -16h30c20 0 36 13 39 32z" />
    <glyph glyph-name="Lslash" unicode="&#x141;" horiz-adv-x="454" 
d="M440 10c0 -7 -3 -10 -10 -10h-353c-7 0 -10 3 -10 10v186c0 7 -2 10 -5 10c-2 0 -4 -2 -6 -4l-6 -6c-3 -3 -5 -4 -8 -4s-5 1 -7 3l-50 46c-3 2 -4 5 -4 7c0 3 1 4 4 7l71 70c7 7 11 15 11 25v270c0 7 3 10 10 10h95c7 0 10 -3 10 -10v-157c0 -5 1 -7 4 -7c2 0 3 1 5 3
l6 6c2 2 5 4 7 4s5 -2 7 -4l49 -46c3 -2 4 -5 4 -7c0 -3 -1 -4 -4 -7l-69 -69c-6 -6 -9 -12 -9 -21v-200c0 -7 3 -10 10 -10h238c7 0 10 -3 10 -10v-85z" />
    <glyph glyph-name="Oslash" unicode="&#xd8;" horiz-adv-x="527" 
d="M474 167c0 -104 -73 -177 -186 -177h-49c-114 0 -186 73 -186 177v296c0 104 72 177 186 177h49c113 0 186 -73 186 -177v-296zM316 521c0 5 -3 9 -7 10c-7 2 -13 4 -21 4h-49c-39 0 -72 -33 -72 -72v-212c0 -6 3 -9 7 -9c2 0 5 1 7 5l133 267c1 3 2 5 2 7zM359 167v261
c0 5 -3 8 -6 8s-5 -1 -7 -5l-149 -299c-2 -5 -4 -9 -4 -13c0 -5 2 -8 6 -11c12 -8 25 -13 40 -13h49c40 0 71 32 71 72z" />
    <glyph glyph-name="OE" unicode="&#x152;" horiz-adv-x="750" 
d="M712 10c0 -7 -3 -10 -10 -10h-372c-18 -6 -39 -10 -62 -10h-29c-114 0 -186 73 -186 177v296c0 104 72 177 186 177h29c23 0 46 -4 64 -10h370c7 0 10 -3 10 -10v-85c0 -7 -3 -10 -10 -10h-244c-7 0 -11 -3 -11 -8c0 -6 7 -17 7 -54v-81c0 -7 3 -10 10 -10h195
c7 0 10 -3 10 -10v-85c0 -7 -3 -10 -10 -10h-195c-7 0 -10 -3 -10 -10v-90c0 -35 -7 -48 -7 -54c0 -5 4 -8 11 -8h244c7 0 10 -3 10 -10v-85zM339 167v296c0 40 -31 72 -71 72h-29c-39 0 -72 -33 -72 -72v-296c0 -39 33 -72 72 -72h29c40 0 71 32 71 72z" />
    <glyph glyph-name="ordmasculine" unicode="&#xba;" horiz-adv-x="321" 
d="M296 424c0 -76 -53 -129 -135 -129c-83 0 -136 53 -136 129v87c0 75 53 129 136 129c82 0 135 -54 135 -129v-87zM206 424v87c0 25 -20 45 -45 45c-26 0 -45 -21 -45 -45v-87c0 -24 19 -46 45 -46c25 0 45 21 45 46z" />
    <glyph glyph-name="ae" unicode="&#xe6;" horiz-adv-x="719" 
d="M676 210c0 -7 -3 -10 -10 -10h-238c-7 0 -10 -3 -10 -10v-23c0 -39 31 -72 72 -72c26 0 53 16 71 59c2 4 5 6 8 6s9 -3 17 -7l75 -37c4 -2 6 -5 6 -8c0 -4 -7 -17 -15 -30c-31 -51 -75 -88 -162 -88c-59 0 -104 19 -134 49c-3 3 -4 4 -7 4c-2 0 -5 -1 -7 -4
c-29 -31 -77 -49 -105 -49h-47c-81 0 -144 54 -144 134v19c0 80 63 134 144 134h104c7 0 10 3 10 10v2c0 40 -31 72 -71 72c-27 0 -54 -16 -71 -58c-2 -4 -5 -6 -8 -6s-8 2 -13 5l-78 39c-4 2 -6 5 -6 8c0 5 5 15 16 33c30 48 76 84 160 84c46 0 88 -13 119 -36
c3 -2 8 -7 12 -7s9 4 12 7c31 24 69 38 114 38c113 0 186 -94 186 -177v-81zM560 305c0 12 -20 58 -70 58c-49 0 -71 -45 -71 -58c0 -5 4 -9 11 -9h119c7 0 11 4 11 9zM304 151v23c0 5 -4 8 -10 8h-104c-17 0 -29 -14 -29 -29v-29c0 -15 12 -29 29 -29h47c30 0 56 30 67 56z
" />
    <glyph glyph-name="dotlessi" unicode="&#x131;" horiz-adv-x="230" 
d="M172 10c0 -7 -3 -10 -10 -10h-94c-7 0 -10 3 -10 10v438c0 7 3 10 10 10h94c7 0 10 -3 10 -10v-438z" />
    <glyph glyph-name="lslash" unicode="&#x142;" horiz-adv-x="230" 
d="M254 412c0 -3 -1 -4 -4 -7l-69 -69c-6 -6 -9 -12 -9 -21v-305c0 -7 -3 -10 -10 -10h-94c-7 0 -10 3 -10 10v186c0 7 -2 10 -5 10c-2 0 -4 -2 -6 -4l-6 -6c-3 -3 -5 -4 -8 -4s-5 1 -7 3l-50 46c-3 2 -4 5 -4 7c0 3 1 4 4 7l71 70c7 7 11 15 11 25v270c0 7 3 10 10 10h94
c7 0 10 -3 10 -10v-157c0 -5 1 -7 4 -7c2 0 3 1 5 3l6 6c2 2 5 4 7 4s5 -2 7 -4l49 -46c3 -2 4 -5 4 -7z" />
    <glyph glyph-name="oslash" unicode="&#xf8;" horiz-adv-x="459" 
d="M416 167c0 -104 -73 -177 -186 -177c-114 0 -187 73 -187 177v124c0 104 73 177 187 177c113 0 186 -73 186 -177v-124zM239 354c0 5 -3 9 -9 9c-41 0 -72 -33 -72 -72v-97c0 -5 1 -8 4 -8s4 2 6 6l69 154c1 3 2 6 2 8zM301 167v120c0 6 -3 9 -6 9s-5 -2 -7 -7l-78 -174
c-2 -3 -2 -6 -2 -9c0 -5 3 -9 9 -10c4 -1 8 -1 13 -1c40 0 71 32 71 72z" />
    <glyph glyph-name="oe" unicode="&#x153;" horiz-adv-x="716" 
d="M673 210c0 -7 -3 -10 -10 -10h-238c-7 0 -10 -3 -10 -10v-23c0 -39 31 -72 72 -72c26 0 53 16 71 59c2 4 5 6 8 6s9 -3 17 -7l75 -37c4 -2 6 -5 6 -8c0 -4 -7 -17 -15 -30c-31 -51 -75 -88 -162 -88c-48 0 -86 12 -115 32c-4 3 -9 8 -14 8s-10 -5 -14 -8
c-29 -20 -69 -32 -114 -32c-114 0 -187 73 -187 177v124c0 104 73 177 187 177c48 0 88 -13 120 -37c4 -3 7 -7 12 -7c4 0 10 5 13 7c31 22 67 37 112 37c113 0 186 -94 186 -177v-81zM557 305c0 12 -20 58 -70 58c-49 0 -71 -45 -71 -58c0 -5 4 -9 11 -9h119c7 0 11 4 11 9
zM301 167v124c0 40 -31 72 -71 72c-41 0 -72 -33 -72 -72v-124c0 -39 31 -72 72 -72c40 0 71 32 71 72z" />
    <glyph glyph-name="germandbls" unicode="&#xdf;" horiz-adv-x="491" 
d="M444 175c0 -85 -41 -146 -119 -172c-27 -9 -59 -13 -72 -13c-6 0 -10 3 -10 10v86c0 6 3 10 9 10c53 4 77 35 77 71v29c0 36 -24 66 -77 70c-6 0 -9 4 -9 10v87c0 6 3 10 9 10c53 4 77 35 77 71v19c0 40 -31 72 -71 72c-43 0 -72 -33 -72 -72v-453c0 -7 -3 -10 -10 -10
h-94c-7 0 -10 3 -10 10v290c0 7 -3 10 -10 10h-23c-7 0 -10 3 -10 10v85c0 7 3 10 10 10h23c7 0 10 3 10 10v28c0 102 84 187 186 187c113 0 186 -73 186 -187v-19c0 -37 -25 -81 -53 -108c-3 -2 -4 -5 -4 -7c0 -3 1 -4 4 -7c28 -28 53 -76 53 -113v-24z" />
    <glyph glyph-name="onesuperior" unicode="&#xb9;" horiz-adv-x="335" 
d="M302 257c0 -5 -2 -6 -6 -6h-234c-3 0 -6 1 -6 6v67c0 4 3 6 6 6h64c6 0 8 2 8 7v104c0 4 -3 6 -8 3l-22 -18c-3 -2 -6 -1 -9 1l-48 44c-3 3 -3 6 0 9l120 112c2 1 6 3 9 3h42c4 0 6 -2 6 -7v-251c0 -5 2 -7 9 -7h63c4 0 6 -2 6 -6v-67z" />
    <glyph glyph-name="logicalnot" unicode="&#xac;" 
d="M468 125c0 -7 -3 -10 -10 -10h-75c-7 0 -10 3 -10 10v151c0 7 -3 10 -10 10h-314c-7 0 -10 3 -10 10v66c0 7 3 10 10 10h409c7 0 10 -3 10 -10v-237z" />
    <glyph glyph-name="mu" unicode="&#xb5;" horiz-adv-x="478" 
d="M420 10c0 -7 -3 -10 -10 -10h-85c-7 0 -10 4 -10 9c0 7 -3 11 -8 11c-3 0 -4 -1 -7 -2c-21 -11 -46 -18 -66 -18c-22 0 -42 3 -61 8c-7 2 -10 -1 -10 -8v-150c0 -7 -3 -10 -10 -10h-95c-7 0 -10 3 -10 10v598c0 7 3 10 10 10h95c7 0 10 -3 10 -10v-271
c0 -41 31 -72 71 -72c39 0 72 31 72 72v271c0 7 3 10 10 10h94c7 0 10 -3 10 -10v-438z" />
    <glyph glyph-name="trademark" unicode="&#x2122;" horiz-adv-x="428" 
d="M378 370c0 -7 -3 -10 -10 -10h-12c-7 0 -10 3 -10 10v72c0 8 -4 12 -9 12c-3 0 -7 -3 -10 -7l-25 -41c-2 -3 -6 -5 -9 -5h-4c-3 0 -6 2 -8 5l-27 41c-3 4 -7 7 -10 7c-4 0 -8 -4 -8 -12v-72c0 -7 -3 -10 -10 -10h-12c-7 0 -10 3 -10 10v168c0 7 3 10 10 10h12
c3 0 7 -2 9 -5l47 -81c3 -4 6 -7 9 -7s6 3 9 7l47 81c2 3 6 5 9 5h12c7 0 10 -3 10 -10v-168zM166 527c0 -7 -3 -10 -10 -10h-27c-7 0 -10 -3 -10 -10v-137c0 -7 -3 -10 -10 -10h-12c-7 0 -10 3 -10 10v137c0 7 -3 10 -10 10h-27c-7 0 -10 3 -10 10v11c0 7 3 10 10 10h106
c7 0 10 -3 10 -10v-11z" />
    <glyph glyph-name="Eth" unicode="&#xd0;" horiz-adv-x="541" 
d="M488 186c0 -114 -72 -186 -186 -186h-225c-7 0 -10 3 -10 10v238c0 6 -3 10 -11 10h-31c-7 0 -10 3 -10 10v94c0 7 3 10 10 10h31c8 0 11 4 11 11v237c0 7 3 10 10 10h225c114 0 186 -73 186 -186v-258zM374 177v276c0 39 -33 72 -72 72h-110c-7 0 -10 -3 -10 -10v-133
c0 -6 4 -10 11 -10h76c7 0 10 -3 10 -10v-94c0 -7 -3 -10 -10 -10h-76c-9 0 -11 -5 -11 -11v-132c0 -7 3 -10 10 -10h110c39 0 72 31 72 72z" />
    <glyph glyph-name="onehalf" unicode="&#xbd;" horiz-adv-x="956" 
d="M823 223c0 -75 -71 -89 -121 -101c-27 -7 -50 -13 -50 -31v-6c0 -4 2 -6 7 -6h152c4 0 7 -1 7 -6v-67c0 -4 -2 -6 -7 -6h-247c-4 0 -7 2 -7 6v52c0 102 62 119 112 131c36 8 65 13 65 39c0 23 -15 37 -41 37h-24c-17 0 -34 -13 -49 -37c-1 -3 -5 -7 -9 -4l-67 30
c-4 3 -4 7 -2 11c26 48 60 79 125 79h26c80 0 130 -50 130 -121zM644 616l-261 -610c-2 -4 -5 -6 -9 -6h-54c-9 0 -13 5 -9 14l261 610c2 4 5 6 9 6h54c9 0 13 -5 9 -14zM362 257c0 -5 -3 -6 -6 -6h-234c-4 0 -6 1 -6 6v67c0 4 2 6 6 6h64c5 0 7 2 7 7v104c0 4 -3 6 -7 3
l-22 -18c-3 -2 -6 -1 -9 1l-48 44c-4 3 -4 6 0 9l119 112c2 1 6 3 9 3h43c3 0 6 -2 6 -7v-251c0 -5 2 -7 8 -7h64c3 0 6 -2 6 -6v-67z" />
    <glyph glyph-name="plusminus" unicode="&#xb1;" 
d="M468 333c0 -7 -3 -10 -10 -10h-152c-7 0 -10 -3 -10 -10v-151c0 -7 -3 -10 -10 -10h-66c-7 0 -10 3 -10 10v151c0 7 -3 10 -10 10h-151c-7 0 -10 3 -10 10v66c0 7 3 10 10 10h151c7 0 10 3 10 10v152c0 7 3 10 10 10h66c7 0 10 -3 10 -10v-152c0 -7 3 -10 10 -10h152
c7 0 10 -3 10 -10v-66zM468 10c0 -7 -3 -10 -10 -10h-409c-7 0 -10 3 -10 10v66c0 7 3 10 10 10h409c7 0 10 -3 10 -10v-66z" />
    <glyph glyph-name="Thorn" unicode="&#xde;" horiz-adv-x="483" 
d="M468 324c0 -99 -72 -177 -186 -177h-90c-7 0 -10 -3 -10 -10v-127c0 -7 -3 -10 -10 -10h-95c-7 0 -10 3 -10 10v610c0 7 3 10 10 10h95c7 0 10 -3 10 -10v-99c0 -8 4 -11 11 -11h89c114 0 186 -74 186 -186zM354 324v9c0 39 -33 72 -72 72h-90c-7 0 -10 -3 -10 -10v-133
c0 -7 3 -10 10 -10h90c39 0 72 33 72 72z" />
    <glyph glyph-name="onequarter" unicode="&#xbc;" horiz-adv-x="956" 
d="M824 20c0 -4 -2 -6 -6 -6h-45c-5 0 -6 -2 -6 -7v-75c0 -5 -3 -6 -7 -6h-77c-4 0 -6 1 -6 6v75c0 4 -3 7 -7 7h-162c-4 0 -6 2 -6 6v62l180 250c2 2 4 3 9 3h69c3 0 7 -1 7 -6v-229c0 -4 1 -7 6 -7h45c4 0 6 -3 6 -6v-67zM644 616l-261 -610c-2 -4 -5 -6 -9 -6h-54
c-9 0 -13 5 -9 14l261 610c2 4 5 6 9 6h54c9 0 13 -5 9 -14zM362 257c0 -5 -3 -6 -6 -6h-234c-4 0 -6 1 -6 6v67c0 4 2 6 6 6h64c5 0 7 2 7 7v104c0 4 -3 6 -7 3l-22 -18c-3 -2 -6 -1 -9 1l-48 44c-4 3 -4 6 0 9l119 112c2 1 6 3 9 3h43c3 0 6 -2 6 -7v-251c0 -5 2 -7 8 -7
h64c3 0 6 -2 6 -6v-67zM677 98v119c0 2 -4 3 -5 1l-72 -118c-2 -4 -1 -8 4 -8h66c4 0 7 2 7 6z" />
    <glyph glyph-name="divide" unicode="&#xf7;" 
d="M321 402c0 -36 -31 -67 -67 -67s-68 31 -68 67s31 67 67 67s68 -31 68 -67zM468 210c0 -7 -3 -10 -10 -10h-409c-7 0 -10 3 -10 10v66c0 7 3 10 10 10h409c7 0 10 -3 10 -10v-66zM321 83c0 -36 -31 -67 -67 -67s-68 31 -68 67s31 67 67 67s67 -31 67 -67h1z" />
    <glyph glyph-name="brokenbar" unicode="&#xa6;" horiz-adv-x="250" 
d="M168 367h-86v358h86v-358zM168 -172h-86v358h86v-358z" />
    <glyph glyph-name="degree" unicode="&#xb0;" horiz-adv-x="293" 
d="M247 439c0 -56 -39 -95 -101 -95c-61 0 -100 39 -100 95v93c0 56 39 98 100 98c62 0 101 -39 101 -95v-96zM166 439v96c0 10 -10 19 -20 19c-11 0 -19 -8 -19 -19v-96c0 -11 8 -19 19 -19c10 0 20 9 20 19z" />
    <glyph glyph-name="thorn" unicode="&#xfe;" horiz-adv-x="473" 
d="M430 177c0 -104 -78 -177 -177 -177c-19 0 -45 7 -66 18c-3 1 -4 2 -7 2c-5 0 -8 -4 -8 -11v-224c0 -7 -3 -10 -10 -10h-94c-7 0 -10 3 -10 10v835c0 7 3 10 10 10h85c7 0 10 -3 10 -9v-172c0 -7 3 -11 8 -11c3 0 4 1 7 2c21 11 46 18 66 18c113 0 186 -72 186 -176v-105
zM315 177v105c0 40 -31 71 -71 71s-72 -31 -72 -71v-105c0 -41 33 -72 72 -72c40 0 71 31 71 72z" />
    <glyph glyph-name="threequarters" unicode="&#xbe;" horiz-adv-x="956" 
d="M824 20c0 -4 -2 -6 -6 -6h-45c-5 0 -6 -2 -6 -7v-75c0 -5 -3 -6 -7 -6h-77c-4 0 -6 1 -6 6v75c0 4 -3 7 -7 7h-162c-4 0 -6 2 -6 6v62l180 250c2 2 4 3 9 3h69c3 0 7 -1 7 -6v-229c0 -4 1 -7 6 -7h45c4 0 6 -3 6 -6v-67zM644 616l-261 -610c-2 -4 -5 -6 -9 -6h-54
c-9 0 -13 5 -9 14l261 610c2 4 5 6 9 6h54c9 0 13 -5 9 -14zM372 335c0 -76 -52 -124 -133 -124h-19c-63 0 -98 24 -126 77c-2 3 -3 9 2 11l66 31c4 2 8 -1 10 -4c14 -24 31 -37 52 -37h15c26 0 43 18 43 41v21c0 23 -16 38 -43 38h-63c-4 0 -7 2 -7 7v67c0 4 3 6 7 6h63
c27 0 43 16 43 38v11c0 22 -17 39 -43 39h-15c-21 0 -38 -12 -52 -36c-2 -4 -6 -7 -11 -4l-65 30c-5 3 -4 8 -2 11c28 53 63 78 126 78h19c81 0 133 -49 133 -124v-11c0 -28 -17 -53 -36 -65c-4 -4 -3 -6 0 -8c18 -12 36 -38 36 -75v-18zM677 98v119c0 2 -4 3 -5 1l-72 -118
c-2 -4 -1 -8 4 -8h66c4 0 7 2 7 6z" />
    <glyph glyph-name="twosuperior" unicode="&#xb2;" horiz-adv-x="335" 
d="M304 474c0 -75 -71 -89 -121 -101c-27 -7 -50 -13 -50 -31v-6c0 -4 2 -6 8 -6h152c4 0 6 -1 6 -6v-67c0 -4 -2 -6 -6 -6h-248c-4 0 -7 2 -7 6v52c0 102 62 119 112 131c36 8 65 13 65 39c0 23 -15 37 -41 37h-24c-17 0 -33 -13 -48 -37c-2 -3 -6 -7 -10 -4l-67 30
c-4 3 -4 7 -2 11c26 48 60 79 125 79h26c80 0 130 -50 130 -121z" />
    <glyph glyph-name="registered" unicode="&#xae;" horiz-adv-x="460" 
d="M412 440c0 -100 -70 -170 -180 -170h-4c-110 0 -180 70 -180 170v20c0 100 70 170 180 170h4c110 0 180 -70 180 -170v-20zM382 440v20c0 83 -59 140 -150 140h-4c-91 0 -150 -57 -150 -140v-20c0 -83 59 -140 150 -140h4c91 0 150 57 150 140zM304 481
c0 -16 -13 -35 -26 -45c-3 -2 -4 -4 -4 -7c0 -4 2 -7 5 -13l17 -34c4 -7 6 -11 6 -14c0 -5 -4 -8 -11 -8h-16c-4 0 -7 2 -9 6l-23 53c-2 4 -5 6 -9 6h-25c-7 0 -10 -3 -10 -10v-45c0 -7 -3 -10 -10 -10h-11c-7 0 -10 3 -10 10v168c0 7 3 10 10 10h63c38 0 63 -25 63 -63v-4z
M272 485v3c0 18 -13 32 -31 32h-32c-7 0 -10 -3 -10 -10v-47c0 -7 3 -10 10 -10h32c18 0 31 14 31 32z" />
    <glyph glyph-name="minus" unicode="&#x2212;" 
d="M468 210c0 -7 -3 -10 -10 -10h-409c-7 0 -10 3 -10 10v66c0 7 3 10 10 10h409c7 0 10 -3 10 -10v-66z" />
    <glyph glyph-name="eth" unicode="&#xf0;" horiz-adv-x="459" 
d="M416 167c0 -104 -73 -177 -186 -177c-114 0 -187 73 -187 177v124c0 92 57 159 149 174l-38 38l-97 -38c-7 -3 -14 0 -14 5v34c0 7 1 14 6 16l63 25l-71 72c-6 6 1 13 10 13h101c6 0 6 -3 10 -7l42 -42l107 42c5 2 14 0 14 -6v-37c0 -5 -2 -11 -8 -13l-72 -28l137 -135
c22 -29 34 -70 34 -113v-124zM301 167v124c0 40 -31 72 -71 72c-41 0 -72 -33 -72 -72v-124c0 -39 31 -72 72 -72c40 0 71 32 71 72z" />
    <glyph glyph-name="multiply" unicode="&#xd7;" 
d="M443 101l-47 -46c-5 -5 -9 -5 -14 0l-121 121c-5 5 -9 5 -14 0l-121 -122c-5 -5 -10 -5 -15 0l-46 47c-5 5 -5 9 0 14l121 121c5 5 5 10 0 15l-121 121c-5 5 -5 9 0 14l46 47c5 5 10 5 15 0l121 -122c5 -5 9 -5 14 0l121 121c5 5 9 5 14 0l47 -46c5 -5 5 -10 0 -15
l-121 -120c-5 -5 -5 -10 0 -15l121 -120c5 -5 5 -10 0 -15z" />
    <glyph glyph-name="threesuperior" unicode="&#xb3;" horiz-adv-x="335" 
d="M306 335c0 -76 -52 -124 -134 -124h-18c-63 0 -98 24 -126 77c-2 3 -3 9 2 11l66 31c4 2 8 -1 10 -4c14 -24 31 -37 52 -37h14c27 0 44 18 44 41v21c0 23 -16 38 -44 38h-62c-4 0 -7 2 -7 7v67c0 4 3 6 7 6h62c28 0 44 16 44 38v11c0 22 -17 39 -44 39h-14
c-21 0 -38 -12 -52 -36c-2 -4 -6 -7 -11 -4l-65 30c-5 3 -4 8 -2 11c28 53 63 78 126 78h18c82 0 134 -49 134 -124v-11c0 -28 -18 -53 -36 -65c-4 -4 -3 -6 0 -8c18 -12 36 -38 36 -75v-18z" />
    <glyph glyph-name="copyright" unicode="&#xa9;" horiz-adv-x="707" 
d="M626 117c0 -104 -73 -177 -186 -177h-172c-114 0 -186 73 -186 177v276c0 104 72 177 186 177h172c113 0 186 -73 186 -177v-276zM554 117v276c0 62 -45 105 -114 105h-172c-70 0 -115 -43 -115 -105v-276c0 -62 45 -105 115 -105h172c69 0 114 43 114 105zM480 167
c0 -3 -4 -16 -22 -37c-23 -28 -54 -45 -105 -45c-82 0 -136 53 -136 129v94c0 77 54 127 136 127c52 0 82 -18 106 -46c14 -16 21 -29 21 -33s-2 -7 -6 -9l-40 -20c-6 -3 -13 -7 -16 -7s-6 2 -8 5c-20 29 -38 39 -57 39c-32 0 -57 -24 -57 -56v-94c0 -32 25 -56 57 -56
c19 0 37 11 57 40c2 3 5 5 8 5s8 -3 14 -6l42 -21c4 -2 6 -5 6 -9z" />
    <glyph glyph-name="Aacute" unicode="&#xc1;" horiz-adv-x="450" 
d="M385 807l-133 -109c-7 -6 -13 -7 -21 -7h-59c-8 0 -12 6 -6 14l83 108c5 6 9 10 18 10h113c9 0 11 -11 5 -16zM458 8c0 -5 -4 -8 -11 -8h-101c-5 0 -9 2 -10 7l-30 105c-1 5 -5 6 -10 6h-143c-5 0 -9 -1 -10 -6l-30 -105c-1 -5 -5 -7 -10 -7h-100c-7 0 -11 3 -11 8
c0 4 3 10 5 18l182 597c1 5 5 7 10 7h72c5 0 9 -2 10 -7l182 -597c2 -6 5 -14 5 -18zM272 232c0 4 -3 13 -5 19l-29 117c-2 7 -9 47 -11 55h-3c-2 -8 -10 -47 -12 -55l-30 -116c-2 -7 -5 -16 -5 -20c0 -5 4 -9 11 -9h73c7 0 11 4 11 9z" />
    <glyph glyph-name="Acircumflex" unicode="&#xc2;" horiz-adv-x="450" 
d="M347 698c5 -7 2 -13 -6 -13h-66c-6 0 -10 3 -14 9l-30 50c-3 5 -8 5 -11 0l-30 -50c-4 -6 -8 -9 -14 -9h-66c-8 0 -11 6 -6 13l92 127c3 4 6 6 12 6h35c6 0 9 -2 12 -6zM458 8c0 -5 -4 -8 -11 -8h-101c-5 0 -9 2 -10 7l-30 105c-1 5 -5 6 -10 6h-143c-5 0 -9 -1 -10 -6
l-30 -105c-1 -5 -5 -7 -10 -7h-100c-7 0 -11 3 -11 8c0 4 3 10 5 18l182 597c1 5 5 7 10 7h72c5 0 9 -2 10 -7l182 -597c2 -6 5 -14 5 -18zM272 232c0 4 -3 13 -5 19l-29 117c-2 7 -9 47 -11 55h-3c-2 -8 -10 -47 -12 -55l-30 -116c-2 -7 -5 -16 -5 -20c0 -5 4 -9 11 -9h73
c7 0 11 4 11 9z" />
    <glyph glyph-name="Adieresis" unicode="&#xc4;" horiz-adv-x="450" 
d="M360 755c0 -31 -24 -55 -55 -55s-56 24 -56 55s25 55 56 55s55 -24 55 -55zM201 755c0 -31 -24 -55 -55 -55s-56 24 -56 55s25 55 56 55s55 -24 55 -55zM458 8c0 -5 -4 -8 -11 -8h-101c-5 0 -9 2 -10 7l-30 105c-1 5 -5 6 -10 6h-143c-5 0 -9 -1 -10 -6l-30 -105
c-1 -5 -5 -7 -10 -7h-100c-7 0 -11 3 -11 8c0 4 3 10 5 18l182 597c1 5 5 7 10 7h72c5 0 9 -2 10 -7l182 -597c2 -6 5 -14 5 -18zM272 232c0 4 -3 13 -5 19l-29 117c-2 7 -9 47 -11 55h-3c-2 -8 -10 -47 -12 -55l-30 -116c-2 -7 -5 -16 -5 -20c0 -5 4 -9 11 -9h73
c7 0 11 4 11 9z" />
    <glyph glyph-name="Agrave" unicode="&#xc0;" horiz-adv-x="450" 
d="M285 705c6 -8 2 -14 -6 -14h-59c-8 0 -14 1 -21 7l-133 109c-6 5 -4 16 5 16h113c9 0 13 -4 18 -10zM458 8c0 -5 -4 -8 -11 -8h-101c-5 0 -9 2 -10 7l-30 105c-1 5 -5 6 -10 6h-143c-5 0 -9 -1 -10 -6l-30 -105c-1 -5 -5 -7 -10 -7h-100c-7 0 -11 3 -11 8c0 4 3 10 5 18
l182 597c1 5 5 7 10 7h72c5 0 9 -2 10 -7l182 -597c2 -6 5 -14 5 -18zM272 232c0 4 -3 13 -5 19l-29 117c-2 7 -9 47 -11 55h-3c-2 -8 -10 -47 -12 -55l-30 -116c-2 -7 -5 -16 -5 -20c0 -5 4 -9 11 -9h73c7 0 11 4 11 9z" />
    <glyph glyph-name="Aring" unicode="&#xc5;" horiz-adv-x="450" 
d="M458 8c0 -5 -4 -8 -11 -8h-101c-5 0 -9 2 -10 7l-30 105c-1 5 -5 6 -10 6h-143c-5 0 -9 -1 -10 -6l-30 -105c-1 -5 -5 -7 -10 -7h-100c-7 0 -11 3 -11 8c0 4 3 10 5 18l161 527c2 7 3 12 3 16c0 5 -2 9 -7 13c-19 17 -29 41 -29 70v29c0 56 39 95 100 95s100 -39 100 -95
v-29c0 -30 -11 -54 -30 -71c-5 -4 -7 -7 -7 -11s1 -8 4 -17l161 -527c2 -6 5 -14 5 -18zM254 652v29c0 15 -14 29 -29 29s-29 -14 -29 -29v-29c0 -15 14 -28 29 -28s29 13 29 28zM272 232c0 4 -3 13 -5 19l-29 117c-2 7 -9 47 -11 55h-3c-2 -8 -10 -47 -12 -55l-30 -116
c-2 -7 -5 -16 -5 -20c0 -5 4 -9 11 -9h73c7 0 11 4 11 9z" />
    <glyph glyph-name="Atilde" unicode="&#xc3;" horiz-adv-x="450" 
d="M368 768c-30 -53 -67 -66 -99 -66c-35 0 -63 31 -91 31c-18 0 -33 -6 -46 -27c-4 -7 -9 -8 -15 -3l-31 22c-4 3 -6 8 -3 13c30 54 61 66 96 66c40 0 63 -30 91 -30c17 0 30 6 48 28c5 6 8 9 14 4l33 -24c4 -3 6 -9 3 -14zM458 8c0 -5 -4 -8 -11 -8h-101c-5 0 -9 2 -10 7
l-30 105c-1 5 -5 6 -10 6h-143c-5 0 -9 -1 -10 -6l-30 -105c-1 -5 -5 -7 -10 -7h-100c-7 0 -11 3 -11 8c0 4 3 10 5 18l182 597c1 5 5 7 10 7h72c5 0 9 -2 10 -7l182 -597c2 -6 5 -14 5 -18zM272 232c0 4 -3 13 -5 19l-29 117c-2 7 -9 47 -11 55h-3c-2 -8 -10 -47 -12 -55
l-30 -116c-2 -7 -5 -16 -5 -20c0 -5 4 -9 11 -9h73c7 0 11 4 11 9z" />
    <glyph glyph-name="Ccedilla" unicode="&#xc7;" horiz-adv-x="484" 
d="M465 108c0 -6 -10 -22 -19 -37c-28 -44 -69 -77 -143 -81c-13 -1 -16 -5 -16 -15c0 -3 1 -5 4 -7c26 -14 42 -40 42 -72v-8c0 -62 -49 -103 -111 -103h-59c-7 0 -10 3 -10 10v66c0 7 3 10 10 10h59c9 0 18 8 18 17v8c0 9 -9 18 -18 18h-40c-7 0 -10 3 -10 8
c0 4 3 10 8 20l15 32c3 6 4 9 4 12s-1 7 -10 9c-85 18 -136 84 -136 172v296c0 104 72 177 186 177h49c83 0 128 -34 158 -81c9 -15 19 -31 19 -37c0 -3 -2 -5 -6 -7l-80 -41c-4 -2 -8 -5 -12 -5c-3 0 -6 2 -8 7c-18 43 -44 59 -71 59h-49c-39 0 -72 -33 -72 -72v-296
c0 -39 33 -72 72 -72h49c27 0 53 16 71 59c2 5 5 7 8 7c4 0 8 -3 12 -5l80 -41c4 -2 6 -4 6 -7z" />
    <glyph glyph-name="Eacute" unicode="&#xc9;" horiz-adv-x="478" 
d="M414 807l-133 -109c-7 -6 -13 -7 -21 -7h-59c-8 0 -12 6 -6 14l83 108c5 6 9 10 18 10h113c9 0 11 -11 5 -16zM440 10c0 -7 -3 -10 -10 -10h-353c-7 0 -10 3 -10 10v610c0 7 3 10 10 10h353c7 0 10 -3 10 -10v-85c0 -7 -3 -10 -10 -10h-238c-7 0 -10 -3 -10 -10v-133
c0 -7 3 -10 10 -10h195c7 0 10 -3 10 -10v-85c0 -7 -3 -10 -10 -10h-195c-7 0 -10 -3 -10 -10v-142c0 -7 3 -10 10 -10h238c7 0 10 -3 10 -10v-85z" />
    <glyph glyph-name="Ecircumflex" unicode="&#xca;" horiz-adv-x="478" 
d="M376 698c5 -7 2 -13 -6 -13h-66c-6 0 -10 3 -14 9l-30 50c-3 5 -8 5 -11 0l-30 -50c-4 -6 -8 -9 -14 -9h-66c-8 0 -11 6 -6 13l92 127c3 4 6 6 12 6h35c6 0 9 -2 12 -6zM440 10c0 -7 -3 -10 -10 -10h-353c-7 0 -10 3 -10 10v610c0 7 3 10 10 10h353c7 0 10 -3 10 -10v-85
c0 -7 -3 -10 -10 -10h-238c-7 0 -10 -3 -10 -10v-133c0 -7 3 -10 10 -10h195c7 0 10 -3 10 -10v-85c0 -7 -3 -10 -10 -10h-195c-7 0 -10 -3 -10 -10v-142c0 -7 3 -10 10 -10h238c7 0 10 -3 10 -10v-85z" />
    <glyph glyph-name="Edieresis" unicode="&#xcb;" horiz-adv-x="478" 
d="M390 755c0 -31 -24 -55 -55 -55s-56 24 -56 55s25 55 56 55s55 -24 55 -55zM231 755c0 -31 -24 -55 -55 -55s-56 24 -56 55s25 55 56 55s55 -24 55 -55zM440 10c0 -7 -3 -10 -10 -10h-353c-7 0 -10 3 -10 10v610c0 7 3 10 10 10h353c7 0 10 -3 10 -10v-85
c0 -7 -3 -10 -10 -10h-238c-7 0 -10 -3 -10 -10v-133c0 -7 3 -10 10 -10h195c7 0 10 -3 10 -10v-85c0 -7 -3 -10 -10 -10h-195c-7 0 -10 -3 -10 -10v-142c0 -7 3 -10 10 -10h238c7 0 10 -3 10 -10v-85z" />
    <glyph glyph-name="Egrave" unicode="&#xc8;" horiz-adv-x="478" 
d="M314 705c6 -8 2 -14 -6 -14h-59c-8 0 -14 1 -21 7l-133 109c-6 5 -4 16 5 16h113c9 0 13 -4 18 -10zM440 10c0 -7 -3 -10 -10 -10h-353c-7 0 -10 3 -10 10v610c0 7 3 10 10 10h353c7 0 10 -3 10 -10v-85c0 -7 -3 -10 -10 -10h-238c-7 0 -10 -3 -10 -10v-133
c0 -7 3 -10 10 -10h195c7 0 10 -3 10 -10v-85c0 -7 -3 -10 -10 -10h-195c-7 0 -10 -3 -10 -10v-142c0 -7 3 -10 10 -10h238c7 0 10 -3 10 -10v-85z" />
    <glyph glyph-name="Iacute" unicode="&#xcd;" horiz-adv-x="249" 
d="M284 807l-133 -109c-7 -6 -13 -7 -21 -7h-59c-8 0 -12 6 -6 14l83 108c5 6 9 10 18 10h113c9 0 11 -11 5 -16zM182 10c0 -7 -3 -10 -10 -10h-95c-7 0 -10 3 -10 10v610c0 7 3 10 10 10h95c7 0 10 -3 10 -10v-610z" />
    <glyph glyph-name="Icircumflex" unicode="&#xce;" horiz-adv-x="249" 
d="M246 698c5 -7 2 -13 -6 -13h-66c-6 0 -10 3 -14 9l-30 50c-3 5 -8 5 -11 0l-30 -50c-4 -6 -8 -9 -14 -9h-66c-8 0 -11 6 -6 13l92 127c3 4 6 6 12 6h35c6 0 9 -2 12 -6zM182 10c0 -7 -3 -10 -10 -10h-95c-7 0 -10 3 -10 10v610c0 7 3 10 10 10h95c7 0 10 -3 10 -10v-610z
" />
    <glyph glyph-name="Idieresis" unicode="&#xcf;" horiz-adv-x="249" 
d="M260 755c0 -31 -24 -55 -55 -55s-56 24 -56 55s25 55 56 55s55 -24 55 -55zM101 755c0 -31 -24 -55 -55 -55s-56 24 -56 55s25 55 56 55s55 -24 55 -55zM182 10c0 -7 -3 -10 -10 -10h-95c-7 0 -10 3 -10 10v610c0 7 3 10 10 10h95c7 0 10 -3 10 -10v-610z" />
    <glyph glyph-name="Igrave" unicode="&#xcc;" horiz-adv-x="249" 
d="M184 705c6 -8 2 -14 -6 -14h-59c-8 0 -14 1 -21 7l-133 109c-6 5 -4 16 5 16h113c9 0 13 -4 18 -10zM182 10c0 -7 -3 -10 -10 -10h-95c-7 0 -10 3 -10 10v610c0 7 3 10 10 10h95c7 0 10 -3 10 -10v-610z" />
    <glyph glyph-name="Ntilde" unicode="&#xd1;" horiz-adv-x="550" 
d="M415 768c-30 -53 -67 -66 -99 -66c-35 0 -63 31 -91 31c-18 0 -33 -6 -46 -27c-4 -7 -9 -8 -15 -3l-31 22c-4 3 -6 8 -3 13c30 54 61 66 96 66c40 0 63 -30 91 -30c17 0 30 6 48 28c5 6 8 9 14 4l33 -24c4 -3 6 -9 3 -14zM482 10c0 -7 -3 -10 -10 -10h-83c-4 0 -7 2 -9 5
l-179 326c-4 7 -18 43 -21 51l-4 -1c2 -24 6 -168 6 -247v-124c0 -7 -3 -10 -10 -10h-95c-7 0 -10 3 -10 10v610c0 7 3 10 10 10h84c4 0 7 -2 9 -5l179 -328c4 -7 18 -43 21 -51l4 1c-2 24 -6 168 -6 247v126c0 7 3 10 10 10h94c7 0 10 -3 10 -10v-610z" />
    <glyph glyph-name="Oacute" unicode="&#xd3;" horiz-adv-x="527" 
d="M423 807l-133 -109c-7 -6 -13 -7 -21 -7h-59c-8 0 -12 6 -6 14l83 108c5 6 9 10 18 10h113c9 0 11 -11 5 -16zM474 167c0 -104 -73 -177 -186 -177h-49c-114 0 -186 73 -186 177v296c0 104 72 177 186 177h49c113 0 186 -73 186 -177v-296zM359 167v296
c0 40 -31 72 -71 72h-49c-39 0 -72 -33 -72 -72v-296c0 -39 33 -72 72 -72h49c40 0 71 32 71 72z" />
    <glyph glyph-name="Ocircumflex" unicode="&#xd4;" horiz-adv-x="527" 
d="M385 698c5 -7 2 -13 -6 -13h-66c-6 0 -10 3 -14 9l-30 50c-3 5 -8 5 -11 0l-30 -50c-4 -6 -8 -9 -14 -9h-66c-8 0 -11 6 -6 13l92 127c3 4 6 6 12 6h35c6 0 9 -2 12 -6zM474 167c0 -104 -73 -177 -186 -177h-49c-114 0 -186 73 -186 177v296c0 104 72 177 186 177h49
c113 0 186 -73 186 -177v-296zM359 167v296c0 40 -31 72 -71 72h-49c-39 0 -72 -33 -72 -72v-296c0 -39 33 -72 72 -72h49c40 0 71 32 71 72z" />
    <glyph glyph-name="Odieresis" unicode="&#xd6;" horiz-adv-x="527" 
d="M399 755c0 -31 -24 -55 -55 -55s-56 24 -56 55s25 55 56 55s55 -24 55 -55zM240 755c0 -31 -24 -55 -55 -55s-56 24 -56 55s25 55 56 55s55 -24 55 -55zM474 167c0 -104 -73 -177 -186 -177h-49c-114 0 -186 73 -186 177v296c0 104 72 177 186 177h49
c113 0 186 -73 186 -177v-296zM359 167v296c0 40 -31 72 -71 72h-49c-39 0 -72 -33 -72 -72v-296c0 -39 33 -72 72 -72h49c40 0 71 32 71 72z" />
    <glyph glyph-name="Ograve" unicode="&#xd2;" horiz-adv-x="527" 
d="M323 705c6 -8 2 -14 -6 -14h-59c-8 0 -14 1 -21 7l-133 109c-6 5 -4 16 5 16h113c9 0 13 -4 18 -10zM474 167c0 -104 -73 -177 -186 -177h-49c-114 0 -186 73 -186 177v296c0 104 72 177 186 177h49c113 0 186 -73 186 -177v-296zM359 167v296c0 40 -31 72 -71 72h-49
c-39 0 -72 -33 -72 -72v-296c0 -39 33 -72 72 -72h49c40 0 71 32 71 72z" />
    <glyph glyph-name="Otilde" unicode="&#xd5;" horiz-adv-x="527" 
d="M406 768c-30 -53 -67 -66 -99 -66c-35 0 -63 31 -91 31c-18 0 -33 -6 -46 -27c-4 -7 -9 -8 -15 -3l-31 22c-4 3 -6 8 -3 13c30 54 61 66 96 66c40 0 63 -30 91 -30c17 0 30 6 48 28c5 6 8 9 14 4l33 -24c4 -3 6 -9 3 -14zM474 167c0 -104 -73 -177 -186 -177h-49
c-114 0 -186 73 -186 177v296c0 104 72 177 186 177h49c113 0 186 -73 186 -177v-296zM359 167v296c0 40 -31 72 -71 72h-49c-39 0 -72 -33 -72 -72v-296c0 -39 33 -72 72 -72h49c40 0 71 32 71 72z" />
    <glyph glyph-name="Scaron" unicode="&#x160;" horiz-adv-x="472" 
d="M360 818l-92 -127c-3 -4 -6 -6 -12 -6h-35c-6 0 -9 2 -12 6l-92 127c-5 7 -2 13 6 13h66c6 0 10 -3 14 -9l30 -50c3 -5 8 -5 11 0l30 50c4 6 8 9 14 9h66c8 0 11 -6 6 -13zM437 167c0 -104 -72 -177 -186 -177h-40c-83 0 -128 34 -158 81c-9 15 -19 31 -19 37
c0 3 2 5 6 7l80 41c4 2 8 5 12 5c3 0 6 -2 8 -7c18 -43 44 -59 71 -59h40c39 0 72 33 72 72c0 54 -53 74 -107 99c-79 38 -166 79 -166 197c0 104 72 177 186 177h16c83 0 128 -34 158 -81c9 -15 19 -31 19 -37c0 -3 -2 -5 -6 -7l-80 -41c-4 -2 -8 -5 -12 -5c-3 0 -6 2 -8 7
c-18 43 -44 59 -71 59h-16c-39 0 -72 -33 -72 -72c0 -51 58 -66 116 -93c76 -35 157 -82 157 -203z" />
    <glyph glyph-name="Uacute" unicode="&#xda;" horiz-adv-x="527" 
d="M423 807l-133 -109c-7 -6 -13 -7 -21 -7h-59c-8 0 -12 6 -6 14l83 108c5 6 9 10 18 10h113c9 0 11 -11 5 -16zM474 167c0 -104 -73 -177 -186 -177h-49c-114 0 -186 73 -186 177v453c0 7 3 10 10 10h94c7 0 10 -3 10 -10v-453c0 -39 33 -72 72 -72h49c40 0 71 32 71 72
v453c0 7 3 10 10 10h95c7 0 10 -3 10 -10v-453z" />
    <glyph glyph-name="Ucircumflex" unicode="&#xdb;" horiz-adv-x="527" 
d="M385 698c5 -7 2 -13 -6 -13h-66c-6 0 -10 3 -14 9l-30 50c-3 5 -8 5 -11 0l-30 -50c-4 -6 -8 -9 -14 -9h-66c-8 0 -11 6 -6 13l92 127c3 4 6 6 12 6h35c6 0 9 -2 12 -6zM474 167c0 -104 -73 -177 -186 -177h-49c-114 0 -186 73 -186 177v453c0 7 3 10 10 10h94
c7 0 10 -3 10 -10v-453c0 -39 33 -72 72 -72h49c40 0 71 32 71 72v453c0 7 3 10 10 10h95c7 0 10 -3 10 -10v-453z" />
    <glyph glyph-name="Udieresis" unicode="&#xdc;" horiz-adv-x="527" 
d="M399 755c0 -31 -24 -55 -55 -55s-56 24 -56 55s25 55 56 55s55 -24 55 -55zM240 755c0 -31 -24 -55 -55 -55s-56 24 -56 55s25 55 56 55s55 -24 55 -55zM474 167c0 -104 -73 -177 -186 -177h-49c-114 0 -186 73 -186 177v453c0 7 3 10 10 10h94c7 0 10 -3 10 -10v-453
c0 -39 33 -72 72 -72h49c40 0 71 32 71 72v453c0 7 3 10 10 10h95c7 0 10 -3 10 -10v-453z" />
    <glyph glyph-name="Ugrave" unicode="&#xd9;" horiz-adv-x="527" 
d="M323 705c6 -8 2 -14 -6 -14h-59c-8 0 -14 1 -21 7l-133 109c-6 5 -4 16 5 16h113c9 0 13 -4 18 -10zM474 167c0 -104 -73 -177 -186 -177h-49c-114 0 -186 73 -186 177v453c0 7 3 10 10 10h94c7 0 10 -3 10 -10v-453c0 -39 33 -72 72 -72h49c40 0 71 32 71 72v453
c0 7 3 10 10 10h95c7 0 10 -3 10 -10v-453z" />
    <glyph glyph-name="Yacute" unicode="&#xdd;" horiz-adv-x="450" 
d="M420 807l-133 -109c-7 -6 -13 -7 -21 -7h-59c-8 0 -12 6 -6 14l83 108c5 6 9 10 18 10h113c9 0 11 -11 5 -16zM459 622c0 -4 -4 -10 -7 -16l-163 -305c-5 -10 -7 -16 -7 -28v-263c0 -7 -3 -10 -10 -10h-95c-7 0 -10 3 -10 10v264c0 10 -1 15 -7 27l-163 305
c-4 7 -7 12 -7 16c0 5 4 8 11 8h111c4 0 7 -3 9 -6l95 -196c2 -5 6 -8 9 -8s7 3 9 8l95 196c2 3 5 6 9 6h110c7 0 11 -3 11 -8z" />
    <glyph glyph-name="Ydieresis" unicode="&#x178;" horiz-adv-x="450" 
d="M358 755c0 -31 -24 -55 -55 -55s-56 24 -56 55s25 55 56 55s55 -24 55 -55zM199 755c0 -31 -24 -55 -55 -55s-56 24 -56 55s25 55 56 55s55 -24 55 -55zM459 622c0 -4 -4 -10 -7 -16l-163 -305c-5 -10 -7 -16 -7 -28v-263c0 -7 -3 -10 -10 -10h-95c-7 0 -10 3 -10 10v264
c0 10 -1 15 -7 27l-163 305c-4 7 -7 12 -7 16c0 5 4 8 11 8h111c4 0 7 -3 9 -6l95 -196c2 -5 6 -8 9 -8s7 3 9 8l95 196c2 3 5 6 9 6h110c7 0 11 -3 11 -8z" />
    <glyph glyph-name="Zcaron" unicode="&#x17d;" horiz-adv-x="456" 
d="M333 818l-92 -127c-3 -4 -6 -6 -12 -6h-35c-6 0 -9 2 -12 6l-92 127c-5 7 -2 13 6 13h66c6 0 10 -3 14 -9l30 -50c3 -5 8 -5 11 0l30 50c4 6 8 9 14 9h66c8 0 11 -6 6 -13zM409 622c0 -4 -3 -9 -7 -19l-213 -473c-4 -8 -6 -13 -6 -17c0 -5 3 -8 10 -8h203
c7 0 10 -3 10 -10v-85c0 -7 -3 -10 -10 -10h-375c-7 0 -10 3 -10 8c0 4 3 10 7 19l211 471c4 8 7 16 7 19c0 5 -3 8 -10 8h-182c-7 0 -10 3 -10 10v85c0 7 3 10 10 10h355c7 0 10 -3 10 -8z" />
    <glyph glyph-name="aacute" unicode="&#xe1;" horiz-adv-x="465" 
d="M403 672c0 -5 -3 -8 -7 -12l-142 -140c-5 -4 -10 -7 -16 -7h-68c-7 0 -10 3 -10 8c0 4 3 8 6 13l90 138c3 5 9 8 14 8h122c7 0 11 -3 11 -8zM408 10c0 -7 -3 -10 -10 -10h-85c-7 0 -10 2 -10 8c0 8 -2 13 -7 13c-3 0 -6 -1 -9 -3c-22 -12 -42 -18 -61 -18h-38
c-79 0 -141 54 -141 134v5c0 82 62 134 141 134h96c7 0 10 4 10 10v12c0 39 -32 68 -73 68c-24 0 -49 -15 -73 -57c-2 -4 -5 -6 -8 -6c-4 0 -8 3 -12 5l-76 40c-4 2 -6 4 -6 7c0 5 11 25 21 40c32 48 77 76 154 76c114 0 187 -72 187 -176v-282zM294 161v16h-106
c-15 0 -27 -13 -27 -28v-15c0 -16 11 -29 27 -29h38c32 0 63 27 68 56z" />
    <glyph glyph-name="acircumflex" unicode="&#xe2;" horiz-adv-x="465" 
d="M373 521c0 -5 -4 -8 -11 -8h-81c-3 0 -6 2 -8 5l-33 51c-2 4 -5 6 -8 6c-2 0 -5 -2 -7 -6l-32 -51c-2 -3 -5 -5 -8 -5h-81c-7 0 -11 3 -11 8c0 3 1 5 3 8l104 147c2 2 5 4 8 4h49c3 0 6 -2 8 -4l105 -147c2 -3 3 -6 3 -8zM408 10c0 -7 -3 -10 -10 -10h-85
c-7 0 -10 2 -10 8c0 8 -2 13 -7 13c-3 0 -6 -1 -9 -3c-22 -12 -42 -18 -61 -18h-38c-79 0 -141 54 -141 134v5c0 82 62 134 141 134h96c7 0 10 4 10 10v12c0 39 -32 68 -73 68c-24 0 -49 -15 -73 -57c-2 -4 -5 -6 -8 -6c-4 0 -8 3 -12 5l-76 40c-4 2 -6 4 -6 7
c0 5 11 25 21 40c32 48 77 76 154 76c114 0 187 -72 187 -176v-282zM294 161v16h-106c-15 0 -27 -13 -27 -28v-15c0 -16 11 -29 27 -29h38c32 0 63 27 68 56z" />
    <glyph glyph-name="adieresis" unicode="&#xe4;" horiz-adv-x="465" 
d="M379 594c0 -35 -27 -62 -62 -62s-62 27 -62 62s27 62 62 62s62 -27 62 -62zM210 594c0 -35 -27 -62 -62 -62s-62 27 -62 62s27 62 62 62s62 -27 62 -62zM408 10c0 -7 -3 -10 -10 -10h-85c-7 0 -10 2 -10 8c0 8 -2 13 -7 13c-3 0 -6 -1 -9 -3c-22 -12 -42 -18 -61 -18h-38
c-79 0 -141 54 -141 134v5c0 82 62 134 141 134h96c7 0 10 4 10 10v12c0 39 -32 68 -73 68c-24 0 -49 -15 -73 -57c-2 -4 -5 -6 -8 -6c-4 0 -8 3 -12 5l-76 40c-4 2 -6 4 -6 7c0 5 11 25 21 40c32 48 77 76 154 76c114 0 187 -72 187 -176v-282zM294 161v16h-106
c-15 0 -27 -13 -27 -28v-15c0 -16 11 -29 27 -29h38c32 0 63 27 68 56z" />
    <glyph glyph-name="agrave" unicode="&#xe0;" horiz-adv-x="465" 
d="M304 521c0 -5 -3 -8 -10 -8h-68c-6 0 -11 3 -16 7l-142 140c-4 4 -7 7 -7 12s4 8 11 8h122c5 0 11 -3 14 -8l90 -138c3 -5 6 -9 6 -13zM408 10c0 -7 -3 -10 -10 -10h-85c-7 0 -10 2 -10 8c0 8 -2 13 -7 13c-3 0 -6 -1 -9 -3c-22 -12 -42 -18 -61 -18h-38
c-79 0 -141 54 -141 134v5c0 82 62 134 141 134h96c7 0 10 4 10 10v12c0 39 -32 68 -73 68c-24 0 -49 -15 -73 -57c-2 -4 -5 -6 -8 -6c-4 0 -8 3 -12 5l-76 40c-4 2 -6 4 -6 7c0 5 11 25 21 40c32 48 77 76 154 76c114 0 187 -72 187 -176v-282zM294 161v16h-106
c-15 0 -27 -13 -27 -28v-15c0 -16 11 -29 27 -29h38c32 0 63 27 68 56z" />
    <glyph glyph-name="aring" unicode="&#xe5;" horiz-adv-x="465" 
d="M332 608c0 -56 -39 -95 -100 -95s-100 39 -100 95v29c0 56 39 95 100 95s100 -39 100 -95v-29zM408 10c0 -7 -3 -10 -10 -10h-85c-7 0 -10 2 -10 8c0 8 -2 13 -7 13c-3 0 -6 -1 -9 -3c-22 -12 -42 -18 -61 -18h-38c-79 0 -141 54 -141 134v5c0 82 62 134 141 134h96
c7 0 10 4 10 10v12c0 39 -32 68 -73 68c-24 0 -49 -15 -73 -57c-2 -4 -5 -6 -8 -6c-4 0 -8 3 -12 5l-76 40c-4 2 -6 4 -6 7c0 5 11 25 21 40c32 48 77 76 154 76c114 0 187 -72 187 -176v-282zM261 608v29c0 15 -14 29 -29 29s-29 -14 -29 -29v-29c0 -15 14 -28 29 -28
s29 13 29 28zM294 161v16h-106c-15 0 -27 -13 -27 -28v-15c0 -16 11 -29 27 -29h38c32 0 63 27 68 56z" />
    <glyph glyph-name="atilde" unicode="&#xe3;" horiz-adv-x="465" 
d="M385 614c0 -4 -7 -17 -18 -34c-26 -38 -54 -55 -84 -55c-22 0 -43 13 -69 29l-18 11c-8 5 -18 10 -26 10c-13 0 -25 -7 -41 -31c-2 -4 -5 -6 -8 -6s-8 4 -14 9l-34 25c-3 2 -4 4 -4 8s5 14 14 28c27 42 55 58 87 58c23 0 44 -9 68 -26l17 -12c8 -6 20 -11 28 -11
c13 0 26 6 43 34c2 4 5 6 8 6c4 0 7 -3 11 -6l36 -29c3 -2 4 -5 4 -8zM408 10c0 -7 -3 -10 -10 -10h-85c-7 0 -10 2 -10 8c0 8 -2 13 -7 13c-3 0 -6 -1 -9 -3c-22 -12 -42 -18 -61 -18h-38c-79 0 -141 54 -141 134v5c0 82 62 134 141 134h96c7 0 10 4 10 10v12
c0 39 -32 68 -73 68c-24 0 -49 -15 -73 -57c-2 -4 -5 -6 -8 -6c-4 0 -8 3 -12 5l-76 40c-4 2 -6 4 -6 7c0 5 11 25 21 40c32 48 77 76 154 76c114 0 187 -72 187 -176v-282zM294 161v16h-106c-15 0 -27 -13 -27 -28v-15c0 -16 11 -29 27 -29h38c32 0 63 27 68 56z" />
    <glyph glyph-name="ccedilla" unicode="&#xe7;" horiz-adv-x="429" 
d="M407 108c0 -4 -7 -17 -15 -30c-28 -46 -66 -80 -137 -87c1 0 -1 -3 -1 -3c-2 -5 -5 -10 -5 -13s1 -5 4 -7c26 -14 42 -40 42 -72v-8c0 -62 -49 -103 -111 -103h-59c-7 0 -10 3 -10 10v66c0 7 3 10 10 10h59c9 0 18 8 18 17v8c0 9 -9 18 -18 18h-40c-7 0 -10 3 -10 8
c0 4 3 10 8 20l27 56c-79 21 -126 85 -126 169v124c0 104 73 177 187 177c87 0 131 -37 162 -88c8 -13 15 -26 15 -30c0 -3 -2 -6 -6 -8l-75 -37c-8 -4 -14 -7 -17 -7s-6 2 -8 6c-18 43 -45 59 -71 59c-41 0 -72 -33 -72 -72v-124c0 -39 31 -72 72 -72c26 0 53 16 71 59
c2 4 5 6 8 6s9 -3 17 -7l75 -37c4 -2 6 -5 6 -8z" />
    <glyph glyph-name="eacute" unicode="&#xe9;" horiz-adv-x="459" 
d="M401 672c0 -5 -3 -8 -7 -12l-142 -140c-5 -4 -10 -7 -16 -7h-68c-7 0 -10 3 -10 8c0 4 3 8 6 13l90 138c3 5 9 8 14 8h122c7 0 11 -3 11 -8zM416 210c0 -7 -3 -10 -10 -10h-238c-7 0 -10 -3 -10 -10v-23c0 -39 31 -72 72 -72c26 0 53 16 71 59c2 4 5 6 8 6s9 -3 17 -7
l75 -37c4 -2 6 -5 6 -8c0 -4 -7 -17 -15 -30c-31 -51 -75 -88 -162 -88c-114 0 -187 73 -187 177v124c0 83 73 177 187 177c113 0 186 -94 186 -177v-81zM300 305c0 12 -20 58 -70 58c-49 0 -71 -45 -71 -58c0 -5 4 -9 11 -9h119c7 0 11 4 11 9z" />
    <glyph glyph-name="ecircumflex" unicode="&#xea;" horiz-adv-x="459" 
d="M371 521c0 -5 -4 -8 -11 -8h-81c-3 0 -6 2 -8 5l-33 51c-2 4 -5 6 -8 6c-2 0 -5 -2 -7 -6l-32 -51c-2 -3 -5 -5 -8 -5h-81c-7 0 -11 3 -11 8c0 3 1 5 3 8l104 147c2 2 5 4 8 4h49c3 0 6 -2 8 -4l105 -147c2 -3 3 -6 3 -8zM416 210c0 -7 -3 -10 -10 -10h-238
c-7 0 -10 -3 -10 -10v-23c0 -39 31 -72 72 -72c26 0 53 16 71 59c2 4 5 6 8 6s9 -3 17 -7l75 -37c4 -2 6 -5 6 -8c0 -4 -7 -17 -15 -30c-31 -51 -75 -88 -162 -88c-114 0 -187 73 -187 177v124c0 83 73 177 187 177c113 0 186 -94 186 -177v-81zM300 305c0 12 -20 58 -70 58
c-49 0 -71 -45 -71 -58c0 -5 4 -9 11 -9h119c7 0 11 4 11 9z" />
    <glyph glyph-name="edieresis" unicode="&#xeb;" horiz-adv-x="459" 
d="M377 594c0 -35 -27 -62 -62 -62s-62 27 -62 62s27 62 62 62s62 -27 62 -62zM208 594c0 -35 -27 -62 -62 -62s-62 27 -62 62s27 62 62 62s62 -27 62 -62zM416 210c0 -7 -3 -10 -10 -10h-238c-7 0 -10 -3 -10 -10v-23c0 -39 31 -72 72 -72c26 0 53 16 71 59c2 4 5 6 8 6
s9 -3 17 -7l75 -37c4 -2 6 -5 6 -8c0 -4 -7 -17 -15 -30c-31 -51 -75 -88 -162 -88c-114 0 -187 73 -187 177v124c0 83 73 177 187 177c113 0 186 -94 186 -177v-81zM300 305c0 12 -20 58 -70 58c-49 0 -71 -45 -71 -58c0 -5 4 -9 11 -9h119c7 0 11 4 11 9z" />
    <glyph glyph-name="egrave" unicode="&#xe8;" horiz-adv-x="459" 
d="M302 521c0 -5 -3 -8 -10 -8h-68c-6 0 -11 3 -16 7l-142 140c-4 4 -7 7 -7 12s4 8 11 8h122c5 0 11 -3 14 -8l90 -138c3 -5 6 -9 6 -13zM416 210c0 -7 -3 -10 -10 -10h-238c-7 0 -10 -3 -10 -10v-23c0 -39 31 -72 72 -72c26 0 53 16 71 59c2 4 5 6 8 6s9 -3 17 -7l75 -37
c4 -2 6 -5 6 -8c0 -4 -7 -17 -15 -30c-31 -51 -75 -88 -162 -88c-114 0 -187 73 -187 177v124c0 83 73 177 187 177c113 0 186 -94 186 -177v-81zM300 305c0 12 -20 58 -70 58c-49 0 -71 -45 -71 -58c0 -5 4 -9 11 -9h119c7 0 11 4 11 9z" />
    <glyph glyph-name="iacute" unicode="&#xed;" horiz-adv-x="230" 
d="M285 672c0 -5 -3 -8 -7 -12l-142 -140c-5 -4 -10 -7 -16 -7h-68c-7 0 -10 3 -10 8c0 4 3 8 6 13l90 138c3 5 9 8 14 8h122c7 0 11 -3 11 -8zM172 10c0 -7 -3 -10 -10 -10h-94c-7 0 -10 3 -10 10v438c0 7 3 10 10 10h94c7 0 10 -3 10 -10v-438z" />
    <glyph glyph-name="icircumflex" unicode="&#xee;" horiz-adv-x="230" 
d="M255 521c0 -5 -4 -8 -11 -8h-81c-3 0 -6 2 -8 5l-33 51c-2 4 -5 6 -8 6c-2 0 -5 -2 -7 -6l-32 -51c-2 -3 -5 -5 -8 -5h-81c-7 0 -11 3 -11 8c0 3 1 5 3 8l104 147c2 2 5 4 8 4h49c3 0 6 -2 8 -4l105 -147c2 -3 3 -6 3 -8zM172 10c0 -7 -3 -10 -10 -10h-94
c-7 0 -10 3 -10 10v438c0 7 3 10 10 10h94c7 0 10 -3 10 -10v-438z" />
    <glyph glyph-name="idieresis" unicode="&#xef;" horiz-adv-x="230" 
d="M261 594c0 -35 -27 -62 -62 -62s-62 27 -62 62s27 62 62 62s62 -27 62 -62zM92 594c0 -35 -27 -62 -62 -62s-62 27 -62 62s27 62 62 62s62 -27 62 -62zM172 10c0 -7 -3 -10 -10 -10h-94c-7 0 -10 3 -10 10v438c0 7 3 10 10 10h94c7 0 10 -3 10 -10v-438z" />
    <glyph glyph-name="igrave" unicode="&#xec;" horiz-adv-x="230" 
d="M186 521c0 -5 -3 -8 -10 -8h-68c-6 0 -11 3 -16 7l-142 140c-4 4 -7 7 -7 12s4 8 11 8h122c5 0 11 -3 14 -8l90 -138c3 -5 6 -9 6 -13zM172 10c0 -7 -3 -10 -10 -10h-94c-7 0 -10 3 -10 10v438c0 7 3 10 10 10h94c7 0 10 -3 10 -10v-438z" />
    <glyph glyph-name="ntilde" unicode="&#xf1;" horiz-adv-x="488" 
d="M404 614c0 -4 -7 -17 -18 -34c-26 -38 -54 -55 -84 -55c-22 0 -43 13 -69 29l-18 11c-8 5 -18 10 -26 10c-13 0 -25 -7 -41 -31c-2 -4 -5 -6 -8 -6s-8 4 -14 9l-34 25c-3 2 -4 4 -4 8s5 14 14 28c27 42 55 58 87 58c23 0 44 -9 68 -26l17 -12c8 -6 20 -11 28 -11
c13 0 26 6 43 34c2 4 5 6 8 6c4 0 7 -3 11 -6l36 -29c3 -2 4 -5 4 -8zM430 10c0 -7 -3 -10 -10 -10h-95c-7 0 -10 3 -10 10v272c0 40 -31 71 -71 71s-72 -31 -72 -71v-272c0 -7 -3 -10 -10 -10h-94c-7 0 -10 3 -10 10v438c0 7 3 10 10 10h85c7 0 10 -2 10 -9s3 -11 8 -11
c3 0 4 1 7 2c21 11 46 18 66 18c113 0 186 -72 186 -176v-272z" />
    <glyph glyph-name="oacute" unicode="&#xf3;" horiz-adv-x="459" 
d="M403 672c0 -5 -3 -8 -7 -12l-142 -140c-5 -4 -10 -7 -16 -7h-68c-7 0 -10 3 -10 8c0 4 3 8 6 13l90 138c3 5 9 8 14 8h122c7 0 11 -3 11 -8zM416 167c0 -104 -73 -177 -186 -177c-114 0 -187 73 -187 177v124c0 104 73 177 187 177c113 0 186 -73 186 -177v-124zM301 167
v124c0 40 -31 72 -71 72c-41 0 -72 -33 -72 -72v-124c0 -39 31 -72 72 -72c40 0 71 32 71 72z" />
    <glyph glyph-name="ocircumflex" unicode="&#xf4;" horiz-adv-x="459" 
d="M373 521c0 -5 -4 -8 -11 -8h-81c-3 0 -6 2 -8 5l-33 51c-2 4 -5 6 -8 6c-2 0 -5 -2 -7 -6l-32 -51c-2 -3 -5 -5 -8 -5h-81c-7 0 -11 3 -11 8c0 3 1 5 3 8l104 147c2 2 5 4 8 4h49c3 0 6 -2 8 -4l105 -147c2 -3 3 -6 3 -8zM416 167c0 -104 -73 -177 -186 -177
c-114 0 -187 73 -187 177v124c0 104 73 177 187 177c113 0 186 -73 186 -177v-124zM301 167v124c0 40 -31 72 -71 72c-41 0 -72 -33 -72 -72v-124c0 -39 31 -72 72 -72c40 0 71 32 71 72z" />
    <glyph glyph-name="odieresis" unicode="&#xf6;" horiz-adv-x="459" 
d="M379 594c0 -35 -27 -62 -62 -62s-62 27 -62 62s27 62 62 62s62 -27 62 -62zM210 594c0 -35 -27 -62 -62 -62s-62 27 -62 62s27 62 62 62s62 -27 62 -62zM416 167c0 -104 -73 -177 -186 -177c-114 0 -187 73 -187 177v124c0 104 73 177 187 177c113 0 186 -73 186 -177
v-124zM301 167v124c0 40 -31 72 -71 72c-41 0 -72 -33 -72 -72v-124c0 -39 31 -72 72 -72c40 0 71 32 71 72z" />
    <glyph glyph-name="ograve" unicode="&#xf2;" horiz-adv-x="459" 
d="M304 521c0 -5 -3 -8 -10 -8h-68c-6 0 -11 3 -16 7l-142 140c-4 4 -7 7 -7 12s4 8 11 8h122c5 0 11 -3 14 -8l90 -138c3 -5 6 -9 6 -13zM416 167c0 -104 -73 -177 -186 -177c-114 0 -187 73 -187 177v124c0 104 73 177 187 177c113 0 186 -73 186 -177v-124zM301 167v124
c0 40 -31 72 -71 72c-41 0 -72 -33 -72 -72v-124c0 -39 31 -72 72 -72c40 0 71 32 71 72z" />
    <glyph glyph-name="otilde" unicode="&#xf5;" horiz-adv-x="459" 
d="M385 614c0 -4 -7 -17 -18 -34c-26 -38 -54 -55 -84 -55c-22 0 -43 13 -69 29l-18 11c-8 5 -18 10 -26 10c-13 0 -25 -7 -41 -31c-2 -4 -5 -6 -8 -6s-8 4 -14 9l-34 25c-3 2 -4 4 -4 8s5 14 14 28c27 42 55 58 87 58c23 0 44 -9 68 -26l17 -12c8 -6 20 -11 28 -11
c13 0 26 6 43 34c2 4 5 6 8 6c4 0 7 -3 11 -6l36 -29c3 -2 4 -5 4 -8zM416 167c0 -104 -73 -177 -186 -177c-114 0 -187 73 -187 177v124c0 104 73 177 187 177c113 0 186 -73 186 -177v-124zM301 167v124c0 40 -31 72 -71 72c-41 0 -72 -33 -72 -72v-124
c0 -39 31 -72 72 -72c40 0 71 32 71 72z" />
    <glyph glyph-name="scaron" unicode="&#x161;" horiz-adv-x="451" 
d="M361 672c0 -4 -5 -11 -10 -18l-98 -137c-2 -2 -5 -4 -8 -4h-49c-3 0 -6 2 -8 4l-97 137c-6 9 -10 14 -10 18c0 5 4 8 11 8h81c3 0 6 -2 8 -5l32 -51c2 -4 4 -6 7 -6s6 2 8 6l33 51c2 3 5 5 8 5h81c7 0 11 -3 11 -8zM408 352c0 -3 -2 -6 -6 -8l-76 -37c-4 -2 -7 -4 -11 -4
c-3 0 -6 2 -8 6c-15 38 -44 57 -73 57h-29c-38 0 -55 -14 -55 -38c0 -38 55 -36 109 -48c72 -15 147 -40 147 -131c0 -85 -59 -159 -172 -159h-29c-82 0 -127 35 -155 79c-10 16 -18 33 -18 38c0 3 2 6 6 8l72 35c6 3 12 6 15 6s6 -2 8 -7c15 -38 43 -57 72 -57h29
c38 0 58 21 58 43c0 38 -55 35 -110 46c-72 14 -145 39 -145 132c0 98 78 155 168 155h29c80 0 125 -32 153 -74c10 -15 21 -37 21 -42z" />
    <glyph glyph-name="uacute" unicode="&#xfa;" horiz-adv-x="478" 
d="M404 672c0 -5 -3 -8 -7 -12l-142 -140c-5 -4 -10 -7 -16 -7h-68c-7 0 -10 3 -10 8c0 4 3 8 6 13l90 138c3 5 9 8 14 8h122c7 0 11 -3 11 -8zM420 10c0 -7 -3 -10 -10 -10h-85c-7 0 -10 4 -10 9c0 7 -3 11 -8 11c-3 0 -4 -1 -7 -2c-21 -11 -46 -18 -66 -18
c-113 0 -186 73 -186 177v271c0 7 3 10 10 10h95c7 0 10 -3 10 -10v-271c0 -41 31 -72 71 -72c39 0 72 31 72 72v271c0 7 3 10 10 10h94c7 0 10 -3 10 -10v-438z" />
    <glyph glyph-name="ucircumflex" unicode="&#xfb;" horiz-adv-x="478" 
d="M374 521c0 -5 -4 -8 -11 -8h-81c-3 0 -6 2 -8 5l-33 51c-2 4 -5 6 -8 6c-2 0 -5 -2 -7 -6l-32 -51c-2 -3 -5 -5 -8 -5h-81c-7 0 -11 3 -11 8c0 3 1 5 3 8l104 147c2 2 5 4 8 4h49c3 0 6 -2 8 -4l105 -147c2 -3 3 -6 3 -8zM420 10c0 -7 -3 -10 -10 -10h-85
c-7 0 -10 4 -10 9c0 7 -3 11 -8 11c-3 0 -4 -1 -7 -2c-21 -11 -46 -18 -66 -18c-113 0 -186 73 -186 177v271c0 7 3 10 10 10h95c7 0 10 -3 10 -10v-271c0 -41 31 -72 71 -72c39 0 72 31 72 72v271c0 7 3 10 10 10h94c7 0 10 -3 10 -10v-438z" />
    <glyph glyph-name="udieresis" unicode="&#xfc;" horiz-adv-x="478" 
d="M380 594c0 -35 -27 -62 -62 -62s-62 27 -62 62s27 62 62 62s62 -27 62 -62zM211 594c0 -35 -27 -62 -62 -62s-62 27 -62 62s27 62 62 62s62 -27 62 -62zM420 10c0 -7 -3 -10 -10 -10h-85c-7 0 -10 4 -10 9c0 7 -3 11 -8 11c-3 0 -4 -1 -7 -2c-21 -11 -46 -18 -66 -18
c-113 0 -186 73 -186 177v271c0 7 3 10 10 10h95c7 0 10 -3 10 -10v-271c0 -41 31 -72 71 -72c39 0 72 31 72 72v271c0 7 3 10 10 10h94c7 0 10 -3 10 -10v-438z" />
    <glyph glyph-name="ugrave" unicode="&#xf9;" horiz-adv-x="478" 
d="M305 521c0 -5 -3 -8 -10 -8h-68c-6 0 -11 3 -16 7l-142 140c-4 4 -7 7 -7 12s4 8 11 8h122c5 0 11 -3 14 -8l90 -138c3 -5 6 -9 6 -13zM420 10c0 -7 -3 -10 -10 -10h-85c-7 0 -10 4 -10 9c0 7 -3 11 -8 11c-3 0 -4 -1 -7 -2c-21 -11 -46 -18 -66 -18
c-113 0 -186 73 -186 177v271c0 7 3 10 10 10h95c7 0 10 -3 10 -10v-271c0 -41 31 -72 71 -72c39 0 72 31 72 72v271c0 7 3 10 10 10h94c7 0 10 -3 10 -10v-438z" />
    <glyph glyph-name="yacute" unicode="&#xfd;" horiz-adv-x="478" 
d="M404 672c0 -5 -3 -8 -7 -12l-142 -140c-5 -4 -10 -7 -16 -7h-68c-7 0 -10 3 -10 8c0 4 3 8 6 13l90 138c3 5 9 8 14 8h122c7 0 11 -3 11 -8zM420 -49c0 -107 -63 -186 -186 -186c-78 0 -123 30 -153 73c-16 22 -23 39 -23 44c0 3 2 6 6 8l80 40c5 3 8 4 11 4s6 -2 8 -6
c17 -42 44 -58 71 -58c39 0 72 33 72 72v62c0 7 -2 11 -7 11c-3 0 -5 -1 -7 -2c-19 -9 -39 -13 -58 -13c-113 0 -186 73 -186 177v271c0 7 3 10 10 10h95c7 0 10 -3 10 -10v-271c0 -41 31 -72 71 -72c39 0 72 31 72 72v271c0 7 3 10 10 10h94c7 0 10 -3 10 -10v-497z" />
    <glyph glyph-name="ydieresis" unicode="&#xff;" horiz-adv-x="478" 
d="M380 594c0 -35 -27 -62 -62 -62s-62 27 -62 62s27 62 62 62s62 -27 62 -62zM211 594c0 -35 -27 -62 -62 -62s-62 27 -62 62s27 62 62 62s62 -27 62 -62zM420 -49c0 -107 -63 -186 -186 -186c-78 0 -123 30 -153 73c-16 22 -23 39 -23 44c0 3 2 6 6 8l80 40c5 3 8 4 11 4
s6 -2 8 -6c17 -42 44 -58 71 -58c39 0 72 33 72 72v62c0 7 -2 11 -7 11c-3 0 -5 -1 -7 -2c-19 -9 -39 -13 -58 -13c-113 0 -186 73 -186 177v271c0 7 3 10 10 10h95c7 0 10 -3 10 -10v-271c0 -41 31 -72 71 -72c39 0 72 31 72 72v271c0 7 3 10 10 10h94c7 0 10 -3 10 -10
v-497z" />
    <glyph glyph-name="zcaron" unicode="&#x17e;" horiz-adv-x="430" 
d="M352 672c0 -4 -5 -11 -10 -18l-98 -137c-2 -2 -5 -4 -8 -4h-49c-3 0 -6 2 -8 4l-97 137c-6 9 -10 14 -10 18c0 5 4 8 11 8h81c3 0 6 -2 8 -5l32 -51c2 -4 4 -6 7 -6s6 2 8 6l33 51c2 3 5 5 8 5h81c7 0 11 -3 11 -8zM405 449c0 -4 -5 -13 -12 -24l-175 -290
c-7 -11 -11 -18 -11 -22c0 -5 4 -8 11 -8h172c7 0 10 -3 10 -10v-85c0 -7 -3 -10 -10 -10h-372c-7 0 -11 3 -11 8c0 4 4 10 11 22l174 290c7 11 12 20 12 24c0 5 -4 8 -11 8h-154c-7 0 -10 3 -10 10v85c0 7 3 10 10 10h355c7 0 11 -3 11 -8z" />
    <glyph glyph-name="Euro" unicode="&#x20ac;" 
d="M489 105c-11 -23 -23 -43 -39 -61c-30 -33 -71 -54 -137 -54h-49c-114 0 -186 73 -186 177v10c0 6 -4 10 -10 10h-58c-7 0 -10 3 -10 10v76c0 7 3 10 10 10h58c6 0 10 4 10 10v46c0 6 -4 10 -10 10h-58c-7 0 -10 3 -10 10v76c0 7 3 10 10 10h58c6 0 10 4 10 10v8
c0 104 72 177 186 177h49c61 0 101 -18 130 -47c19 -18 33 -41 46 -65c3 -6 1 -11 -5 -14l-87 -43c-6 -3 -10 -1 -13 5c-18 43 -45 59 -71 59h-49c-39 0 -72 -33 -72 -72v-8c0 -6 4 -10 10 -10h117c7 0 10 -3 10 -10v-76c0 -7 -3 -10 -10 -10h-117c-6 0 -10 -4 -10 -10v-46
c0 -6 4 -10 10 -10h117c7 0 10 -3 10 -10v-76c0 -7 -3 -10 -10 -10h-117c-6 0 -10 -4 -10 -10v-10c0 -39 33 -72 72 -72h49c26 0 53 17 71 61c3 6 7 8 13 5l87 -43c6 -3 8 -7 5 -13z" />
    <glyph glyph-name="A.sc" unicode="&#xe000;" horiz-adv-x="444" 
d="M429 10c3 -6 2 -10 -7 -10h-103c-5 0 -6 2 -7 6l-24 72c-2 4 -5 5 -10 5h-113c-6 0 -8 -1 -9 -5l-25 -72c-1 -4 -4 -6 -8 -6h-101c-7 0 -10 4 -8 10l164 486c2 4 3 5 8 5h73c3 0 5 -1 7 -5zM263 172l-25 99c-9 36 -13 79 -14 81h-2c0 -2 -5 -45 -15 -81l-27 -99
c-1 -5 1 -8 8 -8h67c7 0 9 3 8 8z" />
    <glyph glyph-name="AE.sc" unicode="&#xe001;" horiz-adv-x="628" 
d="M580 8c0 -6 -3 -8 -8 -8h-311c-5 0 -8 2 -8 8v89c0 5 -3 9 -9 9h-95c-5 0 -9 -2 -12 -7l-57 -93c-2 -4 -7 -6 -12 -6h-101c-8 0 -12 5 -8 12l309 484c2 3 6 5 13 5h291c5 0 8 -2 8 -8v-82c0 -5 -3 -7 -8 -7h-197c-7 0 -10 -3 -10 -9v-84c0 -5 2 -8 10 -8h161
c5 0 8 -2 8 -7v-83c0 -6 -3 -8 -8 -8h-161c-7 0 -10 -3 -10 -8v-91c0 -5 2 -8 10 -8h197c5 0 8 -2 8 -8v-82zM257 337h-2c-1 -1 -11 -30 -17 -43l-47 -93c-4 -6 -1 -10 5 -10h50c5 0 7 4 7 8v51c0 32 4 82 4 87z" />
    <glyph glyph-name="Aacute.sc" unicode="&#xe002;" horiz-adv-x="444" 
d="M412 716c0 -5 -3 -8 -7 -12l-142 -140c-5 -4 -10 -7 -16 -7h-68c-7 0 -10 3 -10 8c0 4 3 8 6 13l90 138c3 5 9 8 14 8h122c7 0 11 -3 11 -8zM429 10c3 -6 2 -10 -7 -10h-103c-5 0 -6 2 -7 6l-24 72c-2 4 -5 5 -10 5h-113c-6 0 -8 -1 -9 -5l-25 -72c-1 -4 -4 -6 -8 -6
h-101c-7 0 -10 4 -8 10l164 486c2 4 3 5 8 5h73c3 0 5 -1 7 -5zM263 172l-25 99c-9 36 -13 79 -14 81h-2c0 -2 -5 -45 -15 -81l-27 -99c-1 -5 1 -8 8 -8h67c7 0 9 3 8 8z" />
    <glyph glyph-name="Acircumflex.sc" unicode="&#xe003;" horiz-adv-x="444" 
d="M363 565c0 -5 -4 -8 -11 -8h-81c-3 0 -6 2 -8 5l-33 51c-2 4 -5 6 -8 6c-2 0 -5 -2 -7 -6l-32 -51c-2 -3 -5 -5 -8 -5h-81c-7 0 -11 3 -11 8c0 3 1 5 3 8l104 147c2 2 5 4 8 4h49c3 0 6 -2 8 -4l105 -147c2 -3 3 -6 3 -8zM429 10c3 -6 2 -10 -7 -10h-103c-5 0 -6 2 -7 6
l-24 72c-2 4 -5 5 -10 5h-113c-6 0 -8 -1 -9 -5l-25 -72c-1 -4 -4 -6 -8 -6h-101c-7 0 -10 4 -8 10l164 486c2 4 3 5 8 5h73c3 0 5 -1 7 -5zM263 172l-25 99c-9 36 -13 79 -14 81h-2c0 -2 -5 -45 -15 -81l-27 -99c-1 -5 1 -8 8 -8h67c7 0 9 3 8 8z" />
    <glyph glyph-name="Adieresis.sc" unicode="&#xe004;" horiz-adv-x="444" 
d="M370 641c0 -35 -27 -62 -62 -62s-62 27 -62 62s27 62 62 62s62 -27 62 -62zM201 641c0 -35 -27 -62 -62 -62s-62 27 -62 62s27 62 62 62s62 -27 62 -62zM429 10c3 -6 2 -10 -7 -10h-103c-5 0 -6 2 -7 6l-24 72c-2 4 -5 5 -10 5h-113c-6 0 -8 -1 -9 -5l-25 -72
c-1 -4 -4 -6 -8 -6h-101c-7 0 -10 4 -8 10l164 486c2 4 3 5 8 5h73c3 0 5 -1 7 -5zM263 172l-25 99c-9 36 -13 79 -14 81h-2c0 -2 -5 -45 -15 -81l-27 -99c-1 -5 1 -8 8 -8h67c7 0 9 3 8 8z" />
    <glyph glyph-name="Agrave.sc" unicode="&#xe005;" horiz-adv-x="444" 
d="M278 565c0 -5 -3 -8 -10 -8h-68c-6 0 -11 3 -16 7l-142 140c-4 4 -7 7 -7 12s4 8 11 8h122c5 0 11 -3 14 -8l90 -138c3 -5 6 -9 6 -13zM429 10c3 -6 2 -10 -7 -10h-103c-5 0 -6 2 -7 6l-24 72c-2 4 -5 5 -10 5h-113c-6 0 -8 -1 -9 -5l-25 -72c-1 -4 -4 -6 -8 -6h-101
c-7 0 -10 4 -8 10l164 486c2 4 3 5 8 5h73c3 0 5 -1 7 -5zM263 172l-25 99c-9 36 -13 79 -14 81h-2c0 -2 -5 -45 -15 -81l-27 -99c-1 -5 1 -8 8 -8h67c7 0 9 3 8 8z" />
    <glyph glyph-name="Aring.sc" unicode="&#xe006;" horiz-adv-x="444" 
d="M429 10c3 -6 2 -10 -7 -10h-103c-5 0 -6 2 -7 6l-24 72c-2 4 -5 5 -10 5h-113c-6 0 -8 -1 -9 -5l-25 -72c-1 -4 -4 -6 -8 -6h-101c-7 0 -10 4 -8 10l155 459c-30 16 -47 46 -47 83v29c0 56 39 95 100 95s100 -39 100 -95v-29c0 -37 -17 -67 -47 -83zM251 552v29
c0 15 -14 29 -29 29s-29 -14 -29 -29v-29c0 -15 14 -28 29 -28s29 13 29 28zM263 172l-25 99c-9 36 -13 79 -14 81h-2c0 -2 -5 -45 -15 -81l-27 -99c-1 -5 1 -8 8 -8h67c7 0 9 3 8 8z" />
    <glyph glyph-name="Atilde.sc" unicode="&#xe007;" horiz-adv-x="444" 
d="M378 657c0 -4 -7 -17 -18 -34c-26 -38 -54 -55 -84 -55c-22 0 -43 13 -69 29l-18 11c-8 5 -18 10 -26 10c-13 0 -25 -7 -41 -31c-2 -4 -5 -6 -8 -6s-8 4 -14 9l-34 25c-3 2 -4 4 -4 8s5 14 14 28c27 42 55 58 87 58c23 0 44 -9 68 -26l17 -12c8 -6 20 -11 28 -11
c13 0 26 6 43 34c2 4 5 6 8 6c4 0 7 -3 11 -6l36 -29c3 -2 4 -5 4 -8zM429 10c3 -6 2 -10 -7 -10h-103c-5 0 -6 2 -7 6l-24 72c-2 4 -5 5 -10 5h-113c-6 0 -8 -1 -9 -5l-25 -72c-1 -4 -4 -6 -8 -6h-101c-7 0 -10 4 -8 10l164 486c2 4 3 5 8 5h73c3 0 5 -1 7 -5zM263 172
l-25 99c-9 36 -13 79 -14 81h-2c0 -2 -5 -45 -15 -81l-27 -99c-1 -5 1 -8 8 -8h67c7 0 9 3 8 8z" />
    <glyph glyph-name="B.sc" unicode="&#xe008;" horiz-adv-x="512" 
d="M454 143c0 -85 -59 -143 -162 -143h-209c-4 0 -7 2 -7 8v485c0 6 3 8 7 8h209c102 0 162 -49 162 -141v-18c0 -34 -19 -68 -50 -83c-7 -4 -7 -9 0 -12c29 -15 50 -48 50 -84v-20zM343 343v13c0 26 -19 48 -51 48h-95c-7 0 -9 -3 -9 -9v-90c0 -5 2 -8 9 -8h95
c33 0 51 19 51 46zM343 144v21c0 25 -20 46 -51 46h-95c-7 0 -9 -3 -9 -8v-97c0 -5 2 -8 9 -8h95c28 0 51 22 51 46z" />
    <glyph glyph-name="C.sc" unicode="&#xe009;" horiz-adv-x="472" 
d="M433 85c-35 -65 -78 -96 -154 -96h-51c-102 0 -164 59 -164 144v234c0 87 62 145 164 145h51c76 0 119 -31 154 -96c3 -5 4 -11 -1 -14l-83 -38c-5 -2 -10 1 -13 5c-17 29 -38 45 -62 45h-46c-33 0 -54 -20 -54 -47v-234c0 -26 21 -47 54 -47h46c24 0 45 17 62 46
c3 5 8 8 13 6l83 -38c5 -3 4 -10 1 -15z" />
    <glyph glyph-name="Ccedilla.sc" unicode="&#xe00a;" horiz-adv-x="472" 
d="M433 85c-35 -65 -84 -96 -154 -96c-5 0 -10 -1 -14 -9c-2 -5 -1 -10 3 -12c26 -14 42 -40 42 -72v-8c0 -62 -49 -103 -111 -103h-59c-7 0 -10 3 -10 10v66c0 7 3 10 10 10h59c9 0 18 8 18 17v8c0 9 -9 18 -18 18h-40c-9 0 -13 6 -9 14l27 55c3 6 1 13 -6 15
c-52 19 -107 50 -107 135v234c0 87 62 145 164 145h51c76 0 119 -31 154 -96c3 -5 4 -11 -1 -14l-83 -38c-5 -2 -10 1 -13 5c-17 29 -38 45 -62 45h-46c-33 0 -54 -20 -54 -47v-234c0 -26 21 -47 54 -47h46c24 0 45 17 62 46c3 5 8 8 13 6l83 -38c5 -3 4 -10 1 -15z" />
    <glyph glyph-name="D.sc" unicode="&#xe00b;" horiz-adv-x="518" 
d="M454 152c0 -94 -64 -152 -162 -152h-209c-4 0 -7 2 -7 8v485c0 6 3 8 7 8h209c98 0 162 -58 162 -152v-197zM343 144v212c0 24 -23 48 -51 48h-95c-7 0 -9 -3 -9 -9v-289c0 -5 2 -8 9 -8h95c28 0 51 22 51 46z" />
    <glyph glyph-name="Eth.sc" unicode="&#xe00c;" horiz-adv-x="518" 
d="M454 152c0 -94 -64 -152 -162 -152h-209c-4 0 -7 2 -7 8v183c0 7 -3 11 -9 11h-40c-7 0 -10 3 -10 10v81c0 7 3 10 10 10h39c6 0 10 5 10 12v178c0 6 3 8 7 8h209c98 0 162 -58 162 -152v-197zM343 144v212c0 24 -23 48 -51 48h-95c-7 0 -9 -3 -9 -9v-81
c0 -7 4 -11 11 -11h61c7 0 10 -3 10 -10v-81c0 -7 -3 -10 -10 -10h-61c-9 0 -11 -5 -11 -11v-85c0 -5 2 -8 9 -8h95c28 0 51 22 51 46z" />
    <glyph glyph-name="E.sc" unicode="&#xe00d;" horiz-adv-x="456" 
d="M408 8c0 -6 -3 -8 -8 -8h-317c-4 0 -7 2 -7 8v485c0 6 3 8 7 8h317c4 0 8 -2 8 -8v-82c0 -5 -3 -7 -8 -7h-203c-7 0 -9 -3 -9 -9v-84c0 -5 2 -8 9 -8h167c4 0 9 -2 9 -7v-83c0 -6 -5 -8 -9 -8h-167c-7 0 -9 -3 -9 -8v-91c0 -5 2 -8 9 -8h203c4 0 8 -2 8 -8v-82z" />
    <glyph glyph-name="Eacute.sc" unicode="&#xe00e;" horiz-adv-x="456" 
d="M416 716c0 -5 -3 -8 -7 -12l-142 -140c-5 -4 -10 -7 -16 -7h-68c-7 0 -10 3 -10 8c0 4 3 8 6 13l90 138c3 5 9 8 14 8h122c7 0 11 -3 11 -8zM408 8c0 -6 -3 -8 -8 -8h-317c-4 0 -7 2 -7 8v485c0 6 3 8 7 8h317c4 0 8 -2 8 -8v-82c0 -5 -3 -7 -8 -7h-203c-7 0 -9 -3 -9 -9
v-84c0 -5 2 -8 9 -8h167c4 0 9 -2 9 -7v-83c0 -6 -5 -8 -9 -8h-167c-7 0 -9 -3 -9 -8v-91c0 -5 2 -8 9 -8h203c4 0 8 -2 8 -8v-82z" />
    <glyph glyph-name="Ecircumflex.sc" unicode="&#xe00f;" horiz-adv-x="456" 
d="M382 565c0 -5 -4 -8 -11 -8h-81c-3 0 -6 2 -8 5l-33 51c-2 4 -5 6 -8 6c-2 0 -5 -2 -7 -6l-32 -51c-2 -3 -5 -5 -8 -5h-81c-7 0 -11 3 -11 8c0 3 1 5 3 8l104 147c2 2 5 4 8 4h49c3 0 6 -2 8 -4l105 -147c2 -3 3 -6 3 -8zM408 8c0 -6 -3 -8 -8 -8h-317c-4 0 -7 2 -7 8
v485c0 6 3 8 7 8h317c4 0 8 -2 8 -8v-82c0 -5 -3 -7 -8 -7h-203c-7 0 -9 -3 -9 -9v-84c0 -5 2 -8 9 -8h167c4 0 9 -2 9 -7v-83c0 -6 -5 -8 -9 -8h-167c-7 0 -9 -3 -9 -8v-91c0 -5 2 -8 9 -8h203c4 0 8 -2 8 -8v-82z" />
    <glyph glyph-name="Edieresis.sc" unicode="&#xe010;" horiz-adv-x="456" 
d="M389 641c0 -35 -27 -62 -62 -62s-62 27 -62 62s27 62 62 62s62 -27 62 -62zM220 641c0 -35 -27 -62 -62 -62s-62 27 -62 62s27 62 62 62s62 -27 62 -62zM408 8c0 -6 -3 -8 -8 -8h-317c-4 0 -7 2 -7 8v485c0 6 3 8 7 8h317c4 0 8 -2 8 -8v-82c0 -5 -3 -7 -8 -7h-203
c-7 0 -9 -3 -9 -9v-84c0 -5 2 -8 9 -8h167c4 0 9 -2 9 -7v-83c0 -6 -5 -8 -9 -8h-167c-7 0 -9 -3 -9 -8v-91c0 -5 2 -8 9 -8h203c4 0 8 -2 8 -8v-82z" />
    <glyph glyph-name="Egrave.sc" unicode="&#xe011;" horiz-adv-x="456" 
d="M326 565c0 -5 -3 -8 -10 -8h-68c-6 0 -11 3 -16 7l-142 140c-4 4 -7 7 -7 12s4 8 11 8h122c5 0 11 -3 14 -8l90 -138c3 -5 6 -9 6 -13zM408 8c0 -6 -3 -8 -8 -8h-317c-4 0 -7 2 -7 8v485c0 6 3 8 7 8h317c4 0 8 -2 8 -8v-82c0 -5 -3 -7 -8 -7h-203c-7 0 -9 -3 -9 -9v-84
c0 -5 2 -8 9 -8h167c4 0 9 -2 9 -7v-83c0 -6 -5 -8 -9 -8h-167c-7 0 -9 -3 -9 -8v-91c0 -5 2 -8 9 -8h203c4 0 8 -2 8 -8v-82z" />
    <glyph glyph-name="F.sc" unicode="&#xe012;" horiz-adv-x="439" 
d="M408 411c0 -5 -3 -7 -8 -7h-203c-7 0 -9 -3 -9 -9v-84c0 -5 2 -8 9 -8h167c4 0 9 -2 9 -7v-83c0 -6 -5 -8 -9 -8h-167c-7 0 -9 -3 -9 -8v-189c0 -6 -3 -8 -8 -8h-97c-4 0 -7 2 -7 8v485c0 6 3 8 7 8h317c4 0 8 -2 8 -8v-82z" />
    <glyph glyph-name="G.sc" unicode="&#xe013;" horiz-adv-x="502" 
d="M444 416c2 -5 3 -11 -3 -14l-82 -38c-5 -2 -10 1 -13 5c-17 29 -38 45 -62 45h-56c-33 0 -54 -20 -54 -47v-234c0 -26 24 -46 54 -46h51c30 0 51 20 51 46v42c0 6 -3 8 -9 8h-70c-4 0 -8 3 -8 8v70c0 7 4 8 8 8h184c6 0 7 -1 7 -8v-128c0 -88 -60 -144 -163 -144h-51
c-104 0 -164 56 -164 144v234c0 87 62 145 164 145h60c76 0 120 -30 156 -96z" />
    <glyph glyph-name="H.sc" unicode="&#xe014;" horiz-adv-x="542" 
d="M466 8c0 -6 -3 -8 -8 -8h-95c-5 0 -8 2 -8 8v189c0 5 -3 8 -9 8h-149c-7 0 -9 -3 -9 -8v-189c0 -6 -3 -8 -8 -8h-97c-4 0 -7 2 -7 8v485c0 6 3 8 7 8h97c3 0 8 -2 8 -8v-182c0 -5 2 -8 9 -8h149c6 0 9 3 9 8v182c0 6 3 8 8 8h95c5 0 8 -2 8 -8v-485z" />
    <glyph glyph-name="I.sc" unicode="&#xe015;" horiz-adv-x="264" 
d="M188 8c0 -6 -3 -8 -8 -8h-97c-4 0 -7 2 -7 8v485c0 6 3 8 7 8h97c3 0 8 -2 8 -8v-485z" />
    <glyph glyph-name="Iacute.sc" unicode="&#xe016;" horiz-adv-x="264" 
d="M317 716c0 -5 -3 -8 -7 -12l-142 -140c-5 -4 -10 -7 -16 -7h-68c-7 0 -10 3 -10 8c0 4 3 8 6 13l90 138c3 5 9 8 14 8h122c7 0 11 -3 11 -8zM188 8c0 -6 -3 -8 -8 -8h-97c-4 0 -7 2 -7 8v485c0 6 3 8 7 8h97c3 0 8 -2 8 -8v-485z" />
    <glyph glyph-name="Icircumflex.sc" unicode="&#xe017;" horiz-adv-x="264" 
d="M271 565c0 -5 -4 -8 -11 -8h-81c-3 0 -6 2 -8 5l-33 51c-2 4 -5 6 -8 6c-2 0 -5 -2 -7 -6l-32 -51c-2 -3 -5 -5 -8 -5h-81c-7 0 -11 3 -11 8c0 3 1 5 3 8l104 147c2 2 5 4 8 4h49c3 0 6 -2 8 -4l105 -147c2 -3 3 -6 3 -8zM188 8c0 -6 -3 -8 -8 -8h-97c-4 0 -7 2 -7 8v485
c0 6 3 8 7 8h97c3 0 8 -2 8 -8v-485z" />
    <glyph glyph-name="Idieresis.sc" unicode="&#xe018;" horiz-adv-x="264" 
d="M276 641c0 -35 -27 -62 -62 -62s-62 27 -62 62s27 62 62 62s62 -27 62 -62zM107 641c0 -35 -27 -62 -62 -62s-62 27 -62 62s27 62 62 62s62 -27 62 -62zM188 8c0 -6 -3 -8 -8 -8h-97c-4 0 -7 2 -7 8v485c0 6 3 8 7 8h97c3 0 8 -2 8 -8v-485z" />
    <glyph glyph-name="Igrave.sc" unicode="&#xe019;" horiz-adv-x="264" 
d="M188 565c0 -5 -3 -8 -10 -8h-68c-6 0 -11 3 -16 7l-142 140c-4 4 -7 7 -7 12s4 8 11 8h122c5 0 11 -3 14 -8l90 -138c3 -5 6 -9 6 -13zM188 8c0 -6 -3 -8 -8 -8h-97c-4 0 -7 2 -7 8v485c0 6 3 8 7 8h97c3 0 8 -2 8 -8v-485z" />
    <glyph glyph-name="J.sc" unicode="&#xe01a;" horiz-adv-x="401" 
d="M337 146c0 -95 -62 -155 -166 -155c-74 0 -128 37 -156 100c-3 5 -2 9 3 12l87 38c6 3 9 1 12 -4c13 -30 32 -48 59 -48c29 0 49 20 49 47v357c0 6 3 8 7 8h97c4 0 8 -2 8 -8v-347z" />
    <glyph glyph-name="K.sc" unicode="&#xe01b;" horiz-adv-x="493" 
d="M485 12c4 -6 3 -12 -6 -12h-126c-4 0 -8 2 -12 6l-116 184c-3 6 -9 6 -13 1l-24 -29v-154c0 -6 -3 -8 -8 -8h-97c-4 0 -7 2 -7 8v485c0 6 3 8 7 8h97c3 0 8 -2 8 -8v-143c0 -17 0 -34 -2 -42l152 188c2 3 6 5 10 5h117c9 0 11 -6 6 -13l-169 -193c-3 -3 -3 -5 0 -8z" />
    <glyph glyph-name="L.sc" unicode="&#xe01c;" horiz-adv-x="419" 
d="M408 8c0 -6 -3 -8 -8 -8h-317c-4 0 -7 2 -7 8v485c0 6 3 8 7 8h97c4 0 8 -2 8 -8v-387c0 -5 2 -8 9 -8h203c4 0 8 -2 8 -8v-82z" />
    <glyph glyph-name="Lslash.sc" unicode="&#xe01d;" horiz-adv-x="419" 
d="M408 8c0 -6 -3 -8 -8 -8h-317c-4 0 -7 2 -7 8v132c0 11 -4 13 -11 6l-14 -14c-4 -5 -10 -5 -14 -1l-52 51c-5 5 -5 9 0 14l80 79c8 8 11 16 11 27v191c0 6 3 8 7 8h98c3 0 7 -2 7 -8v-80c0 -8 6 -11 13 -5l16 18c5 4 10 4 14 0l51 -51c5 -5 5 -9 0 -14l-83 -82
c-7 -7 -11 -15 -11 -25v-148c0 -5 2 -8 10 -8h202c4 0 8 -2 8 -8v-82z" />
    <glyph glyph-name="M.sc" unicode="&#xe01e;" horiz-adv-x="609" 
d="M530 8c0 -6 -3 -8 -8 -8h-92c-5 0 -7 2 -7 8v125c0 71 6 151 6 156h-3c0 -2 -7 -40 -19 -68l-62 -150c-1 -6 -7 -8 -11 -8h-61c-5 0 -10 2 -13 8l-60 152c-11 28 -20 64 -21 66h-2c0 -5 7 -82 7 -155v-126c0 -6 -2 -8 -8 -8h-93c-5 0 -7 2 -7 8v485c0 6 2 8 7 8h97
c4 0 6 -1 8 -5l105 -259c6 -15 9 -30 10 -31h3c0 1 5 17 10 31l102 259c2 4 5 5 9 5h95c5 0 8 -2 8 -8v-485z" />
    <glyph glyph-name="N.sc" unicode="&#xe01f;" horiz-adv-x="517" 
d="M441 8c0 -6 -3 -8 -8 -8h-84c-3 0 -5 2 -8 6l-140 253c-9 16 -16 33 -16 34h-3c0 -5 4 -78 4 -142v-143c0 -6 -4 -8 -9 -8h-94c-4 0 -7 2 -7 8v485c0 6 3 8 7 8h84c5 0 8 -2 10 -6l139 -257c9 -17 16 -35 17 -37h3c0 6 -3 78 -3 146v146c0 6 2 8 7 8h93c4 0 8 -2 8 -8
v-485z" />
    <glyph glyph-name="Ntilde.sc" unicode="&#xe020;" horiz-adv-x="517" 
d="M419 657c0 -4 -7 -17 -18 -34c-26 -38 -54 -55 -84 -55c-22 0 -43 13 -69 29l-18 11c-8 5 -18 10 -26 10c-13 0 -25 -7 -41 -31c-2 -4 -5 -6 -8 -6s-8 4 -14 9l-34 25c-3 2 -4 4 -4 8s5 14 14 28c27 42 55 58 87 58c23 0 44 -9 68 -26l17 -12c8 -6 20 -11 28 -11
c13 0 26 6 43 34c2 4 5 6 8 6c4 0 7 -3 11 -6l36 -29c3 -2 4 -5 4 -8zM441 8c0 -6 -3 -8 -8 -8h-84c-3 0 -5 2 -8 6l-140 253c-9 16 -16 33 -16 34h-3c0 -5 4 -78 4 -142v-143c0 -6 -4 -8 -9 -8h-94c-4 0 -7 2 -7 8v485c0 6 3 8 7 8h84c5 0 8 -2 10 -6l139 -257
c9 -17 16 -35 17 -37h3c0 6 -3 78 -3 146v146c0 6 2 8 7 8h93c4 0 8 -2 8 -8v-485z" />
    <glyph glyph-name="O.sc" unicode="&#xe021;" horiz-adv-x="506" 
d="M442 133c0 -85 -66 -144 -163 -144h-51c-99 0 -164 59 -164 144v234c0 87 67 145 164 145h51c97 0 163 -58 163 -145v-234zM330 133v235c0 27 -22 46 -51 46h-51c-30 0 -54 -21 -54 -46v-235c0 -27 21 -46 54 -46h51c30 0 51 20 51 46z" />
    <glyph glyph-name="OE.sc" unicode="&#xe022;" horiz-adv-x="706" 
d="M658 8c0 -6 -4 -8 -8 -8h-307c-19 -6 -41 -10 -64 -10h-52c-98 0 -163 58 -163 144v232c0 87 65 145 163 145h52c23 0 46 -4 65 -10h306c4 0 8 -2 8 -8v-82c0 -5 -4 -7 -8 -7h-203c-8 0 -10 -4 -9 -10c3 -7 4 -32 4 -38v-45c0 -5 2 -8 9 -8h163c5 0 9 -2 9 -7v-83
c0 -6 -4 -8 -9 -8h-163c-7 0 -9 -3 -9 -8v-50c0 -5 -1 -33 -4 -40c-1 -6 1 -9 9 -9h203c4 0 8 -2 8 -8v-82zM330 133v234c0 27 -22 47 -51 47h-52c-29 0 -53 -22 -53 -47v-234c0 -26 20 -45 53 -45h52c30 0 51 20 51 45z" />
    <glyph glyph-name="Oacute.sc" unicode="&#xe023;" horiz-adv-x="506" 
d="M436 716c0 -5 -3 -8 -7 -12l-142 -140c-5 -4 -10 -7 -16 -7h-68c-7 0 -10 3 -10 8c0 4 3 8 6 13l90 138c3 5 9 8 14 8h122c7 0 11 -3 11 -8zM442 133c0 -85 -66 -144 -163 -144h-51c-99 0 -164 59 -164 144v234c0 87 67 145 164 145h51c97 0 163 -58 163 -145v-234z
M330 133v235c0 27 -22 46 -51 46h-51c-30 0 -54 -21 -54 -46v-235c0 -27 21 -46 54 -46h51c30 0 51 20 51 46z" />
    <glyph glyph-name="Ocircumflex.sc" unicode="&#xe024;" horiz-adv-x="506" 
d="M395 565c0 -5 -4 -8 -11 -8h-81c-3 0 -6 2 -8 5l-33 51c-2 4 -5 6 -8 6c-2 0 -5 -2 -7 -6l-32 -51c-2 -3 -5 -5 -8 -5h-81c-7 0 -11 3 -11 8c0 3 1 5 3 8l104 147c2 2 5 4 8 4h49c3 0 6 -2 8 -4l105 -147c2 -3 3 -6 3 -8zM442 133c0 -85 -66 -144 -163 -144h-51
c-99 0 -164 59 -164 144v234c0 87 67 145 164 145h51c97 0 163 -58 163 -145v-234zM330 133v235c0 27 -22 46 -51 46h-51c-30 0 -54 -21 -54 -46v-235c0 -27 21 -46 54 -46h51c30 0 51 20 51 46z" />
    <glyph glyph-name="Odieresis.sc" unicode="&#xe025;" horiz-adv-x="506" 
d="M400 641c0 -35 -27 -62 -62 -62s-62 27 -62 62s27 62 62 62s62 -27 62 -62zM231 641c0 -35 -27 -62 -62 -62s-62 27 -62 62s27 62 62 62s62 -27 62 -62zM442 133c0 -85 -66 -144 -163 -144h-51c-99 0 -164 59 -164 144v234c0 87 67 145 164 145h51c97 0 163 -58 163 -145
v-234zM330 133v235c0 27 -22 46 -51 46h-51c-30 0 -54 -21 -54 -46v-235c0 -27 21 -46 54 -46h51c30 0 51 20 51 46z" />
    <glyph glyph-name="Ograve.sc" unicode="&#xe026;" horiz-adv-x="506" 
d="M304 565c0 -5 -3 -8 -10 -8h-68c-6 0 -11 3 -16 7l-142 140c-4 4 -7 7 -7 12s4 8 11 8h122c5 0 11 -3 14 -8l90 -138c3 -5 6 -9 6 -13zM442 133c0 -85 -66 -144 -163 -144h-51c-99 0 -164 59 -164 144v234c0 87 67 145 164 145h51c97 0 163 -58 163 -145v-234zM330 133
v235c0 27 -22 46 -51 46h-51c-30 0 -54 -21 -54 -46v-235c0 -27 21 -46 54 -46h51c30 0 51 20 51 46z" />
    <glyph glyph-name="Oslash.sc" unicode="&#xe027;" horiz-adv-x="506" 
d="M442 134c0 -86 -66 -144 -163 -144h-51c-99 0 -164 58 -164 144v232c0 87 67 145 164 145h51c97 0 163 -58 163 -145v-232zM284 401c3 5 1 8 -4 9c-4 2 -20 4 -25 4h-27c-30 0 -54 -22 -54 -47v-171c0 -1 0 -15 1 -16c0 -6 7 -7 9 -1zM330 133v169c0 1 -1 17 -1 19
c0 6 -6 7 -9 1l-99 -220c-2 -5 0 -9 5 -10c3 -2 20 -4 25 -4h28c30 0 51 20 51 45z" />
    <glyph glyph-name="Otilde.sc" unicode="&#xe028;" horiz-adv-x="506" 
d="M409 657c0 -4 -7 -17 -18 -34c-26 -38 -54 -55 -84 -55c-22 0 -43 13 -69 29l-18 11c-8 5 -18 10 -26 10c-13 0 -25 -7 -41 -31c-2 -4 -5 -6 -8 -6s-8 4 -14 9l-34 25c-3 2 -4 4 -4 8s5 14 14 28c27 42 55 58 87 58c23 0 44 -9 68 -26l17 -12c8 -6 20 -11 28 -11
c13 0 26 6 43 34c2 4 5 6 8 6c4 0 7 -3 11 -6l36 -29c3 -2 4 -5 4 -8zM442 133c0 -85 -66 -144 -163 -144h-51c-99 0 -164 59 -164 144v234c0 87 67 145 164 145h51c97 0 163 -58 163 -145v-234zM330 133v235c0 27 -22 46 -51 46h-51c-30 0 -54 -21 -54 -46v-235
c0 -27 21 -46 54 -46h51c30 0 51 20 51 46z" />
    <glyph glyph-name="P.sc" unicode="&#xe029;" horiz-adv-x="457" 
d="M431 334c0 -78 -67 -129 -163 -129h-71c-7 0 -9 -3 -9 -8v-189c0 -6 -3 -8 -8 -8h-97c-4 0 -7 2 -7 8v485c0 6 3 8 7 8h185c98 0 163 -51 163 -141v-26zM322 340v19c0 25 -20 45 -51 45h-74c-7 0 -9 -3 -9 -9v-90c0 -5 2 -8 9 -8h74c31 0 51 18 51 43z" />
    <glyph glyph-name="Thorn.sc" unicode="&#xe02a;" horiz-adv-x="457" 
d="M431 269c0 -78 -67 -129 -164 -129h-70c-7 0 -9 -4 -9 -9v-123c0 -6 -3 -8 -8 -8h-97c-4 0 -7 2 -7 8v485c0 6 4 8 8 8h97c4 0 8 -2 8 -8v-49c0 -5 2 -9 10 -9h68c99 0 164 -51 164 -141v-25zM321 275v19c0 24 -20 44 -51 44h-73c-7 0 -9 -3 -9 -8v-90c0 -5 2 -9 9 -9h73
c31 0 51 18 51 44z" />
    <glyph glyph-name="Q.sc" unicode="&#xe02b;" horiz-adv-x="506" 
d="M442 130c0 -77 -52 -128 -130 -141c-5 -1 -7 -4 -7 -8v-58c0 -7 -4 -9 -9 -9h-89c-5 0 -8 2 -8 9v58c0 3 -2 6 -7 8c-79 13 -128 66 -128 141v236c0 87 67 145 164 145h51c98 0 163 -58 163 -145v-236zM330 123v244c0 27 -22 47 -51 47h-51c-30 0 -54 -22 -54 -47v-244
c0 -14 10 -27 23 -34c3 -2 7 -2 9 2l15 43c3 5 7 8 11 8h39c5 0 10 -3 12 -8l15 -42c2 -5 7 -6 10 -2c13 5 22 19 22 33z" />
    <glyph glyph-name="R.sc" unicode="&#xe02c;" horiz-adv-x="511" 
d="M469 10c2 -5 1 -10 -7 -10h-103c-3 0 -6 2 -7 6l-77 194c-2 4 -4 5 -7 5h-71c-7 0 -9 -3 -9 -8v-189c0 -6 -3 -8 -8 -8h-97c-4 0 -7 2 -7 8v485c0 6 3 8 7 8h209c98 0 162 -58 162 -152v-7c0 -48 -26 -88 -62 -108c-7 -4 -6 -9 -4 -16zM343 343v13c0 28 -20 48 -51 48
h-95c-7 0 -9 -3 -9 -9v-90c0 -5 2 -8 9 -8h95c30 0 51 18 51 46z" />
    <glyph glyph-name="S.sc" unicode="&#xe02d;" horiz-adv-x="443" 
d="M396 140c0 -92 -60 -151 -165 -151h-31c-74 0 -124 33 -152 83c-3 5 -5 11 2 15l70 46c5 3 12 3 14 -3c16 -27 38 -43 65 -43h31c31 0 53 22 53 51c0 40 -46 52 -100 72c-80 29 -133 62 -133 151c0 92 63 151 165 151h16c74 0 124 -32 153 -82c3 -5 5 -12 -2 -16l-70 -45
c-5 -4 -12 -4 -15 2c-15 28 -37 43 -65 43h-17c-30 0 -51 -19 -51 -50c0 -36 53 -52 98 -68c85 -29 134 -66 134 -156z" />
    <glyph glyph-name="Scaron.sc" unicode="&#xe02e;" horiz-adv-x="443" 
d="M360 716c0 -4 -5 -11 -10 -18l-98 -137c-2 -2 -5 -4 -8 -4h-49c-3 0 -6 2 -8 4l-97 137c-6 9 -10 14 -10 18c0 5 4 8 11 8h81c3 0 6 -2 8 -5l32 -51c2 -4 4 -6 7 -6s6 2 8 6l33 51c2 3 5 5 8 5h81c7 0 11 -3 11 -8zM396 140c0 -92 -60 -151 -165 -151h-31
c-74 0 -124 33 -152 83c-3 5 -5 11 2 15l70 46c5 3 12 3 14 -3c16 -27 38 -43 65 -43h31c31 0 53 22 53 51c0 40 -46 52 -100 72c-80 29 -133 62 -133 151c0 92 63 151 165 151h16c74 0 124 -32 153 -82c3 -5 5 -12 -2 -16l-70 -45c-5 -4 -12 -4 -15 2c-15 28 -37 43 -65 43
h-17c-30 0 -51 -19 -51 -50c0 -36 53 -52 98 -68c85 -29 134 -66 134 -156z" />
    <glyph glyph-name="T.sc" unicode="&#xe02f;" horiz-adv-x="377" 
d="M357 411c0 -5 -3 -7 -7 -7h-96c-8 0 -10 -3 -10 -9v-387c0 -6 -3 -8 -7 -8h-97c-4 0 -7 2 -7 8v387c0 6 -2 9 -10 9h-95c-5 0 -8 2 -8 7v82c0 6 3 8 8 8h322c2 0 7 -2 7 -8v-82z" />
    <glyph glyph-name="U.sc" unicode="&#xe030;" horiz-adv-x="517" 
d="M448 133c0 -85 -66 -144 -164 -144h-51c-99 0 -163 59 -163 144v360c0 6 2 8 7 8h95c4 0 7 -2 7 -8v-360c0 -27 20 -46 54 -46h51c33 0 52 19 52 46v360c0 6 3 8 8 8h96c5 0 8 -2 8 -8v-360z" />
    <glyph glyph-name="Uacute.sc" unicode="&#xe031;" horiz-adv-x="517" 
d="M444 716c0 -5 -3 -8 -7 -12l-142 -140c-5 -4 -10 -7 -16 -7h-68c-7 0 -10 3 -10 8c0 4 3 8 6 13l90 138c3 5 9 8 14 8h122c7 0 11 -3 11 -8zM448 133c0 -85 -66 -144 -164 -144h-51c-99 0 -163 59 -163 144v360c0 6 2 8 7 8h95c4 0 7 -2 7 -8v-360c0 -27 20 -46 54 -46
h51c33 0 52 19 52 46v360c0 6 3 8 8 8h96c5 0 8 -2 8 -8v-360z" />
    <glyph glyph-name="Ucircumflex.sc" unicode="&#xe032;" horiz-adv-x="517" 
d="M399 565c0 -5 -4 -8 -11 -8h-81c-3 0 -6 2 -8 5l-33 51c-2 4 -5 6 -8 6c-2 0 -5 -2 -7 -6l-32 -51c-2 -3 -5 -5 -8 -5h-81c-7 0 -11 3 -11 8c0 3 1 5 3 8l104 147c2 2 5 4 8 4h49c3 0 6 -2 8 -4l105 -147c2 -3 3 -6 3 -8zM448 133c0 -85 -66 -144 -164 -144h-51
c-99 0 -163 59 -163 144v360c0 6 2 8 7 8h95c4 0 7 -2 7 -8v-360c0 -27 20 -46 54 -46h51c33 0 52 19 52 46v360c0 6 3 8 8 8h96c5 0 8 -2 8 -8v-360z" />
    <glyph glyph-name="Udieresis.sc" unicode="&#xe033;" horiz-adv-x="517" 
d="M404 641c0 -35 -27 -62 -62 -62s-62 27 -62 62s27 62 62 62s62 -27 62 -62zM235 641c0 -35 -27 -62 -62 -62s-62 27 -62 62s27 62 62 62s62 -27 62 -62zM448 133c0 -85 -66 -144 -164 -144h-51c-99 0 -163 59 -163 144v360c0 6 2 8 7 8h95c4 0 7 -2 7 -8v-360
c0 -27 20 -46 54 -46h51c33 0 52 19 52 46v360c0 6 3 8 8 8h96c5 0 8 -2 8 -8v-360z" />
    <glyph glyph-name="Ugrave.sc" unicode="&#xe034;" horiz-adv-x="517" 
d="M316 565c0 -5 -3 -8 -10 -8h-68c-6 0 -11 3 -16 7l-142 140c-4 4 -7 7 -7 12s4 8 11 8h122c5 0 11 -3 14 -8l90 -138c3 -5 6 -9 6 -13zM448 133c0 -85 -66 -144 -164 -144h-51c-99 0 -163 59 -163 144v360c0 6 2 8 7 8h95c4 0 7 -2 7 -8v-360c0 -27 20 -46 54 -46h51
c33 0 52 19 52 46v360c0 6 3 8 8 8h96c5 0 8 -2 8 -8v-360z" />
    <glyph glyph-name="V.sc" unicode="&#xe035;" horiz-adv-x="444" 
d="M429 491l-163 -485c-2 -4 -5 -6 -8 -6h-72c-2 0 -6 1 -8 6l-164 485c-2 6 1 10 8 10h103c5 0 7 -1 8 -5l76 -254c7 -23 11 -42 13 -59h3c1 17 6 36 13 59l72 254c1 4 3 5 8 5h104c7 0 9 -5 7 -10z" />
    <glyph glyph-name="W.sc" unicode="&#xe036;" horiz-adv-x="604" 
d="M585 492l-115 -485c-1 -5 -4 -7 -8 -7h-77c-4 0 -6 2 -7 6l-68 261c-4 16 -6 40 -7 42h-3c0 -2 -2 -27 -6 -42l-67 -261c-1 -4 -4 -6 -8 -6h-77c-3 0 -6 2 -7 7l-117 485c-2 5 1 9 7 9h102c5 0 7 -2 8 -6l50 -267c3 -14 5 -42 5 -44h3c0 2 2 29 6 44l64 266c1 4 3 7 9 7
h65c5 0 8 -2 9 -6l58 -267c4 -16 5 -43 6 -44h2c1 1 3 28 6 45l51 266c1 4 4 6 8 6h101c7 0 9 -4 7 -9z" />
    <glyph glyph-name="X.sc" unicode="&#xe037;" horiz-adv-x="471" 
d="M440 490l-135 -234c-2 -4 -3 -8 1 -14l132 -231c4 -6 1 -11 -7 -11h-106c-8 0 -12 3 -14 9l-70 135c-2 6 -7 6 -10 0l-70 -135c-3 -6 -7 -9 -15 -9h-106c-8 0 -11 5 -7 12l133 231c2 5 3 8 0 13l-135 234c-4 6 0 11 6 11h109c6 0 10 -2 12 -6l73 -139c4 -7 8 -7 11 0
l70 139c3 4 7 6 12 6h110c6 0 10 -5 6 -11z" />
    <glyph glyph-name="Y.sc" unicode="&#xe038;" horiz-adv-x="395" 
d="M408 489l-154 -263v-218c0 -6 -4 -8 -9 -8h-95c-5 0 -8 2 -8 8v218l-154 263c-4 7 -1 12 7 12h110c4 0 8 -2 11 -7l74 -138c4 -7 11 -7 15 0l76 138c2 5 7 7 11 7h109c8 0 11 -5 7 -12z" />
    <glyph glyph-name="Yacute.sc" unicode="&#xe039;" horiz-adv-x="395" 
d="M382 716c0 -5 -3 -8 -7 -12l-142 -140c-5 -4 -10 -7 -16 -7h-68c-7 0 -10 3 -10 8c0 4 3 8 6 13l90 138c3 5 9 8 14 8h122c7 0 11 -3 11 -8zM408 489l-154 -263v-218c0 -6 -4 -8 -9 -8h-95c-5 0 -8 2 -8 8v218l-154 263c-4 7 -1 12 7 12h110c4 0 8 -2 11 -7l74 -138
c4 -7 11 -7 15 0l76 138c2 5 7 7 11 7h109c8 0 11 -5 7 -12z" />
    <glyph glyph-name="Ydieresis.sc" unicode="&#xe03a;" horiz-adv-x="395" 
d="M347 641c0 -35 -27 -62 -62 -62s-62 27 -62 62s27 62 62 62s62 -27 62 -62zM178 641c0 -35 -27 -62 -62 -62s-62 27 -62 62s27 62 62 62s62 -27 62 -62zM408 489l-154 -263v-218c0 -6 -4 -8 -9 -8h-95c-5 0 -8 2 -8 8v218l-154 263c-4 7 -1 12 7 12h110c4 0 8 -2 11 -7
l74 -138c4 -7 11 -7 15 0l76 138c2 5 7 7 11 7h109c8 0 11 -5 7 -12z" />
    <glyph glyph-name="Z.sc" unicode="&#xe03b;" horiz-adv-x="431" 
d="M395 490l-192 -381c-3 -6 0 -11 9 -11h168c5 0 8 -2 8 -8v-82c0 -6 -4 -8 -8 -8h-339c-7 0 -10 5 -7 11l191 381c3 6 0 12 -9 12h-151c-5 0 -8 2 -8 7v82c0 6 3 8 8 8h322c8 0 10 -5 8 -11z" />
    <glyph glyph-name="Zcaron.sc" unicode="&#xe03c;" horiz-adv-x="431" 
d="M360 716c0 -4 -5 -11 -10 -18l-98 -137c-2 -2 -5 -4 -8 -4h-49c-3 0 -6 2 -8 4l-97 137c-6 9 -10 14 -10 18c0 5 4 8 11 8h81c3 0 6 -2 8 -5l32 -51c2 -4 4 -6 7 -6s6 2 8 6l33 51c2 3 5 5 8 5h81c7 0 11 -3 11 -8zM395 490l-192 -381c-3 -6 0 -11 9 -11h168
c5 0 8 -2 8 -8v-82c0 -6 -4 -8 -8 -8h-339c-7 0 -10 5 -7 11l191 381c3 6 0 12 -9 12h-151c-5 0 -8 2 -8 7v82c0 6 3 8 8 8h322c8 0 10 -5 8 -11z" />
    <glyph glyph-name="germandbls.sc" unicode="&#xe03d;" horiz-adv-x="871" 
d="M824 140c0 -92 -60 -151 -165 -151h-31c-74 0 -124 33 -152 83c-3 5 -5 11 2 15l70 46c5 3 12 3 14 -3c16 -27 38 -43 65 -43h31c31 0 53 22 53 51c0 40 -46 52 -100 72c-80 29 -133 62 -133 151c0 92 63 151 165 151h16c74 0 124 -32 153 -82c3 -5 5 -12 -2 -16l-70 -45
c-5 -4 -12 -4 -15 2c-15 28 -37 43 -65 43h-17c-30 0 -51 -19 -51 -50c0 -36 53 -52 98 -68c85 -29 134 -66 134 -156zM396 140c0 -92 -60 -151 -165 -151h-31c-74 0 -124 33 -152 83c-3 5 -5 11 2 15l70 46c5 3 12 3 14 -3c16 -27 38 -43 65 -43h31c31 0 53 22 53 51
c0 40 -46 52 -100 72c-80 29 -133 62 -133 151c0 92 63 151 165 151h16c74 0 124 -32 153 -82c3 -5 5 -12 -2 -16l-70 -45c-5 -4 -12 -4 -15 2c-15 28 -37 43 -65 43h-17c-30 0 -51 -19 -51 -50c0 -36 53 -52 98 -68c85 -29 134 -66 134 -156z" />
    <glyph glyph-name="f_i.sc" unicode="&#xe03e;" horiz-adv-x="703" 
d="M627 8c0 -6 -3 -8 -8 -8h-97c-4 0 -7 2 -7 8v485c0 6 3 8 7 8h97c3 0 8 -2 8 -8v-485zM408 411c0 -5 -3 -7 -8 -7h-203c-7 0 -9 -3 -9 -9v-84c0 -5 2 -8 9 -8h167c4 0 9 -2 9 -7v-83c0 -6 -5 -8 -9 -8h-167c-7 0 -9 -3 -9 -8v-189c0 -6 -3 -8 -8 -8h-97c-4 0 -7 2 -7 8
v485c0 6 3 8 7 8h317c4 0 8 -2 8 -8v-82z" />
    <glyph glyph-name="f_l.sc" unicode="&#xe03f;" horiz-adv-x="858" 
d="M847 8c0 -6 -3 -8 -8 -8h-317c-4 0 -7 2 -7 8v485c0 6 3 8 7 8h97c4 0 8 -2 8 -8v-387c0 -5 2 -8 9 -8h203c4 0 8 -2 8 -8v-82zM408 411c0 -5 -3 -7 -8 -7h-203c-7 0 -9 -3 -9 -9v-84c0 -5 2 -8 9 -8h167c4 0 9 -2 9 -7v-83c0 -6 -5 -8 -9 -8h-167c-7 0 -9 -3 -9 -8v-189
c0 -6 -3 -8 -8 -8h-97c-4 0 -7 2 -7 8v485c0 6 3 8 7 8h317c4 0 8 -2 8 -8v-82z" />
    <glyph glyph-name="f_f.sc" unicode="&#xf040;" horiz-adv-x="878" 
d="M847 411c0 -5 -3 -7 -8 -7h-203c-7 0 -9 -3 -9 -9v-84c0 -5 2 -8 9 -8h167c4 0 9 -2 9 -7v-83c0 -6 -5 -8 -9 -8h-167c-7 0 -9 -3 -9 -8v-189c0 -6 -3 -8 -8 -8h-97c-4 0 -7 2 -7 8v485c0 6 3 8 7 8h317c4 0 8 -2 8 -8v-82zM408 411c0 -5 -3 -7 -8 -7h-203
c-7 0 -9 -3 -9 -9v-84c0 -5 2 -8 9 -8h167c4 0 9 -2 9 -7v-83c0 -6 -5 -8 -9 -8h-167c-7 0 -9 -3 -9 -8v-189c0 -6 -3 -8 -8 -8h-97c-4 0 -7 2 -7 8v485c0 6 3 8 7 8h317c4 0 8 -2 8 -8v-82z" />
    <glyph glyph-name="f_f_i.sc" unicode="&#xe041;" horiz-adv-x="1142" 
d="M1066 8c0 -6 -3 -8 -8 -8h-97c-4 0 -7 2 -7 8v485c0 6 3 8 7 8h97c3 0 8 -2 8 -8v-485zM847 411c0 -5 -3 -7 -8 -7h-203c-7 0 -9 -3 -9 -9v-84c0 -5 2 -8 9 -8h167c4 0 9 -2 9 -7v-83c0 -6 -5 -8 -9 -8h-167c-7 0 -9 -3 -9 -8v-189c0 -6 -3 -8 -8 -8h-97c-4 0 -7 2 -7 8
v485c0 6 3 8 7 8h317c4 0 8 -2 8 -8v-82zM408 411c0 -5 -3 -7 -8 -7h-203c-7 0 -9 -3 -9 -9v-84c0 -5 2 -8 9 -8h167c4 0 9 -2 9 -7v-83c0 -6 -5 -8 -9 -8h-167c-7 0 -9 -3 -9 -8v-189c0 -6 -3 -8 -8 -8h-97c-4 0 -7 2 -7 8v485c0 6 3 8 7 8h317c4 0 8 -2 8 -8v-82z" />
    <glyph glyph-name="f_f_l.sc" unicode="&#xe042;" horiz-adv-x="1297" 
d="M1286 8c0 -6 -3 -8 -8 -8h-317c-4 0 -7 2 -7 8v485c0 6 3 8 7 8h97c4 0 8 -2 8 -8v-387c0 -5 2 -8 9 -8h203c4 0 8 -2 8 -8v-82zM847 411c0 -5 -3 -7 -8 -7h-203c-7 0 -9 -3 -9 -9v-84c0 -5 2 -8 9 -8h167c4 0 9 -2 9 -7v-83c0 -6 -5 -8 -9 -8h-167c-7 0 -9 -3 -9 -8
v-189c0 -6 -3 -8 -8 -8h-97c-4 0 -7 2 -7 8v485c0 6 3 8 7 8h317c4 0 8 -2 8 -8v-82zM408 411c0 -5 -3 -7 -8 -7h-203c-7 0 -9 -3 -9 -9v-84c0 -5 2 -8 9 -8h167c4 0 9 -2 9 -7v-83c0 -6 -5 -8 -9 -8h-167c-7 0 -9 -3 -9 -8v-189c0 -6 -3 -8 -8 -8h-97c-4 0 -7 2 -7 8v485
c0 6 3 8 7 8h317c4 0 8 -2 8 -8v-82z" />
    <glyph glyph-name="E.alt" unicode="&#xe043;" horiz-adv-x="458" 
d="M449 108c0 -6 -10 -22 -19 -37c-30 -47 -75 -81 -158 -81h-27c-114 0 -187 71 -187 185v29c0 37 25 85 54 113c3 2 4 5 4 7s-1 5 -4 7c-29 28 -54 71 -54 108v14c0 114 73 187 187 187h27c83 0 128 -34 158 -81c9 -15 19 -31 19 -37c0 -3 -2 -5 -6 -7l-80 -41
c-4 -2 -8 -5 -12 -5c-3 0 -6 2 -8 7c-18 43 -44 59 -71 59h-27c-39 0 -72 -33 -72 -72v-14c0 -39 33 -72 72 -72h90c7 0 10 -3 10 -10v-85c0 -7 -3 -10 -10 -10h-90c-40 0 -72 -31 -72 -71v-34c0 -39 33 -72 72 -72h27c27 0 53 16 71 59c2 5 5 7 8 7c4 0 8 -3 12 -5l80 -41
c4 -2 6 -4 6 -7z" />
    <glyph glyph-name="zero.oldstyle" unicode="&#xf730;" 
d="M454 167c0 -104 -73 -177 -186 -177h-29c-114 0 -186 73 -186 177v168c0 104 72 177 186 177h29c113 0 186 -73 186 -177v-168zM339 167v168c0 40 -31 72 -71 72h-29c-39 0 -72 -33 -72 -72v-168c0 -39 33 -72 72 -72h29c40 0 71 32 71 72z" />
    <glyph glyph-name="one.oldstyle" unicode="&#xf731;" 
d="M437 10c0 -7 -3 -10 -10 -10h-323c-7 0 -10 3 -10 10v85c0 7 3 10 10 10h94c7 0 10 3 10 10v175c0 11 -9 15 -17 7l-30 -31c-5 -5 -9 -5 -14 0l-62 61c-5 5 -5 9 0 14l167 168c1 1 5 3 7 3h54c7 0 10 -3 10 -10v-387c0 -7 3 -10 10 -10h94c7 0 10 -3 10 -10v-85z" />
    <glyph glyph-name="two.oldstyle" unicode="&#xf732;" 
d="M455 340c0 -112 -102 -132 -178 -155c-53 -16 -93 -26 -93 -63v-8c0 -6 3 -9 11 -9h244c6 0 10 -3 10 -9v-87c0 -6 -3 -9 -10 -9h-365c-6 0 -10 3 -10 9v72c0 137 90 166 167 189c63 18 110 27 110 75c0 39 -26 62 -76 62h-39c-35 0 -59 -17 -76 -58c-2 -6 -8 -8 -15 -6
l-85 44c-7 4 -6 10 -4 15c34 73 86 110 177 110h42c117 0 190 -69 190 -172z" />
    <glyph glyph-name="three.oldstyle" unicode="&#xf733;" 
d="M440 47c0 -114 -73 -185 -187 -185h-28c-101 0 -146 50 -175 114c-3 6 -1 10 5 13l87 43c6 3 11 1 13 -6c16 -43 43 -59 70 -59h28c39 0 72 33 72 72v34c0 40 -32 71 -72 71h-90c-7 0 -10 3 -10 10v85c0 7 3 10 10 10h90c39 0 72 33 72 72v14c0 39 -33 72 -72 72h-28
c-27 0 -53 -16 -71 -59c-3 -7 -7 -8 -14 -5l-86 44c-6 3 -7 7 -4 13c29 62 74 112 175 112h28c114 0 187 -73 187 -187v-14c0 -37 -25 -80 -54 -108c-5 -5 -5 -9 0 -14c29 -28 54 -76 54 -113v-29z" />
    <glyph glyph-name="four.oldstyle" unicode="&#xf734;" 
d="M484 10c0 -7 -3 -10 -10 -10h-65c-7 0 -10 -3 -10 -10v-109c0 -7 -3 -10 -10 -10h-95c-7 0 -10 3 -10 10v109c0 7 -3 10 -10 10h-236c-7 0 -10 3 -10 10v85l261 402c2 2 5 4 8 4h92c7 0 10 -3 10 -10v-376c0 -7 3 -10 10 -10h65c7 0 10 -3 10 -10v-85zM284 115v164
c0 12 -12 16 -18 6l-103 -164c-6 -9 -2 -16 8 -16h103c7 0 10 3 10 10z" />
    <glyph glyph-name="five.oldstyle" unicode="&#xf735;" 
d="M447 46c0 -114 -73 -185 -186 -185h-29c-101 0 -146 50 -174 114c-3 6 -1 10 5 13l86 43c6 3 11 1 13 -6c16 -43 44 -59 70 -59h29c40 0 71 32 71 72v34c0 40 -31 71 -71 71h-167c-7 0 -10 3 -10 10v338c0 7 3 10 10 10h333c7 0 10 -3 10 -10v-85c0 -7 -3 -10 -10 -10
h-218c-7 0 -10 -3 -10 -10v-128c0 -7 3 -10 10 -10h52c113 0 186 -70 186 -184v-18z" />
    <glyph glyph-name="six.oldstyle" unicode="&#xf736;" 
d="M464 167c0 -104 -73 -177 -187 -177h-30c-113 0 -186 73 -186 177v296c0 104 73 177 186 177h30c101 0 145 -50 177 -112c3 -6 1 -11 -5 -14l-87 -42c-6 -3 -10 -1 -13 5c-18 41 -41 58 -72 58h-30c-40 0 -71 -32 -71 -72v-91c0 -10 6 -14 15 -9c21 11 46 19 66 19h30
c98 0 177 -73 177 -177v-38zM349 167v38c0 39 -33 72 -72 72h-30c-40 0 -71 -32 -71 -72v-38c0 -40 31 -72 71 -72h30c39 0 72 33 72 72z" />
    <glyph glyph-name="seven.oldstyle" unicode="&#xf737;" 
d="M449 376c0 -128 -79 -181 -149 -228c-47 -32 -90 -59 -90 -110v-157c0 -7 -3 -10 -10 -10h-94c-7 0 -10 3 -10 10v157c0 109 66 158 129 202c54 37 110 68 110 136v10c0 7 -3 10 -10 10h-238c-7 0 -10 3 -10 10v85c0 7 3 10 10 10h352c7 0 10 -3 10 -10v-115z" />
    <glyph glyph-name="eight.oldstyle" unicode="&#xf738;" 
d="M454 175c0 -114 -73 -185 -186 -185h-29c-114 0 -186 71 -186 185v24c0 37 25 85 53 113c5 5 5 9 0 14c-28 27 -53 71 -53 108v19c0 114 72 187 186 187h29c113 0 186 -73 186 -187v-19c0 -37 -25 -81 -53 -108c-5 -5 -5 -9 0 -14c28 -28 53 -76 53 -113v-24zM339 444v19
c0 40 -31 72 -71 72h-29c-39 0 -72 -33 -72 -72v-19c0 -39 33 -72 72 -72h29c40 0 71 32 71 72zM339 167v29c0 40 -31 71 -71 71h-29c-40 0 -72 -31 -72 -71v-29c0 -39 33 -72 72 -72h29c40 0 71 32 71 72z" />
    <glyph glyph-name="nine.oldstyle" unicode="&#xf739;" 
d="M446 39c0 -104 -73 -177 -187 -177h-30c-101 0 -145 49 -174 114c-3 6 -1 10 5 13l86 43c6 3 11 1 13 -6c16 -43 40 -59 70 -59h30c39 0 72 33 72 72v57c0 10 -6 14 -15 9c-21 -11 -46 -18 -66 -18h-30c-98 0 -177 72 -177 176v72c0 104 73 177 186 177h30
c114 0 187 -73 187 -177v-296zM331 263v72c0 39 -33 72 -72 72h-30c-40 0 -71 -32 -71 -72v-72c0 -40 31 -71 71 -71h30c40 0 72 31 72 71z" />
    <glyph glyph-name="notequal" unicode="&#x2260;" horiz-adv-x="557" 
d="M481 141h-223l-50 -114h-93l50 114h-88v86h125l61 140h-186v86h223l54 125h93l-55 -125h89v-86h-126l-61 -140h187v-86z" />
    <glyph glyph-name="lessequal" unicode="&#x2264;" horiz-adv-x="557" 
d="M481 0h-404v86h404v-86zM481 139l-404 182v73l404 182v-91l-294 -127v-2l294 -127v-90z" />
    <glyph glyph-name="greaterequal" unicode="&#x2265;" horiz-adv-x="557" 
d="M481 0h-404v86h404v-86zM481 321l-404 -182v91l294 127v2l-294 127v90l404 -181v-74z" />
    <glyph glyph-name="approxequal" unicode="&#x2248;" horiz-adv-x="557" 
d="M506 421c-33 -52 -72 -86 -131 -86c-35 0 -71 10 -103 31c-27 17 -55 31 -85 31c-35 0 -62 -34 -79 -65l-56 65c31 47 69 86 132 86c38 0 70 -11 101 -31c34 -20 58 -31 86 -31c34 0 61 31 79 64zM506 196c-33 -52 -72 -86 -131 -86c-35 0 -71 10 -103 31
c-27 17 -55 31 -85 31c-35 0 -62 -34 -79 -65l-56 65c31 47 69 86 132 86c38 0 70 -11 101 -31c34 -20 58 -31 86 -31c34 0 61 31 79 64z" />
    <glyph glyph-name="infinity" unicode="&#x221e;" horiz-adv-x="789" 
d="M742 294c0 -100 -71 -176 -171 -176c-75 0 -140 43 -181 106h-2c-42 -60 -103 -106 -178 -106c-93 0 -173 64 -173 173c0 108 80 173 172 173c82 0 141 -49 179 -106h2c31 47 92 106 178 106c100 0 174 -71 174 -170zM653 293c0 50 -30 92 -92 92c-55 0 -93 -37 -129 -93
c33 -58 78 -95 129 -95c62 0 92 46 92 96zM346 292c-33 53 -79 93 -130 93c-59 0 -90 -44 -90 -94c0 -53 37 -94 91 -94s98 44 129 95z" />
    <glyph glyph-name="partialdiff" unicode="&#x2202;" horiz-adv-x="580" 
d="M545 470c0 -61 -8 -126 -24 -189c-40 -153 -135 -292 -282 -292c-117 0 -197 81 -197 197c0 200 135 308 259 308c63 0 109 -31 127 -63h2c2 19 4 37 4 60c0 99 -49 153 -129 153c-32 0 -69 -11 -95 -27c-9 26 -17 52 -25 77c29 19 81 36 136 36c136 0 224 -93 224 -260z
M417 341c-14 42 -46 73 -98 73c-84 0 -162 -102 -162 -234c0 -62 32 -103 83 -103c87 0 152 120 177 264z" />
    <glyph glyph-name="summation" unicode="&#x2211;" horiz-adv-x="635" 
d="M582 -230h-559v59c100 137 198 273 298 410l-279 396v65h519v-94h-376c85 -121 171 -242 256 -364l-273 -378h414v-94z" />
    <glyph glyph-name="product" unicode="&#x220f;" horiz-adv-x="723" 
d="M646 -230h-117v830h-335v-830h-116v930h568v-930z" />
    <glyph glyph-name="pi" unicode="&#x3c0;" horiz-adv-x="659" 
d="M598 85l20 -74c-20 -12 -49 -20 -86 -20c-100 0 -136 70 -136 150v274h-124v-269c0 -67 -6 -111 -17 -146h-117c13 42 19 97 19 155v260c-28 0 -71 -10 -95 -23c-11 24 -22 50 -32 74c29 17 86 34 156 34h427v-85h-101v-259c0 -48 13 -80 53 -80c13 0 24 4 33 9z" />
    <glyph glyph-name="integral" unicode="&#x222b;" horiz-adv-x="493" 
d="M412 653c-10 4 -26 9 -43 9c-47 0 -73 -31 -73 -91v-613c0 -113 -55 -190 -171 -190c-27 0 -65 6 -81 14c7 27 13 55 20 82c12 -4 26 -8 44 -8c48 0 73 32 73 90v613c0 113 55 191 173 191c31 0 68 -8 82 -15c-8 -28 -16 -55 -24 -82z" />
    <glyph glyph-name="Omega" unicode="&#x2126;" horiz-adv-x="714" 
d="M658 0h-246v94c53 51 124 134 124 280c0 137 -64 238 -183 238c-113 0 -188 -98 -188 -241s69 -227 125 -277v-94h-246v94h148c-63 50 -150 139 -150 301c0 182 127 317 313 317c197 0 304 -134 304 -314c0 -148 -75 -245 -151 -304h150v-94z" />
    <glyph glyph-name="Delta" unicode="&#x2206;" horiz-adv-x="613" 
d="M622 0h-598v51c75 216 148 432 223 649h156c73 -217 146 -433 219 -649v-51zM485 94c-49 150 -98 299 -148 448c-8 27 -12 48 -15 61h-4c-3 -12 -8 -35 -15 -59c-49 -150 -99 -300 -148 -450h330z" />
    <glyph glyph-name="lozenge" unicode="&#x25ca;" horiz-adv-x="564" 
d="M498 350c-68 -117 -135 -233 -202 -350h-55c-67 116 -134 233 -201 349l201 351h55c67 -117 134 -233 202 -350zM411 350c-47 83 -95 166 -142 249c-47 -83 -95 -166 -142 -249c47 -83 94 -166 142 -249c47 83 95 166 142 249z" />
    <glyph glyph-name="litre" unicode="&#x2113;" horiz-adv-x="496" 
d="M411 47c-29 -28 -78 -62 -137 -62c-43 0 -72 13 -95 36c-28 28 -41 79 -41 129v82l-54 -57c-12 17 -24 34 -36 52c30 30 60 61 90 92v214c0 129 57 195 142 195c83 0 111 -66 111 -117c0 -97 -49 -177 -116 -259c-10 -11 -25 -29 -33 -38v-154c0 -69 26 -94 60 -94
c31 0 58 23 77 43c10 -21 22 -42 32 -62zM324 597c0 26 -10 50 -34 50c-30 0 -48 -28 -48 -98v-142c6 6 13 14 17 22c39 53 65 118 65 168z" />
    <glyph glyph-name="estimated" unicode="&#x212e;" horiz-adv-x="663" 
d="M604 286h-442v-197c43 -41 95 -64 157 -64c98 0 163 49 211 131c13 -8 24 -15 36 -22c-59 -89 -128 -146 -247 -146c-172 0 -279 134 -279 299c0 166 105 298 280 298c178 0 279 -132 284 -299zM478 324v159c-42 42 -99 66 -159 66c-62 0 -115 -22 -157 -65v-160h316z
" />
    <glyph glyph-name="radical" unicode="&#x221a;" horiz-adv-x="519" 
d="M524 729c-61 -247 -121 -494 -181 -741h-93c-43 105 -85 211 -128 316c-18 -12 -36 -23 -54 -35c-12 20 -24 39 -36 59c46 30 94 61 140 91l123 -309c50 206 100 413 151 619h78z" />
    <glyph glyph-name="uni00AD" unicode="&#xad;" horiz-adv-x="278" 
d="M239 182c0 -7 -3 -10 -10 -10h-180c-7 0 -10 3 -10 10v94c0 7 3 10 10 10h180c7 0 10 -3 10 -10v-94z" />
    <glyph glyph-name="uni02C9" unicode="&#x2c9;" horiz-adv-x="500" 
d="M376 555c0 -7 -3 -10 -10 -10h-228c-7 0 -10 3 -10 10v85c0 7 3 10 10 10h228c7 0 10 -3 10 -10v-85z" />
    <glyph glyph-name="uni03BC" unicode="&#x3bc;" horiz-adv-x="478" 
d="M420 10c0 -7 -3 -10 -10 -10h-85c-7 0 -10 4 -10 9c0 7 -3 11 -8 11c-3 0 -4 -1 -7 -2c-21 -11 -46 -18 -66 -18c-22 0 -42 3 -61 8c-7 2 -10 -1 -10 -8v-150c0 -7 -3 -10 -10 -10h-95c-7 0 -10 3 -10 10v598c0 7 3 10 10 10h95c7 0 10 -3 10 -10v-271
c0 -41 31 -72 71 -72c39 0 72 31 72 72v271c0 7 3 10 10 10h94c7 0 10 -3 10 -10v-438z" />
    <glyph glyph-name="uni2215" unicode="&#x2215;" horiz-adv-x="193" 
d="M270 622c0 -4 -2 -10 -5 -16l-257 -600c-2 -4 -5 -6 -9 -6h-54c-7 0 -10 3 -10 8c0 4 3 10 6 18l256 598c2 4 5 6 9 6h54c7 0 10 -3 10 -8z" />
    <glyph glyph-name="uni2219" unicode="&#x2219;" 
d="M321 243c0 -36 -31 -67 -67 -67s-68 31 -68 67s31 67 67 67s68 -31 68 -67z" />
    <glyph glyph-name="uni03A9" unicode="&#x3a9;" horiz-adv-x="714" 
d="M658 0h-246v94c53 51 124 134 124 280c0 137 -64 238 -183 238c-113 0 -188 -98 -188 -241s69 -227 125 -277v-94h-246v94h148c-63 50 -150 139 -150 301c0 182 127 317 313 317c197 0 304 -134 304 -314c0 -148 -75 -245 -151 -304h150v-94z" />
    <glyph glyph-name="uni00A0" unicode="&#xa0;" 
 />
    </font>
</defs>
</svg>
